<ttFont>
    <TTGlyph name=".notdef" xMin="68" yMin="-161" xMax="1936" yMax="1247">
      <contour>
        <pt x="1227" y="553" on="1"/>
        <pt x="1376" y="752" on="1"/>
        <pt x="1331" y="791" on="0"/>
        <pt x="1300" y="805" on="1"/>
        <pt x="1149" y="614" on="1"/>
        <pt x="1040" y="701" on="0"/>
        <pt x="950" y="764" on="1"/>
        <pt x="909" y="717" on="0"/>
        <pt x="897" y="684" on="1"/>
        <pt x="1083" y="537" on="1"/>
        <pt x="936" y="346" on="1"/>
        <pt x="937" y="337" on="0"/>
        <pt x="996" y="291" on="0"/>
        <pt x="1006" y="291" on="0"/>
        <pt x="1006" y="291" on="1"/>
        <pt x="1165" y="471" on="1"/>
        <pt x="1356" y="324" on="1"/>
        <pt x="1364" y="326" on="0"/>
        <pt x="1412" y="386" on="0"/>
        <pt x="1411" y="393" on="1"/>
        <pt x="1396" y="407" on="0"/>
        <pt x="1270" y="515" on="0"/>
      </contour>
      <contour>
        <pt x="92" y="856" on="1"/>
        <pt x="616" y="811" on="1"/>
        <pt x="689" y="826" on="0"/>
        <pt x="863" y="859" on="0"/>
        <pt x="964" y="879" on="0"/>
        <pt x="1082" y="903" on="0"/>
        <pt x="1148" y="919" on="0"/>
        <pt x="1220" y="941" on="0"/>
        <pt x="1240" y="952" on="1"/>
        <pt x="1289" y="978" on="0"/>
        <pt x="1307" y="1006" on="1"/>
        <pt x="1368" y="1114" on="0"/>
        <pt x="1497" y="1206" on="0"/>
        <pt x="1636" y="1206" on="0"/>
        <pt x="1681" y="1192" on="1"/>
        <pt x="1681" y="1194" on="1"/>
        <pt x="1833" y="1247" on="1"/>
        <pt x="1839" y="1247" on="0"/>
        <pt x="1839" y="1243" on="1"/>
        <pt x="1839" y="1241" on="1"/>
        <pt x="1788" y="1100" on="1"/>
        <pt x="1931" y="1106" on="1"/>
        <pt x="1936" y="1106" on="0"/>
        <pt x="1936" y="1103" on="1"/>
        <pt x="1935" y="1101" on="0"/>
        <pt x="1935" y="1100" on="1"/>
        <pt x="1804" y="965" on="1"/>
        <pt x="1802" y="967" on="1"/>
        <pt x="1797" y="482" on="0"/>
        <pt x="1309" y="150" on="1"/>
        <pt x="1309" y="126" on="0"/>
        <pt x="1286" y="100" on="0"/>
        <pt x="1272" y="100" on="1"/>
        <pt x="1247" y="76" on="1"/>
        <pt x="1379" y="29" on="0"/>
        <pt x="1442" y="-2" on="1"/>
        <pt x="1485" y="-1" on="1"/>
        <pt x="1560" y="-1" on="0"/>
        <pt x="1612" y="-39" on="1"/>
        <pt x="1612" y="-44" on="1"/>
        <pt x="1612" y="-47" on="0"/>
        <pt x="1605" y="-52" on="0"/>
        <pt x="1604" y="-53" on="1"/>
        <pt x="1544" y="-25" on="0"/>
        <pt x="1498" y="-25" on="0"/>
        <pt x="1485" y="-27" on="1"/>
        <pt x="1539" y="-56" on="0"/>
        <pt x="1561" y="-88" on="1"/>
        <pt x="1558" y="-97" on="0"/>
        <pt x="1542" y="-100" on="1"/>
        <pt x="1477" y="-35" on="0"/>
        <pt x="1416" y="-35" on="1"/>
        <pt x="1392" y="-35" on="0"/>
        <pt x="1371" y="-39" on="0"/>
        <pt x="1362" y="-40" on="0"/>
        <pt x="1344" y="-47" on="0"/>
        <pt x="1337" y="-50" on="0"/>
        <pt x="1313" y="-61" on="0"/>
        <pt x="1308" y="-61" on="1"/>
        <pt x="1301" y="-61" on="1"/>
        <pt x="1295" y="-61" on="0"/>
        <pt x="1294" y="-51" on="1"/>
        <pt x="1314" y="-29" on="0"/>
        <pt x="1340" y="-21" on="0"/>
        <pt x="1371" y="-12" on="0"/>
        <pt x="1382" y="-8" on="1"/>
        <pt x="1334" y="18" on="0"/>
        <pt x="1204" y="63" on="0"/>
        <pt x="1204" y="70" on="1"/>
        <pt x="1204" y="82" on="0"/>
        <pt x="1227" y="100" on="1"/>
        <pt x="1212" y="100" on="0"/>
        <pt x="1191" y="128" on="0"/>
        <pt x="1188" y="139" on="1"/>
        <pt x="1133" y="139" on="1"/>
        <pt x="1072" y="139" on="0"/>
        <pt x="1020" y="147" on="1"/>
        <pt x="1002" y="99" on="0"/>
        <pt x="972" y="99" on="1"/>
        <pt x="968" y="99" on="0"/>
        <pt x="965" y="100" on="1"/>
        <pt x="941" y="87" on="0"/>
        <pt x="934" y="80" on="1"/>
        <pt x="1066" y="-4" on="0"/>
        <pt x="1106" y="-37" on="1"/>
        <pt x="1113" y="-39" on="0"/>
        <pt x="1166" y="-47" on="0"/>
        <pt x="1180" y="-51" on="1"/>
        <pt x="1223" y="-63" on="0"/>
        <pt x="1253" y="-104" on="1"/>
        <pt x="1253" y="-112" on="0"/>
        <pt x="1245" y="-117" on="0"/>
        <pt x="1243" y="-119" on="1"/>
        <pt x="1217" y="-95" on="0"/>
        <pt x="1183" y="-78" on="0"/>
        <pt x="1143" y="-72" on="1"/>
        <pt x="1183" y="-97" on="0"/>
        <pt x="1198" y="-152" on="1"/>
        <pt x="1195" y="-161" on="0"/>
        <pt x="1185" y="-161" on="0"/>
        <pt x="1182" y="-160" on="1"/>
        <pt x="1150" y="-109" on="0"/>
        <pt x="1088" y="-60" on="0"/>
        <pt x="984" y="-60" on="0"/>
        <pt x="930" y="-74" on="1"/>
        <pt x="924" y="-65" on="0"/>
        <pt x="924" y="-57" on="1"/>
        <pt x="953" y="-34" on="0"/>
        <pt x="1012" y="-34" on="1"/>
        <pt x="1014" y="-34" on="0"/>
        <pt x="1039" y="-33" on="0"/>
        <pt x="1040" y="-33" on="1"/>
        <pt x="1013" y="-10" on="0"/>
        <pt x="972" y="16" on="1"/>
        <pt x="887" y="70" on="0"/>
        <pt x="887" y="84" on="1"/>
        <pt x="887" y="94" on="0"/>
        <pt x="908" y="108" on="0"/>
        <pt x="913" y="113" on="1"/>
        <pt x="898" y="128" on="0"/>
        <pt x="898" y="168" on="0"/>
        <pt x="899" y="178" on="1"/>
        <pt x="736" y="267" on="0"/>
        <pt x="624" y="407" on="1"/>
        <pt x="541" y="511" on="0"/>
        <pt x="469" y="631" on="1"/>
        <pt x="467" y="634" on="0"/>
        <pt x="465" y="638" on="0"/>
        <pt x="462" y="643" on="0"/>
        <pt x="452" y="648" on="0"/>
        <pt x="375" y="674" on="0"/>
        <pt x="352" y="682" on="0"/>
        <pt x="284" y="705" on="0"/>
        <pt x="256" y="717" on="0"/>
        <pt x="200" y="739" on="0"/>
        <pt x="169" y="755" on="0"/>
        <pt x="148" y="766" on="1"/>
        <pt x="69" y="808" on="0"/>
        <pt x="69" y="856" on="0"/>
      </contour>
    </TTGlyph>
    <TTGlyph name="A" xMin="31" yMin="-35" xMax="1346" yMax="1454">
      <contour>
        <pt x="1178" y="1337" on="0"/>
        <pt x="1203" y="1253" on="0"/>
        <pt x="1244" y="910" on="0"/>
        <pt x="1288" y="432" on="0"/>
        <pt x="1316" y="170" on="0"/>
        <pt x="1346" y="2" on="1"/>
        <pt x="1274" y="-21" on="0"/>
        <pt x="1071" y="-21" on="0"/>
        <pt x="1030" y="2" on="1"/>
        <pt x="988" y="122" on="0"/>
        <pt x="967" y="477" on="1"/>
        <pt x="559" y="496" on="1"/>
        <pt x="466" y="-4" on="0"/>
        <pt x="236" y="-33" on="1"/>
        <pt x="226" y="-34" on="0"/>
        <pt x="217" y="-34" on="1"/>
        <pt x="147" y="-34" on="0"/>
        <pt x="31" y="51" on="0"/>
        <pt x="31" y="111" on="1"/>
        <pt x="114" y="167" on="0"/>
        <pt x="255" y="367" on="0"/>
        <pt x="348" y="596" on="0"/>
        <pt x="382" y="724" on="1"/>
        <pt x="444" y="965" on="0"/>
        <pt x="444" y="1172" on="1"/>
        <pt x="444" y="1243" on="0"/>
        <pt x="410" y="1311" on="0"/>
        <pt x="356" y="1319" on="1"/>
        <pt x="340" y="1339" on="0"/>
        <pt x="340" y="1441" on="0"/>
        <pt x="344" y="1454" on="1"/>
        <pt x="623" y="1439" on="0"/>
        <pt x="1069" y="1434" on="1"/>
        <pt x="1115" y="1420" on="0"/>
      </contour>
      <contour>
        <pt x="956" y="629" on="1"/>
        <pt x="951" y="735" on="0"/>
        <pt x="939" y="1057" on="0"/>
        <pt x="935" y="1134" on="0"/>
        <pt x="927" y="1203" on="0"/>
        <pt x="919" y="1233" on="0"/>
        <pt x="910" y="1245" on="1"/>
        <pt x="898" y="1262" on="0"/>
        <pt x="801" y="1274" on="0"/>
        <pt x="625" y="1274" on="1"/>
        <pt x="625" y="1143" on="0"/>
        <pt x="596" y="757" on="0"/>
        <pt x="582" y="647" on="1"/>
        <pt x="620" y="647" on="1"/>
        <pt x="792" y="647" on="0"/>
      </contour>
    </TTGlyph>
    <TTGlyph name="AE" xMin="31" yMin="-35" xMax="1915" yMax="1454">
      <contour>
        <pt x="1915" y="1210" on="0"/>
        <pt x="1853" y="1092" on="0"/>
        <pt x="1683" y="1092" on="0"/>
        <pt x="1649" y="1145" on="1"/>
        <pt x="1649" y="1266" on="1"/>
        <pt x="1357" y="1280" on="0"/>
        <pt x="1155" y="1280" on="1"/>
        <pt x="1180" y="1167" on="0"/>
        <pt x="1180" y="863" on="1"/>
        <pt x="1180" y="801" on="1"/>
        <pt x="1638" y="823" on="1"/>
        <pt x="1655" y="805" on="0"/>
        <pt x="1655" y="686" on="0"/>
        <pt x="1645" y="629" on="1"/>
        <pt x="1590" y="621" on="0"/>
        <pt x="1358" y="621" on="0"/>
        <pt x="1180" y="641" on="1"/>
        <pt x="1180" y="610" on="1"/>
        <pt x="1173" y="268" on="1"/>
        <pt x="1173" y="162" on="0"/>
        <pt x="1196" y="154" on="1"/>
        <pt x="1357" y="154" on="0"/>
        <pt x="1649" y="168" on="1"/>
        <pt x="1649" y="289" on="1"/>
        <pt x="1666" y="322" on="0"/>
        <pt x="1727" y="336" on="1"/>
        <pt x="1751" y="342" on="0"/>
        <pt x="1780" y="342" on="1"/>
        <pt x="1853" y="342" on="0"/>
        <pt x="1915" y="223" on="0"/>
        <pt x="1915" y="78" on="1"/>
        <pt x="1915" y="24" on="0"/>
        <pt x="1909" y="-11" on="0"/>
        <pt x="1898" y="-20" on="1"/>
        <pt x="1513" y="-4" on="0"/>
        <pt x="999" y="0" on="1"/>
        <pt x="946" y="0" on="0"/>
        <pt x="924" y="91" on="1"/>
        <pt x="905" y="173" on="0"/>
        <pt x="904" y="232" on="1"/>
        <pt x="903" y="258" on="1"/>
        <pt x="901" y="479" on="1"/>
        <pt x="559" y="496" on="1"/>
        <pt x="466" y="-4" on="0"/>
        <pt x="236" y="-33" on="1"/>
        <pt x="226" y="-34" on="0"/>
        <pt x="217" y="-34" on="1"/>
        <pt x="147" y="-34" on="0"/>
        <pt x="31" y="51" on="0"/>
        <pt x="31" y="111" on="1"/>
        <pt x="114" y="167" on="0"/>
        <pt x="255" y="367" on="0"/>
        <pt x="348" y="596" on="0"/>
        <pt x="382" y="724" on="1"/>
        <pt x="444" y="965" on="0"/>
        <pt x="444" y="1172" on="1"/>
        <pt x="444" y="1243" on="0"/>
        <pt x="410" y="1311" on="0"/>
        <pt x="356" y="1319" on="1"/>
        <pt x="340" y="1339" on="0"/>
        <pt x="340" y="1441" on="0"/>
        <pt x="344" y="1454" on="1"/>
        <pt x="619" y="1438" on="0"/>
        <pt x="986" y="1435" on="0"/>
        <pt x="1274" y="1437" on="0"/>
        <pt x="1360" y="1438" on="1"/>
        <pt x="1597" y="1441" on="0"/>
        <pt x="1898" y="1454" on="1"/>
        <pt x="1909" y="1445" on="0"/>
        <pt x="1915" y="1409" on="0"/>
        <pt x="1915" y="1356" on="1"/>
      </contour>
      <contour>
        <pt x="891" y="1260" on="1"/>
        <pt x="868" y="1266" on="1"/>
        <pt x="801" y="1274" on="0"/>
        <pt x="625" y="1274" on="1"/>
        <pt x="625" y="1143" on="0"/>
        <pt x="596" y="757" on="0"/>
        <pt x="582" y="647" on="1"/>
        <pt x="623" y="647" on="1"/>
        <pt x="748" y="647" on="0"/>
        <pt x="901" y="635" on="1"/>
        <pt x="901" y="1176" on="1"/>
        <pt x="901" y="1228" on="0"/>
      </contour>
    </TTGlyph>
    <TTGlyph name="Aacute" xMin="31" yMin="-35" xMax="1346" yMax="1897">
      <contour>
        <pt x="1288" y="432" on="0"/>
        <pt x="1244" y="910" on="0"/>
        <pt x="1203" y="1253" on="0"/>
        <pt x="1178" y="1337" on="0"/>
        <pt x="1115" y="1420" on="0"/>
        <pt x="1069" y="1434" on="1"/>
        <pt x="623" y="1439" on="0"/>
        <pt x="344" y="1454" on="1"/>
        <pt x="340" y="1441" on="0"/>
        <pt x="340" y="1339" on="0"/>
        <pt x="356" y="1319" on="1"/>
        <pt x="426" y="1309" on="0"/>
        <pt x="438" y="1246" on="1"/>
        <pt x="444" y="1217" on="0"/>
        <pt x="444" y="1077" on="0"/>
        <pt x="415" y="851" on="0"/>
        <pt x="348" y="596" on="0"/>
        <pt x="255" y="367" on="0"/>
        <pt x="114" y="167" on="0"/>
        <pt x="31" y="111" on="1"/>
        <pt x="31" y="51" on="0"/>
        <pt x="147" y="-34" on="0"/>
        <pt x="217" y="-34" on="1"/>
        <pt x="226" y="-34" on="0"/>
        <pt x="236" y="-33" on="1"/>
        <pt x="466" y="-4" on="0"/>
        <pt x="559" y="496" on="1"/>
        <pt x="967" y="477" on="1"/>
        <pt x="988" y="122" on="0"/>
        <pt x="1030" y="2" on="1"/>
        <pt x="1071" y="-21" on="0"/>
        <pt x="1274" y="-21" on="0"/>
        <pt x="1346" y="2" on="1"/>
        <pt x="1316" y="170" on="0"/>
      </contour>
      <contour>
        <pt x="935" y="1134" on="0"/>
        <pt x="939" y="1057" on="0"/>
        <pt x="951" y="735" on="0"/>
        <pt x="956" y="629" on="1"/>
        <pt x="792" y="647" on="0"/>
        <pt x="620" y="647" on="1"/>
        <pt x="582" y="647" on="1"/>
        <pt x="607" y="846" on="0"/>
        <pt x="625" y="1273" on="0"/>
        <pt x="625" y="1274" on="1"/>
        <pt x="858" y="1274" on="0"/>
        <pt x="893" y="1260" on="1"/>
        <pt x="914" y="1252" on="0"/>
        <pt x="927" y="1203" on="0"/>
      </contour>
      <contour>
        <pt x="574" y="1634" on="1"/>
        <pt x="821" y="1897" on="0"/>
        <pt x="956" y="1897" on="1"/>
        <pt x="1021" y="1897" on="0"/>
        <pt x="1070" y="1823" on="1"/>
        <pt x="1096" y="1784" on="0"/>
        <pt x="1096" y="1727" on="0"/>
        <pt x="1094" y="1714" on="1"/>
        <pt x="1060" y="1710" on="0"/>
        <pt x="804" y="1618" on="0"/>
        <pt x="637" y="1546" on="1"/>
        <pt x="588" y="1590" on="0"/>
      </contour>
    </TTGlyph>
    <TTGlyph name="Acircumflex" xMin="31" yMin="-35" xMax="1346" yMax="1933">
      <contour>
        <pt x="1288" y="432" on="0"/>
        <pt x="1244" y="910" on="0"/>
        <pt x="1203" y="1253" on="0"/>
        <pt x="1178" y="1337" on="0"/>
        <pt x="1115" y="1420" on="0"/>
        <pt x="1069" y="1434" on="1"/>
        <pt x="623" y="1439" on="0"/>
        <pt x="344" y="1454" on="1"/>
        <pt x="340" y="1441" on="0"/>
        <pt x="340" y="1339" on="0"/>
        <pt x="356" y="1319" on="1"/>
        <pt x="426" y="1309" on="0"/>
        <pt x="438" y="1246" on="1"/>
        <pt x="444" y="1217" on="0"/>
        <pt x="444" y="1077" on="0"/>
        <pt x="415" y="851" on="0"/>
        <pt x="348" y="596" on="0"/>
        <pt x="255" y="367" on="0"/>
        <pt x="114" y="167" on="0"/>
        <pt x="31" y="111" on="1"/>
        <pt x="31" y="51" on="0"/>
        <pt x="147" y="-34" on="0"/>
        <pt x="217" y="-34" on="1"/>
        <pt x="226" y="-34" on="0"/>
        <pt x="236" y="-33" on="1"/>
        <pt x="466" y="-4" on="0"/>
        <pt x="559" y="496" on="1"/>
        <pt x="967" y="477" on="1"/>
        <pt x="988" y="122" on="0"/>
        <pt x="1030" y="2" on="1"/>
        <pt x="1071" y="-21" on="0"/>
        <pt x="1274" y="-21" on="0"/>
        <pt x="1346" y="2" on="1"/>
        <pt x="1316" y="170" on="0"/>
      </contour>
      <contour>
        <pt x="935" y="1134" on="0"/>
        <pt x="939" y="1057" on="0"/>
        <pt x="951" y="735" on="0"/>
        <pt x="956" y="629" on="1"/>
        <pt x="792" y="647" on="0"/>
        <pt x="620" y="647" on="1"/>
        <pt x="582" y="647" on="1"/>
        <pt x="607" y="846" on="0"/>
        <pt x="625" y="1273" on="0"/>
        <pt x="625" y="1274" on="1"/>
        <pt x="858" y="1274" on="0"/>
        <pt x="893" y="1260" on="1"/>
        <pt x="914" y="1252" on="0"/>
        <pt x="927" y="1203" on="0"/>
      </contour>
      <contour>
        <pt x="410" y="1665" on="1"/>
        <pt x="691" y="1933" on="0"/>
        <pt x="776" y="1933" on="1"/>
        <pt x="821" y="1933" on="0"/>
        <pt x="1031" y="1778" on="0"/>
        <pt x="1147" y="1665" on="1"/>
        <pt x="1140" y="1639" on="0"/>
        <pt x="1082" y="1579" on="0"/>
        <pt x="1053" y="1565" on="1"/>
        <pt x="768" y="1743" on="1"/>
        <pt x="496" y="1569" on="1"/>
        <pt x="473" y="1579" on="0"/>
        <pt x="417" y="1638" on="0"/>
      </contour>
    </TTGlyph>
    <TTGlyph name="Adieresis" xMin="31" yMin="-35" xMax="1346" yMax="1916">
      <contour>
        <pt x="1288" y="432" on="0"/>
        <pt x="1244" y="910" on="0"/>
        <pt x="1203" y="1253" on="0"/>
        <pt x="1178" y="1337" on="0"/>
        <pt x="1115" y="1420" on="0"/>
        <pt x="1069" y="1434" on="1"/>
        <pt x="623" y="1439" on="0"/>
        <pt x="344" y="1454" on="1"/>
        <pt x="340" y="1441" on="0"/>
        <pt x="340" y="1339" on="0"/>
        <pt x="356" y="1319" on="1"/>
        <pt x="426" y="1309" on="0"/>
        <pt x="438" y="1246" on="1"/>
        <pt x="444" y="1217" on="0"/>
        <pt x="444" y="1077" on="0"/>
        <pt x="415" y="851" on="0"/>
        <pt x="348" y="596" on="0"/>
        <pt x="255" y="367" on="0"/>
        <pt x="114" y="167" on="0"/>
        <pt x="31" y="111" on="1"/>
        <pt x="31" y="51" on="0"/>
        <pt x="147" y="-34" on="0"/>
        <pt x="217" y="-34" on="1"/>
        <pt x="226" y="-34" on="0"/>
        <pt x="236" y="-33" on="1"/>
        <pt x="466" y="-4" on="0"/>
        <pt x="559" y="496" on="1"/>
        <pt x="967" y="477" on="1"/>
        <pt x="988" y="122" on="0"/>
        <pt x="1030" y="2" on="1"/>
        <pt x="1071" y="-21" on="0"/>
        <pt x="1274" y="-21" on="0"/>
        <pt x="1346" y="2" on="1"/>
        <pt x="1316" y="170" on="0"/>
      </contour>
      <contour>
        <pt x="935" y="1134" on="0"/>
        <pt x="939" y="1057" on="0"/>
        <pt x="951" y="735" on="0"/>
        <pt x="956" y="629" on="1"/>
        <pt x="792" y="647" on="0"/>
        <pt x="620" y="647" on="1"/>
        <pt x="582" y="647" on="1"/>
        <pt x="607" y="846" on="0"/>
        <pt x="625" y="1273" on="0"/>
        <pt x="625" y="1274" on="1"/>
        <pt x="858" y="1274" on="0"/>
        <pt x="893" y="1260" on="1"/>
        <pt x="914" y="1252" on="0"/>
        <pt x="927" y="1203" on="0"/>
      </contour>
      <contour>
        <pt x="641" y="1896" on="0"/>
        <pt x="719" y="1825" on="0"/>
        <pt x="719" y="1703" on="0"/>
        <pt x="626" y="1604" on="0"/>
        <pt x="500" y="1604" on="0"/>
        <pt x="420" y="1676" on="0"/>
        <pt x="420" y="1806" on="0"/>
        <pt x="474" y="1855" on="1"/>
        <pt x="524" y="1896" on="0"/>
      </contour>
      <contour>
        <pt x="1086" y="1916" on="0"/>
        <pt x="1163" y="1846" on="0"/>
        <pt x="1163" y="1723" on="0"/>
        <pt x="1069" y="1624" on="0"/>
        <pt x="935" y="1624" on="0"/>
        <pt x="865" y="1701" on="0"/>
        <pt x="865" y="1828" on="0"/>
        <pt x="918" y="1876" on="1"/>
        <pt x="967" y="1916" on="0"/>
      </contour>
    </TTGlyph>
    <TTGlyph name="Agrave" xMin="31" yMin="-35" xMax="1346" yMax="1898">
      <contour>
        <pt x="1288" y="432" on="0"/>
        <pt x="1244" y="910" on="0"/>
        <pt x="1203" y="1253" on="0"/>
        <pt x="1178" y="1337" on="0"/>
        <pt x="1115" y="1420" on="0"/>
        <pt x="1069" y="1434" on="1"/>
        <pt x="623" y="1439" on="0"/>
        <pt x="344" y="1454" on="1"/>
        <pt x="340" y="1441" on="0"/>
        <pt x="340" y="1339" on="0"/>
        <pt x="356" y="1319" on="1"/>
        <pt x="426" y="1309" on="0"/>
        <pt x="438" y="1246" on="1"/>
        <pt x="444" y="1217" on="0"/>
        <pt x="444" y="1077" on="0"/>
        <pt x="415" y="851" on="0"/>
        <pt x="348" y="596" on="0"/>
        <pt x="255" y="367" on="0"/>
        <pt x="114" y="167" on="0"/>
        <pt x="31" y="111" on="1"/>
        <pt x="31" y="51" on="0"/>
        <pt x="147" y="-34" on="0"/>
        <pt x="217" y="-34" on="1"/>
        <pt x="226" y="-34" on="0"/>
        <pt x="236" y="-33" on="1"/>
        <pt x="466" y="-4" on="0"/>
        <pt x="559" y="496" on="1"/>
        <pt x="967" y="477" on="1"/>
        <pt x="988" y="122" on="0"/>
        <pt x="1030" y="2" on="1"/>
        <pt x="1071" y="-21" on="0"/>
        <pt x="1274" y="-21" on="0"/>
        <pt x="1346" y="2" on="1"/>
        <pt x="1316" y="170" on="0"/>
      </contour>
      <contour>
        <pt x="935" y="1134" on="0"/>
        <pt x="939" y="1057" on="0"/>
        <pt x="951" y="735" on="0"/>
        <pt x="956" y="629" on="1"/>
        <pt x="792" y="647" on="0"/>
        <pt x="620" y="647" on="1"/>
        <pt x="582" y="647" on="1"/>
        <pt x="607" y="846" on="0"/>
        <pt x="625" y="1273" on="0"/>
        <pt x="625" y="1274" on="1"/>
        <pt x="858" y="1274" on="0"/>
        <pt x="893" y="1260" on="1"/>
        <pt x="914" y="1252" on="0"/>
        <pt x="927" y="1203" on="0"/>
      </contour>
      <contour>
        <pt x="998" y="1636" on="1"/>
        <pt x="982" y="1589" on="0"/>
        <pt x="934" y="1548" on="1"/>
        <pt x="599" y="1692" on="0"/>
        <pt x="508" y="1708" on="1"/>
        <pt x="477" y="1714" on="1"/>
        <pt x="475" y="1727" on="0"/>
        <pt x="475" y="1757" on="0"/>
        <pt x="484" y="1792" on="0"/>
        <pt x="500" y="1824" on="0"/>
        <pt x="512" y="1838" on="1"/>
        <pt x="562" y="1898" on="0"/>
        <pt x="617" y="1898" on="1"/>
        <pt x="754" y="1898" on="0"/>
      </contour>
    </TTGlyph>
    <TTGlyph name="Aring" xMin="31" yMin="-35" xMax="1346" yMax="2019">
      <contour>
        <pt x="1288" y="432" on="0"/>
        <pt x="1244" y="910" on="0"/>
        <pt x="1203" y="1253" on="0"/>
        <pt x="1178" y="1337" on="0"/>
        <pt x="1115" y="1420" on="0"/>
        <pt x="1069" y="1434" on="1"/>
        <pt x="623" y="1439" on="0"/>
        <pt x="344" y="1454" on="1"/>
        <pt x="340" y="1441" on="0"/>
        <pt x="340" y="1339" on="0"/>
        <pt x="356" y="1319" on="1"/>
        <pt x="426" y="1309" on="0"/>
        <pt x="438" y="1246" on="1"/>
        <pt x="444" y="1217" on="0"/>
        <pt x="444" y="1077" on="0"/>
        <pt x="415" y="851" on="0"/>
        <pt x="348" y="596" on="0"/>
        <pt x="255" y="367" on="0"/>
        <pt x="114" y="167" on="0"/>
        <pt x="31" y="111" on="1"/>
        <pt x="31" y="51" on="0"/>
        <pt x="147" y="-34" on="0"/>
        <pt x="217" y="-34" on="1"/>
        <pt x="226" y="-34" on="0"/>
        <pt x="236" y="-33" on="1"/>
        <pt x="466" y="-4" on="0"/>
        <pt x="559" y="496" on="1"/>
        <pt x="967" y="477" on="1"/>
        <pt x="988" y="122" on="0"/>
        <pt x="1030" y="2" on="1"/>
        <pt x="1071" y="-21" on="0"/>
        <pt x="1274" y="-21" on="0"/>
        <pt x="1346" y="2" on="1"/>
        <pt x="1316" y="170" on="0"/>
      </contour>
      <contour>
        <pt x="935" y="1134" on="0"/>
        <pt x="939" y="1057" on="0"/>
        <pt x="951" y="735" on="0"/>
        <pt x="956" y="629" on="1"/>
        <pt x="792" y="647" on="0"/>
        <pt x="620" y="647" on="1"/>
        <pt x="582" y="647" on="1"/>
        <pt x="607" y="846" on="0"/>
        <pt x="625" y="1273" on="0"/>
        <pt x="625" y="1274" on="1"/>
        <pt x="858" y="1274" on="0"/>
        <pt x="893" y="1260" on="1"/>
        <pt x="914" y="1252" on="0"/>
        <pt x="927" y="1203" on="0"/>
      </contour>
      <contour>
        <pt x="914" y="2019" on="0"/>
        <pt x="1043" y="1907" on="0"/>
        <pt x="1043" y="1708" on="0"/>
        <pt x="898" y="1589" on="0"/>
        <pt x="700" y="1589" on="0"/>
        <pt x="571" y="1705" on="0"/>
        <pt x="571" y="1900" on="0"/>
        <pt x="720" y="2019" on="0"/>
      </contour>
      <contour>
        <pt x="762" y="1894" on="0"/>
        <pt x="719" y="1841" on="0"/>
        <pt x="719" y="1755" on="0"/>
        <pt x="777" y="1712" on="0"/>
        <pt x="852" y="1712" on="0"/>
        <pt x="897" y="1766" on="0"/>
        <pt x="897" y="1842" on="0"/>
        <pt x="844" y="1894" on="0"/>
      </contour>
    </TTGlyph>
    <TTGlyph name="Atilde" xMin="31" yMin="-35" xMax="1346" yMax="1886">
      <contour>
        <pt x="1288" y="432" on="0"/>
        <pt x="1244" y="910" on="0"/>
        <pt x="1203" y="1253" on="0"/>
        <pt x="1178" y="1337" on="0"/>
        <pt x="1115" y="1420" on="0"/>
        <pt x="1069" y="1434" on="1"/>
        <pt x="623" y="1439" on="0"/>
        <pt x="344" y="1454" on="1"/>
        <pt x="340" y="1441" on="0"/>
        <pt x="340" y="1339" on="0"/>
        <pt x="356" y="1319" on="1"/>
        <pt x="426" y="1309" on="0"/>
        <pt x="438" y="1246" on="1"/>
        <pt x="444" y="1217" on="0"/>
        <pt x="444" y="1077" on="0"/>
        <pt x="415" y="851" on="0"/>
        <pt x="348" y="596" on="0"/>
        <pt x="255" y="367" on="0"/>
        <pt x="114" y="167" on="0"/>
        <pt x="31" y="111" on="1"/>
        <pt x="31" y="51" on="0"/>
        <pt x="147" y="-34" on="0"/>
        <pt x="217" y="-34" on="1"/>
        <pt x="226" y="-34" on="0"/>
        <pt x="236" y="-33" on="1"/>
        <pt x="466" y="-4" on="0"/>
        <pt x="559" y="496" on="1"/>
        <pt x="967" y="477" on="1"/>
        <pt x="988" y="122" on="0"/>
        <pt x="1030" y="2" on="1"/>
        <pt x="1071" y="-21" on="0"/>
        <pt x="1274" y="-21" on="0"/>
        <pt x="1346" y="2" on="1"/>
        <pt x="1316" y="170" on="0"/>
      </contour>
      <contour>
        <pt x="935" y="1134" on="0"/>
        <pt x="939" y="1057" on="0"/>
        <pt x="951" y="735" on="0"/>
        <pt x="956" y="629" on="1"/>
        <pt x="792" y="647" on="0"/>
        <pt x="620" y="647" on="1"/>
        <pt x="582" y="647" on="1"/>
        <pt x="607" y="846" on="0"/>
        <pt x="625" y="1273" on="0"/>
        <pt x="625" y="1274" on="1"/>
        <pt x="858" y="1274" on="0"/>
        <pt x="893" y="1260" on="1"/>
        <pt x="914" y="1252" on="0"/>
        <pt x="927" y="1203" on="0"/>
      </contour>
      <contour>
        <pt x="1151" y="1886" on="1"/>
        <pt x="1188" y="1872" on="0"/>
        <pt x="1208" y="1825" on="1"/>
        <pt x="1175" y="1721" on="0"/>
        <pt x="1054" y="1618" on="0"/>
        <pt x="895" y="1618" on="0"/>
        <pt x="665" y="1706" on="0"/>
        <pt x="568" y="1706" on="0"/>
        <pt x="469" y="1656" on="0"/>
        <pt x="446" y="1618" on="1"/>
        <pt x="421" y="1629" on="0"/>
        <pt x="389" y="1679" on="1"/>
        <pt x="421" y="1780" on="0"/>
        <pt x="545" y="1874" on="0"/>
        <pt x="722" y="1876" on="0"/>
        <pt x="913" y="1806" on="0"/>
        <pt x="983" y="1806" on="1"/>
        <pt x="1089" y="1806" on="0"/>
      </contour>
    </TTGlyph>
    <TTGlyph name="B" xMin="114" yMin="-43" xMax="1362" yMax="1476">
      <contour>
        <pt x="679" y="1476" on="1"/>
        <pt x="750" y="1475" on="1"/>
        <pt x="1042" y="1468" on="0"/>
        <pt x="1156" y="1366" on="1"/>
        <pt x="1255" y="1278" on="0"/>
        <pt x="1255" y="1102" on="1"/>
        <pt x="1255" y="1013" on="0"/>
        <pt x="1146" y="829" on="0"/>
        <pt x="1063" y="768" on="1"/>
        <pt x="1188" y="748" on="0"/>
        <pt x="1362" y="553" on="0"/>
        <pt x="1362" y="406" on="1"/>
        <pt x="1362" y="-43" on="0"/>
        <pt x="698" y="-43" on="1"/>
        <pt x="520" y="-43" on="0"/>
        <pt x="283" y="-10" on="1"/>
        <pt x="240" y="-4" on="0"/>
        <pt x="227" y="102" on="1"/>
        <pt x="223" y="133" on="0"/>
        <pt x="223" y="169" on="1"/>
        <pt x="235" y="829" on="1"/>
        <pt x="235" y="1219" on="0"/>
        <pt x="196" y="1278" on="1"/>
        <pt x="177" y="1305" on="0"/>
        <pt x="129" y="1309" on="1"/>
        <pt x="115" y="1343" on="0"/>
        <pt x="115" y="1418" on="0"/>
        <pt x="117" y="1427" on="1"/>
        <pt x="117" y="1434" on="1"/>
        <pt x="192" y="1450" on="0"/>
        <pt x="519" y="1476" on="0"/>
      </contour>
      <contour>
        <pt x="528" y="332" on="1"/>
        <pt x="526" y="262" on="1"/>
        <pt x="526" y="145" on="0"/>
        <pt x="567" y="119" on="1"/>
        <pt x="634" y="112" on="0"/>
        <pt x="743" y="112" on="0"/>
        <pt x="840" y="126" on="0"/>
        <pt x="937" y="164" on="0"/>
        <pt x="971" y="194" on="1"/>
        <pt x="1047" y="263" on="0"/>
        <pt x="1047" y="393" on="1"/>
        <pt x="1047" y="648" on="0"/>
        <pt x="685" y="648" on="1"/>
        <pt x="616" y="648" on="0"/>
        <pt x="535" y="639" on="1"/>
        <pt x="535" y="521" on="0"/>
      </contour>
      <contour>
        <pt x="887" y="801" on="1"/>
        <pt x="979" y="937" on="0"/>
        <pt x="979" y="1183" on="0"/>
        <pt x="827" y="1321" on="0"/>
        <pt x="666" y="1321" on="1"/>
        <pt x="588" y="1321" on="0"/>
        <pt x="504" y="1305" on="1"/>
        <pt x="527" y="1198" on="0"/>
        <pt x="533" y="1000" on="0"/>
        <pt x="534" y="834" on="0"/>
        <pt x="535" y="791" on="1"/>
        <pt x="675" y="803" on="0"/>
        <pt x="831" y="803" on="0"/>
      </contour>
    </TTGlyph>
    <TTGlyph name="C" xMin="123" yMin="-35" xMax="1307" yMax="1475">
      <contour>
        <pt x="1307" y="172" on="1"/>
        <pt x="1108" y="-35" on="0"/>
        <pt x="799" y="-35" on="1"/>
        <pt x="508" y="-35" on="0"/>
        <pt x="321" y="142" on="1"/>
        <pt x="228" y="231" on="0"/>
        <pt x="123" y="520" on="0"/>
        <pt x="123" y="933" on="0"/>
        <pt x="317" y="1283" on="0"/>
        <pt x="668" y="1475" on="0"/>
        <pt x="1099" y="1475" on="0"/>
        <pt x="1274" y="1393" on="1"/>
        <pt x="1292" y="1371" on="0"/>
        <pt x="1292" y="1304" on="0"/>
        <pt x="1292" y="1294" on="1"/>
        <pt x="1278" y="1073" on="1"/>
        <pt x="1223" y="1036" on="0"/>
        <pt x="1120" y="1036" on="0"/>
        <pt x="1060" y="1067" on="0"/>
        <pt x="1046" y="1095" on="1"/>
        <pt x="1022" y="1143" on="0"/>
        <pt x="1022" y="1240" on="0"/>
        <pt x="1024" y="1278" on="1"/>
        <pt x="968" y="1319" on="0"/>
        <pt x="783" y="1319" on="0"/>
        <pt x="670" y="1282" on="0"/>
        <pt x="570" y="1198" on="0"/>
        <pt x="535" y="1135" on="1"/>
        <pt x="459" y="998" on="0"/>
        <pt x="459" y="762" on="1"/>
        <pt x="459" y="464" on="0"/>
        <pt x="720" y="145" on="0"/>
        <pt x="928" y="145" on="1"/>
        <pt x="1079" y="145" on="0"/>
        <pt x="1227" y="272" on="1"/>
        <pt x="1285" y="244" on="0"/>
      </contour>
    </TTGlyph>
    <TTGlyph name="Ccedilla" xMin="123" yMin="-461" xMax="1339" yMax="1477">
      <contour>
        <pt x="961" y="139" on="1"/>
        <pt x="1113" y="139" on="0"/>
        <pt x="1260" y="266" on="1"/>
        <pt x="1319" y="236" on="0"/>
        <pt x="1339" y="166" on="1"/>
        <pt x="1168" y="-13" on="0"/>
        <pt x="920" y="-36" on="1"/>
        <pt x="879" y="-115" on="1"/>
        <pt x="885" y="-115" on="0"/>
        <pt x="915" y="-115" on="0"/>
        <pt x="963" y="-119" on="0"/>
        <pt x="1033" y="-129" on="0"/>
        <pt x="1093" y="-152" on="0"/>
        <pt x="1121" y="-169" on="1"/>
        <pt x="1180" y="-205" on="0"/>
        <pt x="1180" y="-324" on="0"/>
        <pt x="1115" y="-401" on="0"/>
        <pt x="1066" y="-421" on="1"/>
        <pt x="969" y="-461" on="0"/>
        <pt x="836" y="-461" on="0"/>
        <pt x="738" y="-439" on="0"/>
        <pt x="664" y="-384" on="0"/>
        <pt x="664" y="-311" on="0"/>
        <pt x="713" y="-276" on="0"/>
        <pt x="743" y="-276" on="1"/>
        <pt x="744" y="-276" on="0"/>
        <pt x="753" y="-291" on="0"/>
        <pt x="771" y="-313" on="0"/>
        <pt x="786" y="-324" on="1"/>
        <pt x="820" y="-350" on="0"/>
        <pt x="881" y="-350" on="1"/>
        <pt x="1006" y="-350" on="0"/>
        <pt x="1006" y="-276" on="1"/>
        <pt x="1006" y="-203" on="0"/>
        <pt x="852" y="-203" on="1"/>
        <pt x="798" y="-203" on="0"/>
        <pt x="772" y="-150" on="1"/>
        <pt x="821" y="-41" on="1"/>
        <pt x="585" y="-39" on="0"/>
        <pt x="416" y="71" on="1"/>
        <pt x="123" y="261" on="0"/>
        <pt x="123" y="707" on="1"/>
        <pt x="123" y="889" on="0"/>
        <pt x="243" y="1181" on="0"/>
        <pt x="352" y="1278" on="1"/>
        <pt x="576" y="1477" on="0"/>
        <pt x="942" y="1477" on="1"/>
        <pt x="1060" y="1477" on="0"/>
        <pt x="1213" y="1439" on="0"/>
        <pt x="1307" y="1395" on="1"/>
        <pt x="1325" y="1373" on="0"/>
        <pt x="1325" y="1306" on="0"/>
        <pt x="1325" y="1296" on="1"/>
        <pt x="1311" y="1075" on="1"/>
        <pt x="1255" y="1038" on="0"/>
        <pt x="1162" y="1038" on="0"/>
        <pt x="1109" y="1059" on="0"/>
        <pt x="1078" y="1092" on="0"/>
        <pt x="1069" y="1117" on="1"/>
        <pt x="1055" y="1156" on="0"/>
        <pt x="1055" y="1242" on="0"/>
        <pt x="1057" y="1280" on="1"/>
        <pt x="1018" y="1321" on="0"/>
        <pt x="881" y="1321" on="1"/>
        <pt x="564" y="1321" on="0"/>
        <pt x="483" y="988" on="1"/>
        <pt x="459" y="889" on="0"/>
        <pt x="459" y="607" on="0"/>
        <pt x="540" y="364" on="0"/>
        <pt x="610" y="290" on="1"/>
        <pt x="753" y="139" on="0"/>
      </contour>
    </TTGlyph>
    <TTGlyph name="D" xMin="115" yMin="-25" xMax="1503" yMax="1480">
      <contour>
        <pt x="219" y="629" on="1"/>
        <pt x="225" y="953" on="1"/>
        <pt x="225" y="1051" on="0"/>
        <pt x="218" y="1206" on="0"/>
        <pt x="189" y="1261" on="0"/>
        <pt x="161" y="1278" on="0"/>
        <pt x="133" y="1288" on="0"/>
        <pt x="131" y="1288" on="1"/>
        <pt x="115" y="1292" on="0"/>
        <pt x="115" y="1391" on="0"/>
        <pt x="119" y="1403" on="1"/>
        <pt x="467" y="1480" on="0"/>
        <pt x="645" y="1480" on="1"/>
        <pt x="1070" y="1480" on="0"/>
        <pt x="1305" y="1275" on="1"/>
        <pt x="1503" y="1103" on="0"/>
        <pt x="1503" y="791" on="1"/>
        <pt x="1503" y="541" on="0"/>
        <pt x="1265" y="168" on="0"/>
        <pt x="848" y="-25" on="0"/>
        <pt x="578" y="-25" on="1"/>
        <pt x="430" y="-25" on="0"/>
        <pt x="301" y="0" on="1"/>
        <pt x="235" y="27" on="0"/>
        <pt x="226" y="138" on="1"/>
        <pt x="219" y="224" on="0"/>
        <pt x="219" y="397" on="1"/>
      </contour>
      <contour>
        <pt x="526" y="1012" on="1"/>
        <pt x="516" y="404" on="1"/>
        <pt x="516" y="336" on="1"/>
        <pt x="516" y="145" on="0"/>
        <pt x="551" y="117" on="1"/>
        <pt x="587" y="111" on="0"/>
        <pt x="669" y="111" on="0"/>
        <pt x="807" y="118" on="0"/>
        <pt x="964" y="196" on="0"/>
        <pt x="1096" y="342" on="0"/>
        <pt x="1174" y="585" on="0"/>
        <pt x="1174" y="864" on="0"/>
        <pt x="1111" y="1068" on="0"/>
        <pt x="1010" y="1202" on="0"/>
        <pt x="944" y="1248" on="1"/>
        <pt x="818" y="1335" on="0"/>
        <pt x="552" y="1335" on="0"/>
        <pt x="502" y="1321" on="1"/>
        <pt x="526" y="1216" on="0"/>
        <pt x="526" y="1072" on="1"/>
      </contour>
    </TTGlyph>
    <TTGlyph name="E" xMin="124" yMin="-20" xMax="1214" yMax="1454">
      <contour>
        <pt x="1152" y="342" on="0"/>
        <pt x="1214" y="224" on="0"/>
        <pt x="1214" y="-6" on="0"/>
        <pt x="1198" y="-20" on="1"/>
        <pt x="844" y="-5" on="0"/>
        <pt x="255" y="-1" on="0"/>
        <pt x="172" y="0" on="1"/>
        <pt x="201" y="239" on="0"/>
        <pt x="201" y="528" on="1"/>
        <pt x="201" y="1176" on="1"/>
        <pt x="201" y="1263" on="0"/>
        <pt x="174" y="1288" on="1"/>
        <pt x="162" y="1299" on="0"/>
        <pt x="139" y="1307" on="1"/>
        <pt x="124" y="1327" on="0"/>
        <pt x="124" y="1416" on="0"/>
        <pt x="127" y="1434" on="1"/>
        <pt x="216" y="1435" on="0"/>
        <pt x="538" y="1437" on="0"/>
        <pt x="626" y="1438" on="1"/>
        <pt x="873" y="1441" on="0"/>
        <pt x="1198" y="1454" on="1"/>
        <pt x="1214" y="1440" on="0"/>
        <pt x="1214" y="1210" on="0"/>
        <pt x="1152" y="1092" on="0"/>
        <pt x="982" y="1092" on="0"/>
        <pt x="948" y="1145" on="1"/>
        <pt x="948" y="1266" on="1"/>
        <pt x="656" y="1280" on="0"/>
        <pt x="483" y="1280" on="1"/>
        <pt x="508" y="1170" on="0"/>
        <pt x="508" y="1010" on="1"/>
        <pt x="508" y="998" on="0"/>
        <pt x="508" y="987" on="1"/>
        <pt x="508" y="801" on="1"/>
        <pt x="938" y="823" on="1"/>
        <pt x="954" y="804" on="0"/>
        <pt x="954" y="689" on="0"/>
        <pt x="944" y="629" on="1"/>
        <pt x="889" y="621" on="0"/>
        <pt x="686" y="621" on="0"/>
        <pt x="508" y="641" on="1"/>
        <pt x="508" y="446" on="1"/>
        <pt x="508" y="435" on="0"/>
        <pt x="508" y="423" on="1"/>
        <pt x="508" y="262" on="0"/>
        <pt x="483" y="154" on="1"/>
        <pt x="656" y="154" on="0"/>
        <pt x="948" y="168" on="1"/>
        <pt x="948" y="289" on="1"/>
        <pt x="965" y="322" on="0"/>
        <pt x="1026" y="336" on="1"/>
        <pt x="1050" y="342" on="0"/>
        <pt x="1079" y="342" on="1"/>
      </contour>
    </TTGlyph>
    <TTGlyph name="Eacute" xMin="124" yMin="-20" xMax="1214" yMax="1897">
      <contour>
        <pt x="1152" y="342" on="0"/>
        <pt x="1214" y="224" on="0"/>
        <pt x="1214" y="-6" on="0"/>
        <pt x="1198" y="-20" on="1"/>
        <pt x="844" y="-5" on="0"/>
        <pt x="255" y="-1" on="0"/>
        <pt x="172" y="0" on="1"/>
        <pt x="201" y="239" on="0"/>
        <pt x="201" y="528" on="1"/>
        <pt x="201" y="1176" on="1"/>
        <pt x="201" y="1263" on="0"/>
        <pt x="174" y="1288" on="1"/>
        <pt x="162" y="1299" on="0"/>
        <pt x="139" y="1307" on="1"/>
        <pt x="124" y="1327" on="0"/>
        <pt x="124" y="1416" on="0"/>
        <pt x="127" y="1434" on="1"/>
        <pt x="216" y="1435" on="0"/>
        <pt x="538" y="1437" on="0"/>
        <pt x="626" y="1438" on="1"/>
        <pt x="873" y="1441" on="0"/>
        <pt x="1198" y="1454" on="1"/>
        <pt x="1214" y="1440" on="0"/>
        <pt x="1214" y="1210" on="0"/>
        <pt x="1152" y="1092" on="0"/>
        <pt x="982" y="1092" on="0"/>
        <pt x="948" y="1145" on="1"/>
        <pt x="948" y="1266" on="1"/>
        <pt x="656" y="1280" on="0"/>
        <pt x="483" y="1280" on="1"/>
        <pt x="508" y="1170" on="0"/>
        <pt x="508" y="1010" on="1"/>
        <pt x="508" y="998" on="0"/>
        <pt x="508" y="987" on="1"/>
        <pt x="508" y="801" on="1"/>
        <pt x="938" y="823" on="1"/>
        <pt x="954" y="804" on="0"/>
        <pt x="954" y="689" on="0"/>
        <pt x="944" y="629" on="1"/>
        <pt x="889" y="621" on="0"/>
        <pt x="686" y="621" on="0"/>
        <pt x="508" y="641" on="1"/>
        <pt x="508" y="446" on="1"/>
        <pt x="508" y="435" on="0"/>
        <pt x="508" y="423" on="1"/>
        <pt x="508" y="262" on="0"/>
        <pt x="483" y="154" on="1"/>
        <pt x="656" y="154" on="0"/>
        <pt x="948" y="168" on="1"/>
        <pt x="948" y="289" on="1"/>
        <pt x="965" y="322" on="0"/>
        <pt x="1026" y="336" on="1"/>
        <pt x="1050" y="342" on="0"/>
        <pt x="1079" y="342" on="1"/>
      </contour>
      <contour>
        <pt x="502" y="1634" on="1"/>
        <pt x="749" y="1897" on="0"/>
        <pt x="884" y="1897" on="1"/>
        <pt x="949" y="1897" on="0"/>
        <pt x="998" y="1823" on="1"/>
        <pt x="1024" y="1784" on="0"/>
        <pt x="1024" y="1727" on="0"/>
        <pt x="1022" y="1714" on="1"/>
        <pt x="988" y="1710" on="0"/>
        <pt x="732" y="1618" on="0"/>
        <pt x="565" y="1546" on="1"/>
        <pt x="516" y="1590" on="0"/>
      </contour>
    </TTGlyph>
    <TTGlyph name="Ecircumflex" xMin="124" yMin="-20" xMax="1214" yMax="1933">
      <contour>
        <pt x="1152" y="342" on="0"/>
        <pt x="1214" y="224" on="0"/>
        <pt x="1214" y="-6" on="0"/>
        <pt x="1198" y="-20" on="1"/>
        <pt x="844" y="-5" on="0"/>
        <pt x="255" y="-1" on="0"/>
        <pt x="172" y="0" on="1"/>
        <pt x="201" y="239" on="0"/>
        <pt x="201" y="528" on="1"/>
        <pt x="201" y="1176" on="1"/>
        <pt x="201" y="1263" on="0"/>
        <pt x="174" y="1288" on="1"/>
        <pt x="162" y="1299" on="0"/>
        <pt x="139" y="1307" on="1"/>
        <pt x="124" y="1327" on="0"/>
        <pt x="124" y="1416" on="0"/>
        <pt x="127" y="1434" on="1"/>
        <pt x="216" y="1435" on="0"/>
        <pt x="538" y="1437" on="0"/>
        <pt x="626" y="1438" on="1"/>
        <pt x="873" y="1441" on="0"/>
        <pt x="1198" y="1454" on="1"/>
        <pt x="1214" y="1440" on="0"/>
        <pt x="1214" y="1210" on="0"/>
        <pt x="1152" y="1092" on="0"/>
        <pt x="982" y="1092" on="0"/>
        <pt x="948" y="1145" on="1"/>
        <pt x="948" y="1266" on="1"/>
        <pt x="656" y="1280" on="0"/>
        <pt x="483" y="1280" on="1"/>
        <pt x="508" y="1170" on="0"/>
        <pt x="508" y="1010" on="1"/>
        <pt x="508" y="998" on="0"/>
        <pt x="508" y="987" on="1"/>
        <pt x="508" y="801" on="1"/>
        <pt x="938" y="823" on="1"/>
        <pt x="954" y="804" on="0"/>
        <pt x="954" y="689" on="0"/>
        <pt x="944" y="629" on="1"/>
        <pt x="889" y="621" on="0"/>
        <pt x="686" y="621" on="0"/>
        <pt x="508" y="641" on="1"/>
        <pt x="508" y="446" on="1"/>
        <pt x="508" y="435" on="0"/>
        <pt x="508" y="423" on="1"/>
        <pt x="508" y="262" on="0"/>
        <pt x="483" y="154" on="1"/>
        <pt x="656" y="154" on="0"/>
        <pt x="948" y="168" on="1"/>
        <pt x="948" y="289" on="1"/>
        <pt x="965" y="322" on="0"/>
        <pt x="1026" y="336" on="1"/>
        <pt x="1050" y="342" on="0"/>
        <pt x="1079" y="342" on="1"/>
      </contour>
      <contour>
        <pt x="353" y="1665" on="1"/>
        <pt x="634" y="1933" on="0"/>
        <pt x="719" y="1933" on="1"/>
        <pt x="764" y="1933" on="0"/>
        <pt x="974" y="1778" on="0"/>
        <pt x="1090" y="1665" on="1"/>
        <pt x="1083" y="1639" on="0"/>
        <pt x="1025" y="1579" on="0"/>
        <pt x="996" y="1565" on="1"/>
        <pt x="711" y="1743" on="1"/>
        <pt x="439" y="1569" on="1"/>
        <pt x="416" y="1579" on="0"/>
        <pt x="360" y="1638" on="0"/>
      </contour>
    </TTGlyph>
    <TTGlyph name="Edieresis" xMin="124" yMin="-20" xMax="1214" yMax="1916">
      <contour>
        <pt x="1152" y="342" on="0"/>
        <pt x="1214" y="224" on="0"/>
        <pt x="1214" y="-6" on="0"/>
        <pt x="1198" y="-20" on="1"/>
        <pt x="844" y="-5" on="0"/>
        <pt x="255" y="-1" on="0"/>
        <pt x="172" y="0" on="1"/>
        <pt x="201" y="239" on="0"/>
        <pt x="201" y="528" on="1"/>
        <pt x="201" y="1176" on="1"/>
        <pt x="201" y="1263" on="0"/>
        <pt x="174" y="1288" on="1"/>
        <pt x="162" y="1299" on="0"/>
        <pt x="139" y="1307" on="1"/>
        <pt x="124" y="1327" on="0"/>
        <pt x="124" y="1416" on="0"/>
        <pt x="127" y="1434" on="1"/>
        <pt x="216" y="1435" on="0"/>
        <pt x="538" y="1437" on="0"/>
        <pt x="626" y="1438" on="1"/>
        <pt x="873" y="1441" on="0"/>
        <pt x="1198" y="1454" on="1"/>
        <pt x="1214" y="1440" on="0"/>
        <pt x="1214" y="1210" on="0"/>
        <pt x="1152" y="1092" on="0"/>
        <pt x="982" y="1092" on="0"/>
        <pt x="948" y="1145" on="1"/>
        <pt x="948" y="1266" on="1"/>
        <pt x="656" y="1280" on="0"/>
        <pt x="483" y="1280" on="1"/>
        <pt x="508" y="1170" on="0"/>
        <pt x="508" y="1010" on="1"/>
        <pt x="508" y="998" on="0"/>
        <pt x="508" y="987" on="1"/>
        <pt x="508" y="801" on="1"/>
        <pt x="938" y="823" on="1"/>
        <pt x="954" y="804" on="0"/>
        <pt x="954" y="689" on="0"/>
        <pt x="944" y="629" on="1"/>
        <pt x="889" y="621" on="0"/>
        <pt x="686" y="621" on="0"/>
        <pt x="508" y="641" on="1"/>
        <pt x="508" y="446" on="1"/>
        <pt x="508" y="435" on="0"/>
        <pt x="508" y="423" on="1"/>
        <pt x="508" y="262" on="0"/>
        <pt x="483" y="154" on="1"/>
        <pt x="656" y="154" on="0"/>
        <pt x="948" y="168" on="1"/>
        <pt x="948" y="289" on="1"/>
        <pt x="965" y="322" on="0"/>
        <pt x="1026" y="336" on="1"/>
        <pt x="1050" y="342" on="0"/>
        <pt x="1079" y="342" on="1"/>
      </contour>
      <contour>
        <pt x="546" y="1896" on="0"/>
        <pt x="624" y="1825" on="0"/>
        <pt x="624" y="1703" on="0"/>
        <pt x="531" y="1604" on="0"/>
        <pt x="405" y="1604" on="0"/>
        <pt x="325" y="1676" on="0"/>
        <pt x="325" y="1806" on="0"/>
        <pt x="379" y="1855" on="1"/>
        <pt x="429" y="1896" on="0"/>
      </contour>
      <contour>
        <pt x="991" y="1916" on="0"/>
        <pt x="1068" y="1846" on="0"/>
        <pt x="1068" y="1723" on="0"/>
        <pt x="974" y="1624" on="0"/>
        <pt x="840" y="1624" on="0"/>
        <pt x="770" y="1701" on="0"/>
        <pt x="770" y="1828" on="0"/>
        <pt x="823" y="1876" on="1"/>
        <pt x="872" y="1916" on="0"/>
      </contour>
    </TTGlyph>
    <TTGlyph name="Egrave" xMin="124" yMin="-20" xMax="1214" yMax="1898">
      <contour>
        <pt x="1152" y="342" on="0"/>
        <pt x="1214" y="224" on="0"/>
        <pt x="1214" y="-6" on="0"/>
        <pt x="1198" y="-20" on="1"/>
        <pt x="844" y="-5" on="0"/>
        <pt x="255" y="-1" on="0"/>
        <pt x="172" y="0" on="1"/>
        <pt x="201" y="239" on="0"/>
        <pt x="201" y="528" on="1"/>
        <pt x="201" y="1176" on="1"/>
        <pt x="201" y="1263" on="0"/>
        <pt x="174" y="1288" on="1"/>
        <pt x="162" y="1299" on="0"/>
        <pt x="139" y="1307" on="1"/>
        <pt x="124" y="1327" on="0"/>
        <pt x="124" y="1416" on="0"/>
        <pt x="127" y="1434" on="1"/>
        <pt x="216" y="1435" on="0"/>
        <pt x="538" y="1437" on="0"/>
        <pt x="626" y="1438" on="1"/>
        <pt x="873" y="1441" on="0"/>
        <pt x="1198" y="1454" on="1"/>
        <pt x="1214" y="1440" on="0"/>
        <pt x="1214" y="1210" on="0"/>
        <pt x="1152" y="1092" on="0"/>
        <pt x="982" y="1092" on="0"/>
        <pt x="948" y="1145" on="1"/>
        <pt x="948" y="1266" on="1"/>
        <pt x="656" y="1280" on="0"/>
        <pt x="483" y="1280" on="1"/>
        <pt x="508" y="1170" on="0"/>
        <pt x="508" y="1010" on="1"/>
        <pt x="508" y="998" on="0"/>
        <pt x="508" y="987" on="1"/>
        <pt x="508" y="801" on="1"/>
        <pt x="938" y="823" on="1"/>
        <pt x="954" y="804" on="0"/>
        <pt x="954" y="689" on="0"/>
        <pt x="944" y="629" on="1"/>
        <pt x="889" y="621" on="0"/>
        <pt x="686" y="621" on="0"/>
        <pt x="508" y="641" on="1"/>
        <pt x="508" y="446" on="1"/>
        <pt x="508" y="435" on="0"/>
        <pt x="508" y="423" on="1"/>
        <pt x="508" y="262" on="0"/>
        <pt x="483" y="154" on="1"/>
        <pt x="656" y="154" on="0"/>
        <pt x="948" y="168" on="1"/>
        <pt x="948" y="289" on="1"/>
        <pt x="965" y="322" on="0"/>
        <pt x="1026" y="336" on="1"/>
        <pt x="1050" y="342" on="0"/>
        <pt x="1079" y="342" on="1"/>
      </contour>
      <contour>
        <pt x="863" y="1636" on="1"/>
        <pt x="847" y="1589" on="0"/>
        <pt x="799" y="1548" on="1"/>
        <pt x="464" y="1692" on="0"/>
        <pt x="373" y="1708" on="1"/>
        <pt x="342" y="1714" on="1"/>
        <pt x="340" y="1727" on="0"/>
        <pt x="340" y="1784" on="0"/>
        <pt x="392" y="1862" on="0"/>
        <pt x="457" y="1898" on="0"/>
        <pt x="482" y="1898" on="1"/>
        <pt x="619" y="1898" on="0"/>
      </contour>
    </TTGlyph>
    <TTGlyph name="Eth" xMin="123" yMin="-25" xMax="1522" yMax="1480">
      <contour>
        <pt x="319" y="0" on="1"/>
        <pt x="254" y="28" on="0"/>
        <pt x="245" y="132" on="1"/>
        <pt x="238" y="214" on="0"/>
        <pt x="238" y="381" on="1"/>
        <pt x="238" y="657" on="1"/>
        <pt x="135" y="659" on="1"/>
        <pt x="123" y="676" on="0"/>
        <pt x="123" y="800" on="0"/>
        <pt x="133" y="811" on="1"/>
        <pt x="178" y="818" on="0"/>
        <pt x="242" y="821" on="1"/>
        <pt x="243" y="856" on="0"/>
        <pt x="243" y="1028" on="0"/>
        <pt x="240" y="1159" on="1"/>
        <pt x="233" y="1245" on="0"/>
        <pt x="193" y="1270" on="1"/>
        <pt x="177" y="1279" on="0"/>
        <pt x="145" y="1290" on="1"/>
        <pt x="133" y="1299" on="0"/>
        <pt x="133" y="1391" on="0"/>
        <pt x="137" y="1403" on="1"/>
        <pt x="482" y="1480" on="0"/>
        <pt x="664" y="1480" on="1"/>
        <pt x="1090" y="1480" on="0"/>
        <pt x="1324" y="1275" on="1"/>
        <pt x="1522" y="1101" on="0"/>
        <pt x="1522" y="791" on="1"/>
        <pt x="1522" y="541" on="0"/>
        <pt x="1284" y="168" on="0"/>
        <pt x="867" y="-25" on="0"/>
        <pt x="596" y="-25" on="1"/>
        <pt x="448" y="-25" on="0"/>
      </contour>
      <contour>
        <pt x="545" y="1012" on="1"/>
        <pt x="543" y="823" on="1"/>
        <pt x="719" y="819" on="0"/>
        <pt x="784" y="813" on="1"/>
        <pt x="794" y="781" on="0"/>
        <pt x="794" y="705" on="0"/>
        <pt x="766" y="653" on="1"/>
        <pt x="537" y="655" on="1"/>
        <pt x="534" y="454" on="0"/>
        <pt x="534" y="375" on="0"/>
        <pt x="535" y="336" on="1"/>
        <pt x="535" y="145" on="0"/>
        <pt x="569" y="117" on="1"/>
        <pt x="605" y="111" on="0"/>
        <pt x="689" y="111" on="0"/>
        <pt x="807" y="117" on="0"/>
        <pt x="936" y="166" on="0"/>
        <pt x="1054" y="266" on="0"/>
        <pt x="1097" y="337" on="1"/>
        <pt x="1192" y="494" on="0"/>
        <pt x="1192" y="741" on="1"/>
        <pt x="1192" y="1089" on="0"/>
        <pt x="962" y="1248" on="1"/>
        <pt x="836" y="1335" on="0"/>
        <pt x="570" y="1335" on="0"/>
        <pt x="520" y="1321" on="1"/>
        <pt x="545" y="1217" on="0"/>
        <pt x="545" y="1071" on="1"/>
      </contour>
    </TTGlyph>
    <TTGlyph name="Euro" xMin="123" yMin="-41" xMax="1442" yMax="1477">
      <contour>
        <pt x="671" y="350" on="0"/>
        <pt x="897" y="139" on="0"/>
        <pt x="1215" y="139" on="0"/>
        <pt x="1362" y="266" on="1"/>
        <pt x="1422" y="237" on="0"/>
        <pt x="1442" y="166" on="1"/>
        <pt x="1244" y="-41" on="0"/>
        <pt x="934" y="-41" on="1"/>
        <pt x="672" y="-41" on="0"/>
        <pt x="323" y="267" on="0"/>
        <pt x="287" y="561" on="1"/>
        <pt x="133" y="565" on="1"/>
        <pt x="123" y="578" on="0"/>
        <pt x="123" y="659" on="0"/>
        <pt x="135" y="676" on="1"/>
        <pt x="181" y="681" on="0"/>
        <pt x="279" y="688" on="1"/>
        <pt x="279" y="707" on="1"/>
        <pt x="279" y="764" on="0"/>
        <pt x="285" y="823" on="1"/>
        <pt x="133" y="827" on="1"/>
        <pt x="123" y="840" on="0"/>
        <pt x="123" y="921" on="0"/>
        <pt x="135" y="938" on="1"/>
        <pt x="226" y="947" on="0"/>
        <pt x="311" y="952" on="1"/>
        <pt x="380" y="1192" on="0"/>
        <pt x="758" y="1477" on="0"/>
        <pt x="1028" y="1477" on="1"/>
        <pt x="1234" y="1477" on="0"/>
        <pt x="1409" y="1395" on="1"/>
        <pt x="1433" y="1378" on="0"/>
        <pt x="1433" y="1318" on="0"/>
        <pt x="1427" y="1296" on="1"/>
        <pt x="1329" y="1047" on="1"/>
        <pt x="1299" y="1042" on="0"/>
        <pt x="1193" y="1042" on="0"/>
        <pt x="1116" y="1113" on="0"/>
        <pt x="1116" y="1231" on="0"/>
        <pt x="1141" y="1284" on="1"/>
        <pt x="1090" y="1321" on="0"/>
        <pt x="997" y="1321" on="1"/>
        <pt x="983" y="1321" on="1"/>
        <pt x="847" y="1321" on="0"/>
        <pt x="663" y="1151" on="0"/>
        <pt x="631" y="967" on="1"/>
        <pt x="726" y="971" on="0"/>
        <pt x="1005" y="971" on="0"/>
        <pt x="1059" y="965" on="1"/>
        <pt x="1065" y="942" on="0"/>
        <pt x="1065" y="838" on="0"/>
        <pt x="1053" y="807" on="1"/>
        <pt x="614" y="815" on="1"/>
        <pt x="614" y="707" on="1"/>
        <pt x="700" y="709" on="0"/>
        <pt x="920" y="709" on="0"/>
        <pt x="977" y="702" on="1"/>
        <pt x="983" y="680" on="0"/>
        <pt x="983" y="576" on="0"/>
        <pt x="971" y="545" on="1"/>
        <pt x="633" y="551" on="1"/>
      </contour>
    </TTGlyph>
    <TTGlyph name="F" xMin="124" yMin="-26" xMax="1163" yMax="1454">
      <contour>
        <pt x="510" y="1280" on="1"/>
        <pt x="535" y="1163" on="0"/>
        <pt x="535" y="1008" on="1"/>
        <pt x="535" y="997" on="0"/>
        <pt x="535" y="987" on="1"/>
        <pt x="532" y="801" on="1"/>
        <pt x="924" y="823" on="1"/>
        <pt x="940" y="804" on="0"/>
        <pt x="940" y="686" on="0"/>
        <pt x="930" y="629" on="1"/>
        <pt x="875" y="621" on="0"/>
        <pt x="699" y="621" on="0"/>
        <pt x="532" y="641" on="1"/>
        <pt x="530" y="356" on="1"/>
        <pt x="530" y="159" on="0"/>
        <pt x="557" y="0" on="1"/>
        <pt x="472" y="-26" on="0"/>
        <pt x="229" y="-26" on="0"/>
        <pt x="197" y="0" on="1"/>
        <pt x="227" y="267" on="0"/>
        <pt x="227" y="629" on="1"/>
        <pt x="227" y="1176" on="1"/>
        <pt x="227" y="1244" on="0"/>
        <pt x="190" y="1291" on="0"/>
        <pt x="139" y="1307" on="1"/>
        <pt x="124" y="1327" on="0"/>
        <pt x="124" y="1416" on="0"/>
        <pt x="127" y="1434" on="1"/>
        <pt x="212" y="1435" on="0"/>
        <pt x="524" y="1437" on="0"/>
        <pt x="602" y="1438" on="1"/>
        <pt x="819" y="1441" on="0"/>
        <pt x="1147" y="1454" on="1"/>
        <pt x="1163" y="1440" on="0"/>
        <pt x="1163" y="1210" on="0"/>
        <pt x="1101" y="1092" on="0"/>
        <pt x="931" y="1092" on="0"/>
        <pt x="897" y="1145" on="1"/>
        <pt x="897" y="1266" on="1"/>
        <pt x="605" y="1280" on="0"/>
      </contour>
    </TTGlyph>
    <TTGlyph name="G" xMin="123" yMin="-35" xMax="1419" yMax="1477">
      <contour>
        <pt x="1119" y="290" on="1"/>
        <pt x="1118" y="356" on="1"/>
        <pt x="1118" y="487" on="0"/>
        <pt x="1062" y="504" on="1"/>
        <pt x="1053" y="506" on="0"/>
        <pt x="1023" y="513" on="0"/>
        <pt x="1016" y="516" on="1"/>
        <pt x="998" y="540" on="0"/>
        <pt x="998" y="628" on="0"/>
        <pt x="1001" y="643" on="1"/>
        <pt x="1068" y="650" on="0"/>
        <pt x="1268" y="650" on="0"/>
        <pt x="1384" y="643" on="1"/>
        <pt x="1415" y="610" on="0"/>
        <pt x="1415" y="543" on="1"/>
        <pt x="1419" y="484" on="0"/>
        <pt x="1419" y="302" on="0"/>
        <pt x="1411" y="180" on="1"/>
        <pt x="1372" y="88" on="0"/>
        <pt x="1087" y="-35" on="0"/>
        <pt x="897" y="-35" on="1"/>
        <pt x="672" y="-35" on="0"/>
        <pt x="482" y="66" on="1"/>
        <pt x="378" y="121" on="0"/>
        <pt x="221" y="282" on="0"/>
        <pt x="123" y="534" on="0"/>
        <pt x="123" y="836" on="0"/>
        <pt x="212" y="1090" on="0"/>
        <pt x="372" y="1278" on="0"/>
        <pt x="482" y="1344" on="1"/>
        <pt x="705" y="1477" on="0"/>
        <pt x="1011" y="1477" on="1"/>
        <pt x="1171" y="1477" on="0"/>
        <pt x="1339" y="1438" on="1"/>
        <pt x="1358" y="1416" on="0"/>
        <pt x="1358" y="1349" on="0"/>
        <pt x="1358" y="1339" on="1"/>
        <pt x="1343" y="1102" on="1"/>
        <pt x="1280" y="1065" on="0"/>
        <pt x="1178" y="1065" on="0"/>
        <pt x="1117" y="1095" on="0"/>
        <pt x="1103" y="1123" on="1"/>
        <pt x="1079" y="1171" on="0"/>
        <pt x="1079" y="1267" on="0"/>
        <pt x="1081" y="1305" on="1"/>
        <pt x="1027" y="1325" on="0"/>
        <pt x="838" y="1325" on="0"/>
        <pt x="714" y="1291" on="0"/>
        <pt x="593" y="1207" on="0"/>
        <pt x="548" y="1144" on="1"/>
        <pt x="449" y="1003" on="0"/>
        <pt x="449" y="756" on="1"/>
        <pt x="449" y="406" on="0"/>
        <pt x="678" y="233" on="1"/>
        <pt x="805" y="137" on="0"/>
        <pt x="956" y="137" on="1"/>
        <pt x="1028" y="137" on="0"/>
        <pt x="1090" y="157" on="0"/>
        <pt x="1110" y="184" on="1"/>
        <pt x="1119" y="197" on="0"/>
      </contour>
    </TTGlyph>
    <TTGlyph name="H" xMin="124" yMin="-26" xMax="1409" yMax="1452">
      <contour>
        <pt x="1378" y="1452" on="1"/>
        <pt x="1400" y="1429" on="0"/>
        <pt x="1400" y="1370" on="0"/>
        <pt x="1396" y="1314" on="1"/>
        <pt x="1384" y="1146" on="0"/>
        <pt x="1384" y="1022" on="1"/>
        <pt x="1384" y="401" on="1"/>
        <pt x="1384" y="171" on="0"/>
        <pt x="1409" y="0" on="1"/>
        <pt x="1331" y="-26" on="0"/>
        <pt x="1104" y="-26" on="0"/>
        <pt x="1061" y="0" on="1"/>
        <pt x="1077" y="244" on="0"/>
        <pt x="1077" y="322" on="1"/>
        <pt x="1077" y="649" on="1"/>
        <pt x="524" y="674" on="1"/>
        <pt x="526" y="492" on="0"/>
        <pt x="553" y="0" on="1"/>
        <pt x="475" y="-26" on="0"/>
        <pt x="248" y="-26" on="0"/>
        <pt x="205" y="0" on="1"/>
        <pt x="229" y="211" on="0"/>
        <pt x="229" y="322" on="1"/>
        <pt x="229" y="1124" on="1"/>
        <pt x="229" y="1258" on="0"/>
        <pt x="196" y="1282" on="1"/>
        <pt x="181" y="1293" on="0"/>
        <pt x="142" y="1304" on="0"/>
        <pt x="139" y="1305" on="1"/>
        <pt x="124" y="1325" on="0"/>
        <pt x="124" y="1416" on="0"/>
        <pt x="127" y="1434" on="1"/>
        <pt x="177" y="1444" on="0"/>
        <pt x="400" y="1444" on="0"/>
        <pt x="537" y="1434" on="1"/>
        <pt x="524" y="1079" on="0"/>
        <pt x="524" y="827" on="1"/>
        <pt x="587" y="835" on="0"/>
        <pt x="863" y="835" on="0"/>
        <pt x="1077" y="809" on="1"/>
        <pt x="1077" y="1133" on="1"/>
        <pt x="1077" y="1258" on="0"/>
        <pt x="1066" y="1392" on="1"/>
        <pt x="1063" y="1436" on="1"/>
      </contour>
    </TTGlyph>
    <TTGlyph name="I" xMin="124" yMin="-26" xMax="588" yMax="1444">
      <contour>
        <pt x="264" y="322" on="1"/>
        <pt x="264" y="1124" on="1"/>
        <pt x="264" y="1250" on="0"/>
        <pt x="191" y="1286" on="1"/>
        <pt x="182" y="1291" on="0"/>
        <pt x="143" y="1303" on="0"/>
        <pt x="139" y="1305" on="1"/>
        <pt x="124" y="1325" on="0"/>
        <pt x="124" y="1416" on="0"/>
        <pt x="127" y="1434" on="1"/>
        <pt x="177" y="1444" on="0"/>
        <pt x="435" y="1444" on="0"/>
        <pt x="571" y="1434" on="1"/>
        <pt x="571" y="319" on="1"/>
        <pt x="571" y="223" on="0"/>
        <pt x="584" y="52" on="1"/>
        <pt x="588" y="0" on="1"/>
        <pt x="503" y="-26" on="0"/>
        <pt x="268" y="-26" on="0"/>
        <pt x="236" y="0" on="1"/>
        <pt x="264" y="211" on="0"/>
      </contour>
    </TTGlyph>
    <TTGlyph name="Iacute" xMin="124" yMin="-26" xMax="730" yMax="1897">
      <contour>
        <pt x="264" y="322" on="1"/>
        <pt x="264" y="1124" on="1"/>
        <pt x="264" y="1250" on="0"/>
        <pt x="191" y="1286" on="1"/>
        <pt x="182" y="1291" on="0"/>
        <pt x="143" y="1303" on="0"/>
        <pt x="139" y="1305" on="1"/>
        <pt x="124" y="1325" on="0"/>
        <pt x="124" y="1416" on="0"/>
        <pt x="127" y="1434" on="1"/>
        <pt x="177" y="1444" on="0"/>
        <pt x="435" y="1444" on="0"/>
        <pt x="571" y="1434" on="1"/>
        <pt x="571" y="319" on="1"/>
        <pt x="571" y="223" on="0"/>
        <pt x="584" y="52" on="1"/>
        <pt x="588" y="0" on="1"/>
        <pt x="503" y="-26" on="0"/>
        <pt x="268" y="-26" on="0"/>
        <pt x="236" y="0" on="1"/>
        <pt x="264" y="211" on="0"/>
      </contour>
      <contour>
        <pt x="207" y="1634" on="1"/>
        <pt x="454" y="1897" on="0"/>
        <pt x="589" y="1897" on="1"/>
        <pt x="637" y="1897" on="0"/>
        <pt x="683" y="1848" on="1"/>
        <pt x="729" y="1799" on="0"/>
        <pt x="729" y="1739" on="1"/>
        <pt x="729" y="1727" on="0"/>
        <pt x="727" y="1714" on="1"/>
        <pt x="693" y="1710" on="0"/>
        <pt x="437" y="1618" on="0"/>
        <pt x="270" y="1546" on="1"/>
        <pt x="221" y="1590" on="0"/>
      </contour>
    </TTGlyph>
    <TTGlyph name="Icircumflex" xMin="2" yMin="-26" xMax="739" yMax="1933">
      <contour>
        <pt x="264" y="322" on="1"/>
        <pt x="264" y="1124" on="1"/>
        <pt x="264" y="1250" on="0"/>
        <pt x="191" y="1286" on="1"/>
        <pt x="182" y="1291" on="0"/>
        <pt x="143" y="1303" on="0"/>
        <pt x="139" y="1305" on="1"/>
        <pt x="124" y="1325" on="0"/>
        <pt x="124" y="1416" on="0"/>
        <pt x="127" y="1434" on="1"/>
        <pt x="177" y="1444" on="0"/>
        <pt x="435" y="1444" on="0"/>
        <pt x="571" y="1434" on="1"/>
        <pt x="571" y="319" on="1"/>
        <pt x="571" y="223" on="0"/>
        <pt x="584" y="52" on="1"/>
        <pt x="588" y="0" on="1"/>
        <pt x="503" y="-26" on="0"/>
        <pt x="268" y="-26" on="0"/>
        <pt x="236" y="0" on="1"/>
        <pt x="264" y="211" on="0"/>
      </contour>
      <contour>
        <pt x="2" y="1665" on="1"/>
        <pt x="283" y="1933" on="0"/>
        <pt x="368" y="1933" on="1"/>
        <pt x="413" y="1933" on="0"/>
        <pt x="623" y="1778" on="0"/>
        <pt x="739" y="1665" on="1"/>
        <pt x="732" y="1639" on="0"/>
        <pt x="674" y="1579" on="0"/>
        <pt x="645" y="1565" on="1"/>
        <pt x="360" y="1743" on="1"/>
        <pt x="88" y="1569" on="1"/>
        <pt x="65" y="1579" on="0"/>
        <pt x="9" y="1638" on="0"/>
      </contour>
    </TTGlyph>
    <TTGlyph name="Idieresis" xMin="26" yMin="-26" xMax="769" yMax="1916">
      <contour>
        <pt x="264" y="322" on="1"/>
        <pt x="264" y="1124" on="1"/>
        <pt x="264" y="1250" on="0"/>
        <pt x="191" y="1286" on="1"/>
        <pt x="182" y="1291" on="0"/>
        <pt x="143" y="1303" on="0"/>
        <pt x="139" y="1305" on="1"/>
        <pt x="124" y="1325" on="0"/>
        <pt x="124" y="1416" on="0"/>
        <pt x="127" y="1434" on="1"/>
        <pt x="177" y="1444" on="0"/>
        <pt x="435" y="1444" on="0"/>
        <pt x="571" y="1434" on="1"/>
        <pt x="571" y="319" on="1"/>
        <pt x="571" y="223" on="0"/>
        <pt x="584" y="52" on="1"/>
        <pt x="588" y="0" on="1"/>
        <pt x="503" y="-26" on="0"/>
        <pt x="268" y="-26" on="0"/>
        <pt x="236" y="0" on="1"/>
        <pt x="264" y="211" on="0"/>
      </contour>
      <contour>
        <pt x="247" y="1896" on="0"/>
        <pt x="325" y="1825" on="0"/>
        <pt x="325" y="1703" on="0"/>
        <pt x="232" y="1604" on="0"/>
        <pt x="106" y="1604" on="0"/>
        <pt x="26" y="1676" on="0"/>
        <pt x="26" y="1806" on="0"/>
        <pt x="80" y="1855" on="1"/>
        <pt x="130" y="1896" on="0"/>
      </contour>
      <contour>
        <pt x="692" y="1916" on="0"/>
        <pt x="769" y="1846" on="0"/>
        <pt x="769" y="1723" on="0"/>
        <pt x="675" y="1624" on="0"/>
        <pt x="541" y="1624" on="0"/>
        <pt x="471" y="1701" on="0"/>
        <pt x="471" y="1828" on="0"/>
        <pt x="524" y="1876" on="1"/>
        <pt x="573" y="1916" on="0"/>
      </contour>
    </TTGlyph>
    <TTGlyph name="Igrave" xMin="5" yMin="-26" xMax="588" yMax="1898">
      <contour>
        <pt x="264" y="322" on="1"/>
        <pt x="264" y="1124" on="1"/>
        <pt x="264" y="1250" on="0"/>
        <pt x="191" y="1286" on="1"/>
        <pt x="182" y="1291" on="0"/>
        <pt x="143" y="1303" on="0"/>
        <pt x="139" y="1305" on="1"/>
        <pt x="124" y="1325" on="0"/>
        <pt x="124" y="1416" on="0"/>
        <pt x="127" y="1434" on="1"/>
        <pt x="177" y="1444" on="0"/>
        <pt x="435" y="1444" on="0"/>
        <pt x="571" y="1434" on="1"/>
        <pt x="571" y="319" on="1"/>
        <pt x="571" y="223" on="0"/>
        <pt x="584" y="52" on="1"/>
        <pt x="588" y="0" on="1"/>
        <pt x="503" y="-26" on="0"/>
        <pt x="268" y="-26" on="0"/>
        <pt x="236" y="0" on="1"/>
        <pt x="264" y="211" on="0"/>
      </contour>
      <contour>
        <pt x="529" y="1636" on="1"/>
        <pt x="513" y="1589" on="0"/>
        <pt x="465" y="1548" on="1"/>
        <pt x="130" y="1692" on="0"/>
        <pt x="39" y="1708" on="1"/>
        <pt x="8" y="1714" on="1"/>
        <pt x="6" y="1727" on="0"/>
        <pt x="6" y="1784" on="0"/>
        <pt x="58" y="1862" on="0"/>
        <pt x="123" y="1898" on="0"/>
        <pt x="148" y="1898" on="1"/>
        <pt x="285" y="1898" on="0"/>
      </contour>
    </TTGlyph>
    <TTGlyph name="J" xMin="-41" yMin="-432" xMax="694" yMax="1444">
      <contour>
        <pt x="399" y="109" on="1"/>
        <pt x="399" y="936" on="0"/>
        <pt x="393" y="1163" on="0"/>
        <pt x="379" y="1222" on="0"/>
        <pt x="362" y="1256" on="0"/>
        <pt x="329" y="1282" on="0"/>
        <pt x="311" y="1291" on="0"/>
        <pt x="272" y="1303" on="0"/>
        <pt x="268" y="1305" on="1"/>
        <pt x="253" y="1325" on="0"/>
        <pt x="253" y="1416" on="0"/>
        <pt x="256" y="1434" on="1"/>
        <pt x="306" y="1444" on="0"/>
        <pt x="558" y="1444" on="0"/>
        <pt x="694" y="1434" on="1"/>
        <pt x="684" y="946" on="1"/>
        <pt x="691" y="512" on="0"/>
        <pt x="691" y="42" on="0"/>
        <pt x="686" y="-8" on="1"/>
        <pt x="686" y="-272" on="0"/>
        <pt x="529" y="-376" on="1"/>
        <pt x="444" y="-432" on="0"/>
        <pt x="330" y="-432" on="1"/>
        <pt x="196" y="-432" on="0"/>
        <pt x="82" y="-377" on="1"/>
        <pt x="27" y="-350" on="0"/>
        <pt x="-41" y="-257" on="0"/>
        <pt x="-41" y="-137" on="0"/>
        <pt x="57" y="-35" on="0"/>
        <pt x="133" y="-35" on="1"/>
        <pt x="208" y="-35" on="0"/>
        <pt x="242" y="-74" on="1"/>
        <pt x="256" y="-89" on="0"/>
        <pt x="255" y="-107" on="0"/>
        <pt x="255" y="-202" on="0"/>
        <pt x="312" y="-295" on="0"/>
        <pt x="358" y="-295" on="1"/>
        <pt x="451" y="-295" on="0"/>
        <pt x="451" y="-180" on="1"/>
        <pt x="451" y="-136" on="0"/>
        <pt x="399" y="72" on="0"/>
      </contour>
    </TTGlyph>
    <TTGlyph name="K" xMin="124" yMin="-47" xMax="1464" yMax="1460">
      <contour>
        <pt x="1270" y="196" on="0"/>
        <pt x="1327" y="152" on="0"/>
        <pt x="1385" y="152" on="0"/>
        <pt x="1423" y="178" on="1"/>
        <pt x="1464" y="111" on="1"/>
        <pt x="1396" y="10" on="0"/>
        <pt x="1292" y="-30" on="1"/>
        <pt x="1248" y="-47" on="0"/>
        <pt x="1147" y="-47" on="0"/>
        <pt x="1033" y="38" on="0"/>
        <pt x="933" y="184" on="0"/>
        <pt x="843" y="350" on="0"/>
        <pt x="804" y="446" on="1"/>
        <pt x="730" y="625" on="0"/>
        <pt x="690" y="754" on="1"/>
        <pt x="624" y="665" on="0"/>
        <pt x="571" y="612" on="1"/>
        <pt x="571" y="319" on="1"/>
        <pt x="588" y="0" on="1"/>
        <pt x="503" y="-26" on="0"/>
        <pt x="284" y="-26" on="0"/>
        <pt x="252" y="0" on="1"/>
        <pt x="264" y="322" on="1"/>
        <pt x="264" y="1124" on="1"/>
        <pt x="264" y="1250" on="0"/>
        <pt x="191" y="1286" on="1"/>
        <pt x="182" y="1291" on="0"/>
        <pt x="143" y="1303" on="0"/>
        <pt x="139" y="1305" on="1"/>
        <pt x="124" y="1325" on="0"/>
        <pt x="124" y="1416" on="0"/>
        <pt x="127" y="1434" on="1"/>
        <pt x="177" y="1444" on="0"/>
        <pt x="435" y="1444" on="0"/>
        <pt x="571" y="1434" on="1"/>
        <pt x="571" y="811" on="1"/>
        <pt x="583" y="829" on="0"/>
        <pt x="645" y="930" on="0"/>
        <pt x="684" y="990" on="0"/>
        <pt x="755" y="1097" on="0"/>
        <pt x="807" y="1166" on="0"/>
        <pt x="884" y="1262" on="0"/>
        <pt x="948" y="1324" on="0"/>
        <pt x="1031" y="1393" on="0"/>
        <pt x="1068" y="1414" on="1"/>
        <pt x="1152" y="1460" on="0"/>
        <pt x="1332" y="1460" on="0"/>
        <pt x="1462" y="1353" on="0"/>
        <pt x="1462" y="1166" on="0"/>
        <pt x="1334" y="1052" on="0"/>
        <pt x="1248" y="1052" on="1"/>
        <pt x="1230" y="1052" on="0"/>
        <pt x="1212" y="1055" on="1"/>
        <pt x="1212" y="1159" on="0"/>
        <pt x="1168" y="1199" on="1"/>
        <pt x="1148" y="1217" on="0"/>
        <pt x="1094" y="1217" on="0"/>
        <pt x="1028" y="1176" on="0"/>
        <pt x="970" y="1122" on="0"/>
        <pt x="928" y="1070" on="1"/>
        <pt x="861" y="990" on="0"/>
        <pt x="784" y="885" on="1"/>
        <pt x="822" y="829" on="0"/>
        <pt x="937" y="655" on="0"/>
        <pt x="1017" y="535" on="0"/>
        <pt x="1119" y="386" on="0"/>
        <pt x="1194" y="286" on="0"/>
      </contour>
    </TTGlyph>
    <TTGlyph name="L" xMin="124" yMin="0" xMax="1296" yMax="1459">
      <contour>
        <pt x="266" y="287" on="1"/>
        <pt x="264" y="1124" on="1"/>
        <pt x="264" y="1250" on="0"/>
        <pt x="191" y="1286" on="1"/>
        <pt x="182" y="1291" on="0"/>
        <pt x="143" y="1303" on="0"/>
        <pt x="139" y="1305" on="1"/>
        <pt x="124" y="1325" on="0"/>
        <pt x="124" y="1416" on="0"/>
        <pt x="127" y="1434" on="1"/>
        <pt x="249" y="1459" on="0"/>
        <pt x="496" y="1459" on="0"/>
        <pt x="573" y="1454" on="0"/>
        <pt x="576" y="1452" on="1"/>
        <pt x="590" y="1446" on="0"/>
        <pt x="588" y="1411" on="1"/>
        <pt x="573" y="1022" on="1"/>
        <pt x="573" y="309" on="1"/>
        <pt x="573" y="242" on="0"/>
        <pt x="583" y="176" on="0"/>
        <pt x="600" y="158" on="1"/>
        <pt x="667" y="163" on="0"/>
        <pt x="937" y="181" on="0"/>
        <pt x="1014" y="188" on="1"/>
        <pt x="1028" y="313" on="1"/>
        <pt x="1041" y="332" on="0"/>
        <pt x="1111" y="365" on="0"/>
        <pt x="1216" y="365" on="0"/>
        <pt x="1245" y="335" on="1"/>
        <pt x="1296" y="282" on="0"/>
        <pt x="1296" y="100" on="1"/>
        <pt x="1296" y="23" on="0"/>
        <pt x="1278" y="2" on="1"/>
        <pt x="1192" y="0" on="0"/>
        <pt x="512" y="0" on="1"/>
        <pt x="317" y="0" on="1"/>
        <pt x="297" y="7" on="0"/>
        <pt x="266" y="92" on="0"/>
        <pt x="266" y="168" on="1"/>
      </contour>
    </TTGlyph>
    <TTGlyph name="M" xMin="51" yMin="-35" xMax="2068" yMax="1444">
      <contour>
        <pt x="1831" y="1202" on="1"/>
        <pt x="1905" y="709" on="0"/>
        <pt x="1977" y="388" on="0"/>
        <pt x="2047" y="98" on="0"/>
        <pt x="2068" y="2" on="1"/>
        <pt x="1997" y="-21" on="0"/>
        <pt x="1798" y="-21" on="0"/>
        <pt x="1757" y="2" on="1"/>
        <pt x="1679" y="150" on="0"/>
        <pt x="1571" y="932" on="1"/>
        <pt x="1553" y="1062" on="0"/>
        <pt x="1550" y="1081" on="1"/>
        <pt x="1365" y="643" on="0"/>
        <pt x="1300" y="298" on="1"/>
        <pt x="1276" y="172" on="0"/>
        <pt x="1276" y="70" on="0"/>
        <pt x="1276" y="61" on="1"/>
        <pt x="1214" y="17" on="0"/>
        <pt x="1113" y="17" on="1"/>
        <pt x="1002" y="17" on="0"/>
        <pt x="977" y="61" on="1"/>
        <pt x="962" y="104" on="0"/>
        <pt x="905" y="282" on="1"/>
        <pt x="752" y="762" on="0"/>
        <pt x="633" y="1092" on="1"/>
        <pt x="629" y="1034" on="1"/>
        <pt x="614" y="713" on="0"/>
        <pt x="566" y="449" on="0"/>
        <pt x="526" y="280" on="0"/>
        <pt x="471" y="149" on="0"/>
        <pt x="436" y="94" on="1"/>
        <pt x="356" y="-34" on="0"/>
        <pt x="237" y="-34" on="1"/>
        <pt x="138" y="-34" on="0"/>
        <pt x="79" y="38" on="1"/>
        <pt x="51" y="72" on="0"/>
        <pt x="51" y="111" on="1"/>
        <pt x="136" y="168" on="0"/>
        <pt x="278" y="366" on="0"/>
        <pt x="368" y="584" on="0"/>
        <pt x="401" y="708" on="1"/>
        <pt x="470" y="966" on="0"/>
        <pt x="470" y="1155" on="1"/>
        <pt x="470" y="1217" on="0"/>
        <pt x="452" y="1254" on="0"/>
        <pt x="444" y="1273" on="0"/>
        <pt x="420" y="1289" on="0"/>
        <pt x="413" y="1293" on="0"/>
        <pt x="383" y="1304" on="0"/>
        <pt x="381" y="1305" on="1"/>
        <pt x="365" y="1325" on="0"/>
        <pt x="365" y="1418" on="0"/>
        <pt x="369" y="1434" on="1"/>
        <pt x="419" y="1444" on="0"/>
        <pt x="588" y="1444" on="0"/>
        <pt x="725" y="1434" on="1"/>
        <pt x="773" y="1424" on="0"/>
        <pt x="1032" y="759" on="1"/>
        <pt x="1130" y="507" on="0"/>
        <pt x="1155" y="459" on="1"/>
        <pt x="1209" y="643" on="0"/>
        <pt x="1501" y="1432" on="1"/>
        <pt x="1601" y="1439" on="0"/>
        <pt x="1664" y="1439" on="0"/>
        <pt x="1741" y="1414" on="0"/>
        <pt x="1817" y="1292" on="0"/>
      </contour>
    </TTGlyph>
    <TTGlyph name="N" xMin="124" yMin="-17" xMax="1378" yMax="1446">
      <contour>
        <pt x="1378" y="4" on="1"/>
        <pt x="1316" y="-10" on="0"/>
        <pt x="1261" y="-10" on="0"/>
        <pt x="1153" y="2" on="1"/>
        <pt x="946" y="146" on="0"/>
        <pt x="412" y="1147" on="1"/>
        <pt x="458" y="414" on="0"/>
        <pt x="488" y="109" on="1"/>
        <pt x="498" y="8" on="1"/>
        <pt x="409" y="-17" on="0"/>
        <pt x="238" y="-17" on="0"/>
        <pt x="207" y="8" on="1"/>
        <pt x="233" y="166" on="0"/>
        <pt x="233" y="825" on="1"/>
        <pt x="233" y="1167" on="0"/>
        <pt x="220" y="1249" on="0"/>
        <pt x="208" y="1266" on="1"/>
        <pt x="190" y="1290" on="0"/>
        <pt x="142" y="1304" on="0"/>
        <pt x="139" y="1305" on="1"/>
        <pt x="124" y="1325" on="0"/>
        <pt x="124" y="1416" on="0"/>
        <pt x="127" y="1434" on="1"/>
        <pt x="177" y="1444" on="0"/>
        <pt x="341" y="1444" on="0"/>
        <pt x="477" y="1434" on="1"/>
        <pt x="533" y="1409" on="0"/>
        <pt x="711" y="1168" on="0"/>
        <pt x="870" y="896" on="0"/>
        <pt x="1109" y="483" on="0"/>
        <pt x="1182" y="367" on="1"/>
        <pt x="1130" y="1423" on="1"/>
        <pt x="1206" y="1446" on="0"/>
        <pt x="1343" y="1446" on="0"/>
        <pt x="1378" y="1417" on="1"/>
        <pt x="1370" y="1317" on="0"/>
        <pt x="1370" y="533" on="0"/>
      </contour>
    </TTGlyph>
    <TTGlyph name="Ntilde" xMin="124" yMin="-17" xMax="1378" yMax="1886">
      <contour>
        <pt x="1378" y="4" on="1"/>
        <pt x="1316" y="-10" on="0"/>
        <pt x="1261" y="-10" on="0"/>
        <pt x="1153" y="2" on="1"/>
        <pt x="946" y="146" on="0"/>
        <pt x="412" y="1147" on="1"/>
        <pt x="458" y="414" on="0"/>
        <pt x="488" y="109" on="1"/>
        <pt x="498" y="8" on="1"/>
        <pt x="409" y="-17" on="0"/>
        <pt x="238" y="-17" on="0"/>
        <pt x="207" y="8" on="1"/>
        <pt x="233" y="166" on="0"/>
        <pt x="233" y="825" on="1"/>
        <pt x="233" y="1167" on="0"/>
        <pt x="220" y="1249" on="0"/>
        <pt x="208" y="1266" on="1"/>
        <pt x="190" y="1290" on="0"/>
        <pt x="142" y="1304" on="0"/>
        <pt x="139" y="1305" on="1"/>
        <pt x="124" y="1325" on="0"/>
        <pt x="124" y="1416" on="0"/>
        <pt x="127" y="1434" on="1"/>
        <pt x="177" y="1444" on="0"/>
        <pt x="341" y="1444" on="0"/>
        <pt x="477" y="1434" on="1"/>
        <pt x="533" y="1409" on="0"/>
        <pt x="711" y="1168" on="0"/>
        <pt x="870" y="896" on="0"/>
        <pt x="1109" y="483" on="0"/>
        <pt x="1182" y="367" on="1"/>
        <pt x="1130" y="1423" on="1"/>
        <pt x="1206" y="1446" on="0"/>
        <pt x="1343" y="1446" on="0"/>
        <pt x="1378" y="1417" on="1"/>
        <pt x="1370" y="1317" on="0"/>
        <pt x="1370" y="533" on="0"/>
      </contour>
      <contour>
        <pt x="1143" y="1886" on="1"/>
        <pt x="1180" y="1872" on="0"/>
        <pt x="1200" y="1825" on="1"/>
        <pt x="1167" y="1721" on="0"/>
        <pt x="1046" y="1618" on="0"/>
        <pt x="887" y="1618" on="0"/>
        <pt x="657" y="1706" on="0"/>
        <pt x="560" y="1706" on="0"/>
        <pt x="461" y="1656" on="0"/>
        <pt x="438" y="1618" on="1"/>
        <pt x="413" y="1629" on="0"/>
        <pt x="381" y="1679" on="1"/>
        <pt x="413" y="1780" on="0"/>
        <pt x="537" y="1874" on="0"/>
        <pt x="714" y="1876" on="0"/>
        <pt x="905" y="1806" on="0"/>
        <pt x="975" y="1806" on="1"/>
        <pt x="1081" y="1806" on="0"/>
      </contour>
    </TTGlyph>
    <TTGlyph name="O" xMin="123" yMin="-34" xMax="1614" yMax="1475">
      <contour>
        <pt x="1614" y="465" on="0"/>
        <pt x="1358" y="72" on="0"/>
        <pt x="1118" y="0" on="1"/>
        <pt x="1003" y="-34" on="0"/>
        <pt x="734" y="-34" on="0"/>
        <pt x="464" y="63" on="0"/>
        <pt x="251" y="240" on="0"/>
        <pt x="123" y="516" on="0"/>
        <pt x="123" y="682" on="1"/>
        <pt x="123" y="992" on="0"/>
        <pt x="409" y="1378" on="0"/>
        <pt x="678" y="1450" on="1"/>
        <pt x="771" y="1475" on="0"/>
        <pt x="982" y="1475" on="0"/>
        <pt x="1196" y="1417" on="0"/>
        <pt x="1385" y="1297" on="0"/>
        <pt x="1458" y="1214" on="1"/>
        <pt x="1614" y="1036" on="0"/>
      </contour>
      <contour>
        <pt x="642" y="198" on="0"/>
        <pt x="806" y="112" on="0"/>
        <pt x="988" y="112" on="0"/>
        <pt x="1129" y="178" on="0"/>
        <pt x="1219" y="287" on="0"/>
        <pt x="1249" y="362" on="1"/>
        <pt x="1303" y="497" on="0"/>
        <pt x="1303" y="682" on="1"/>
        <pt x="1303" y="963" on="0"/>
        <pt x="1037" y="1327" on="0"/>
        <pt x="844" y="1327" on="1"/>
        <pt x="768" y="1327" on="0"/>
        <pt x="625" y="1271" on="0"/>
        <pt x="522" y="1148" on="0"/>
        <pt x="496" y="1068" on="1"/>
        <pt x="446" y="920" on="0"/>
        <pt x="446" y="602" on="0"/>
        <pt x="518" y="358" on="0"/>
      </contour>
    </TTGlyph>
    <TTGlyph name="OE" xMin="123" yMin="-48" xMax="2161" yMax="1469">
      <contour>
        <pt x="643" y="191" on="0"/>
        <pt x="808" y="104" on="0"/>
        <pt x="890" y="104" on="1"/>
        <pt x="1048" y="104" on="0"/>
        <pt x="1143" y="190" on="1"/>
        <pt x="1169" y="444" on="0"/>
        <pt x="1169" y="995" on="0"/>
        <pt x="1116" y="1202" on="1"/>
        <pt x="1000" y="1321" on="0"/>
        <pt x="845" y="1321" on="1"/>
        <pt x="674" y="1321" on="0"/>
        <pt x="574" y="1204" on="1"/>
        <pt x="446" y="1054" on="0"/>
        <pt x="446" y="745" on="1"/>
        <pt x="446" y="445" on="0"/>
        <pt x="580" y="272" on="1"/>
      </contour>
      <contour>
        <pt x="1430" y="143" on="1"/>
        <pt x="1494" y="143" on="0"/>
        <pt x="1894" y="168" on="1"/>
        <pt x="1894" y="289" on="1"/>
        <pt x="1911" y="322" on="0"/>
        <pt x="1972" y="336" on="1"/>
        <pt x="1996" y="342" on="0"/>
        <pt x="2025" y="342" on="1"/>
        <pt x="2099" y="342" on="0"/>
        <pt x="2161" y="224" on="0"/>
        <pt x="2161" y="78" on="1"/>
        <pt x="2161" y="24" on="0"/>
        <pt x="2155" y="-11" on="0"/>
        <pt x="2144" y="-20" on="1"/>
        <pt x="1800" y="-5" on="0"/>
        <pt x="1223" y="-1" on="0"/>
        <pt x="1143" y="0" on="1"/>
        <pt x="1118" y="-8" on="1"/>
        <pt x="999" y="-48" on="0"/>
        <pt x="728" y="-48" on="0"/>
        <pt x="460" y="53" on="0"/>
        <pt x="250" y="235" on="0"/>
        <pt x="123" y="513" on="0"/>
        <pt x="123" y="678" on="1"/>
        <pt x="123" y="988" on="0"/>
        <pt x="409" y="1372" on="0"/>
        <pt x="678" y="1444" on="1"/>
        <pt x="776" y="1469" on="0"/>
        <pt x="872" y="1469" on="1"/>
        <pt x="1034" y="1469" on="0"/>
        <pt x="1184" y="1407" on="1"/>
        <pt x="1634" y="1419" on="0"/>
        <pt x="2144" y="1454" on="1"/>
        <pt x="2155" y="1445" on="0"/>
        <pt x="2161" y="1409" on="0"/>
        <pt x="2161" y="1356" on="1"/>
        <pt x="2161" y="1210" on="0"/>
        <pt x="2099" y="1092" on="0"/>
        <pt x="1928" y="1092" on="0"/>
        <pt x="1894" y="1145" on="1"/>
        <pt x="1894" y="1266" on="1"/>
        <pt x="1602" y="1280" on="0"/>
        <pt x="1430" y="1280" on="1"/>
        <pt x="1454" y="1170" on="0"/>
        <pt x="1462" y="801" on="1"/>
        <pt x="1892" y="823" on="1"/>
        <pt x="1909" y="803" on="0"/>
        <pt x="1909" y="680" on="0"/>
        <pt x="1898" y="629" on="1"/>
        <pt x="1843" y="621" on="0"/>
        <pt x="1642" y="621" on="0"/>
        <pt x="1462" y="641" on="1"/>
        <pt x="1454" y="253" on="0"/>
      </contour>
    </TTGlyph>
    <TTGlyph name="Oacute" xMin="123" yMin="-34" xMax="1614" yMax="1897">
      <contour>
        <pt x="1614" y="465" on="0"/>
        <pt x="1358" y="72" on="0"/>
        <pt x="1118" y="0" on="1"/>
        <pt x="1003" y="-34" on="0"/>
        <pt x="734" y="-34" on="0"/>
        <pt x="464" y="63" on="0"/>
        <pt x="251" y="240" on="0"/>
        <pt x="123" y="516" on="0"/>
        <pt x="123" y="682" on="1"/>
        <pt x="123" y="992" on="0"/>
        <pt x="409" y="1378" on="0"/>
        <pt x="678" y="1450" on="1"/>
        <pt x="771" y="1475" on="0"/>
        <pt x="982" y="1475" on="0"/>
        <pt x="1196" y="1417" on="0"/>
        <pt x="1385" y="1297" on="0"/>
        <pt x="1458" y="1214" on="1"/>
        <pt x="1614" y="1036" on="0"/>
      </contour>
      <contour>
        <pt x="642" y="198" on="0"/>
        <pt x="806" y="112" on="0"/>
        <pt x="988" y="112" on="0"/>
        <pt x="1129" y="178" on="0"/>
        <pt x="1219" y="287" on="0"/>
        <pt x="1249" y="362" on="1"/>
        <pt x="1303" y="497" on="0"/>
        <pt x="1303" y="682" on="1"/>
        <pt x="1303" y="963" on="0"/>
        <pt x="1037" y="1327" on="0"/>
        <pt x="844" y="1327" on="1"/>
        <pt x="768" y="1327" on="0"/>
        <pt x="625" y="1271" on="0"/>
        <pt x="522" y="1148" on="0"/>
        <pt x="496" y="1068" on="1"/>
        <pt x="446" y="920" on="0"/>
        <pt x="446" y="602" on="0"/>
        <pt x="518" y="358" on="0"/>
      </contour>
      <contour>
        <pt x="680" y="1634" on="1"/>
        <pt x="927" y="1897" on="0"/>
        <pt x="1062" y="1897" on="1"/>
        <pt x="1127" y="1897" on="0"/>
        <pt x="1176" y="1823" on="1"/>
        <pt x="1202" y="1784" on="0"/>
        <pt x="1202" y="1727" on="0"/>
        <pt x="1200" y="1714" on="1"/>
        <pt x="1166" y="1710" on="0"/>
        <pt x="910" y="1618" on="0"/>
        <pt x="743" y="1546" on="1"/>
        <pt x="694" y="1590" on="0"/>
      </contour>
    </TTGlyph>
    <TTGlyph name="Ocircumflex" xMin="123" yMin="-34" xMax="1614" yMax="1933">
      <contour>
        <pt x="1614" y="465" on="0"/>
        <pt x="1358" y="72" on="0"/>
        <pt x="1118" y="0" on="1"/>
        <pt x="1003" y="-34" on="0"/>
        <pt x="734" y="-34" on="0"/>
        <pt x="464" y="63" on="0"/>
        <pt x="251" y="240" on="0"/>
        <pt x="123" y="516" on="0"/>
        <pt x="123" y="682" on="1"/>
        <pt x="123" y="992" on="0"/>
        <pt x="409" y="1378" on="0"/>
        <pt x="678" y="1450" on="1"/>
        <pt x="771" y="1475" on="0"/>
        <pt x="982" y="1475" on="0"/>
        <pt x="1196" y="1417" on="0"/>
        <pt x="1385" y="1297" on="0"/>
        <pt x="1458" y="1214" on="1"/>
        <pt x="1614" y="1036" on="0"/>
      </contour>
      <contour>
        <pt x="642" y="198" on="0"/>
        <pt x="806" y="112" on="0"/>
        <pt x="988" y="112" on="0"/>
        <pt x="1129" y="178" on="0"/>
        <pt x="1219" y="287" on="0"/>
        <pt x="1249" y="362" on="1"/>
        <pt x="1303" y="497" on="0"/>
        <pt x="1303" y="682" on="1"/>
        <pt x="1303" y="963" on="0"/>
        <pt x="1037" y="1327" on="0"/>
        <pt x="844" y="1327" on="1"/>
        <pt x="768" y="1327" on="0"/>
        <pt x="625" y="1271" on="0"/>
        <pt x="522" y="1148" on="0"/>
        <pt x="496" y="1068" on="1"/>
        <pt x="446" y="920" on="0"/>
        <pt x="446" y="602" on="0"/>
        <pt x="518" y="358" on="0"/>
      </contour>
      <contour>
        <pt x="496" y="1665" on="1"/>
        <pt x="777" y="1933" on="0"/>
        <pt x="862" y="1933" on="1"/>
        <pt x="907" y="1933" on="0"/>
        <pt x="1117" y="1778" on="0"/>
        <pt x="1233" y="1665" on="1"/>
        <pt x="1226" y="1639" on="0"/>
        <pt x="1168" y="1579" on="0"/>
        <pt x="1139" y="1565" on="1"/>
        <pt x="854" y="1743" on="1"/>
        <pt x="582" y="1569" on="1"/>
        <pt x="559" y="1579" on="0"/>
        <pt x="503" y="1638" on="0"/>
      </contour>
    </TTGlyph>
    <TTGlyph name="Odieresis" xMin="123" yMin="-34" xMax="1614" yMax="1916">
      <contour>
        <pt x="1614" y="465" on="0"/>
        <pt x="1358" y="72" on="0"/>
        <pt x="1118" y="0" on="1"/>
        <pt x="1003" y="-34" on="0"/>
        <pt x="734" y="-34" on="0"/>
        <pt x="464" y="63" on="0"/>
        <pt x="251" y="240" on="0"/>
        <pt x="123" y="516" on="0"/>
        <pt x="123" y="682" on="1"/>
        <pt x="123" y="992" on="0"/>
        <pt x="409" y="1378" on="0"/>
        <pt x="678" y="1450" on="1"/>
        <pt x="771" y="1475" on="0"/>
        <pt x="982" y="1475" on="0"/>
        <pt x="1196" y="1417" on="0"/>
        <pt x="1385" y="1297" on="0"/>
        <pt x="1458" y="1214" on="1"/>
        <pt x="1614" y="1036" on="0"/>
      </contour>
      <contour>
        <pt x="642" y="198" on="0"/>
        <pt x="806" y="112" on="0"/>
        <pt x="988" y="112" on="0"/>
        <pt x="1129" y="178" on="0"/>
        <pt x="1219" y="287" on="0"/>
        <pt x="1249" y="362" on="1"/>
        <pt x="1303" y="497" on="0"/>
        <pt x="1303" y="682" on="1"/>
        <pt x="1303" y="963" on="0"/>
        <pt x="1037" y="1327" on="0"/>
        <pt x="844" y="1327" on="1"/>
        <pt x="768" y="1327" on="0"/>
        <pt x="625" y="1271" on="0"/>
        <pt x="522" y="1148" on="0"/>
        <pt x="496" y="1068" on="1"/>
        <pt x="446" y="920" on="0"/>
        <pt x="446" y="602" on="0"/>
        <pt x="518" y="358" on="0"/>
      </contour>
      <contour>
        <pt x="747" y="1896" on="0"/>
        <pt x="825" y="1825" on="0"/>
        <pt x="825" y="1703" on="0"/>
        <pt x="732" y="1604" on="0"/>
        <pt x="606" y="1604" on="0"/>
        <pt x="526" y="1676" on="0"/>
        <pt x="526" y="1806" on="0"/>
        <pt x="580" y="1855" on="1"/>
        <pt x="630" y="1896" on="0"/>
      </contour>
      <contour>
        <pt x="1192" y="1916" on="0"/>
        <pt x="1269" y="1846" on="0"/>
        <pt x="1269" y="1723" on="0"/>
        <pt x="1175" y="1624" on="0"/>
        <pt x="1041" y="1624" on="0"/>
        <pt x="971" y="1701" on="0"/>
        <pt x="971" y="1828" on="0"/>
        <pt x="1024" y="1876" on="1"/>
        <pt x="1073" y="1916" on="0"/>
      </contour>
    </TTGlyph>
    <TTGlyph name="Ograve" xMin="123" yMin="-34" xMax="1614" yMax="1898">
      <contour>
        <pt x="1614" y="465" on="0"/>
        <pt x="1358" y="72" on="0"/>
        <pt x="1118" y="0" on="1"/>
        <pt x="1003" y="-34" on="0"/>
        <pt x="734" y="-34" on="0"/>
        <pt x="464" y="63" on="0"/>
        <pt x="251" y="240" on="0"/>
        <pt x="123" y="516" on="0"/>
        <pt x="123" y="682" on="1"/>
        <pt x="123" y="992" on="0"/>
        <pt x="409" y="1378" on="0"/>
        <pt x="678" y="1450" on="1"/>
        <pt x="771" y="1475" on="0"/>
        <pt x="982" y="1475" on="0"/>
        <pt x="1196" y="1417" on="0"/>
        <pt x="1385" y="1297" on="0"/>
        <pt x="1458" y="1214" on="1"/>
        <pt x="1614" y="1036" on="0"/>
      </contour>
      <contour>
        <pt x="642" y="198" on="0"/>
        <pt x="806" y="112" on="0"/>
        <pt x="988" y="112" on="0"/>
        <pt x="1129" y="178" on="0"/>
        <pt x="1219" y="287" on="0"/>
        <pt x="1249" y="362" on="1"/>
        <pt x="1303" y="497" on="0"/>
        <pt x="1303" y="682" on="1"/>
        <pt x="1303" y="963" on="0"/>
        <pt x="1037" y="1327" on="0"/>
        <pt x="844" y="1327" on="1"/>
        <pt x="768" y="1327" on="0"/>
        <pt x="625" y="1271" on="0"/>
        <pt x="522" y="1148" on="0"/>
        <pt x="496" y="1068" on="1"/>
        <pt x="446" y="920" on="0"/>
        <pt x="446" y="602" on="0"/>
        <pt x="518" y="358" on="0"/>
      </contour>
      <contour>
        <pt x="1022" y="1636" on="1"/>
        <pt x="1006" y="1589" on="0"/>
        <pt x="958" y="1548" on="1"/>
        <pt x="623" y="1692" on="0"/>
        <pt x="532" y="1708" on="1"/>
        <pt x="501" y="1714" on="1"/>
        <pt x="499" y="1727" on="0"/>
        <pt x="499" y="1769" on="0"/>
        <pt x="511" y="1797" on="1"/>
        <pt x="535" y="1853" on="0"/>
        <pt x="598" y="1888" on="1"/>
        <pt x="616" y="1898" on="0"/>
        <pt x="641" y="1898" on="1"/>
        <pt x="778" y="1898" on="0"/>
      </contour>
    </TTGlyph>
    <TTGlyph name="Oslash" xMin="123" yMin="-79" xMax="1614" yMax="1510">
      <contour>
        <pt x="1614" y="768" on="1"/>
        <pt x="1614" y="465" on="0"/>
        <pt x="1358" y="72" on="0"/>
        <pt x="1118" y="0" on="1"/>
        <pt x="1003" y="-34" on="0"/>
        <pt x="728" y="-34" on="0"/>
        <pt x="586" y="18" on="1"/>
        <pt x="538" y="-76" on="1"/>
        <pt x="529" y="-79" on="0"/>
        <pt x="475" y="-79" on="0"/>
        <pt x="395" y="-65" on="0"/>
        <pt x="388" y="-57" on="1"/>
        <pt x="397" y="-33" on="0"/>
        <pt x="452" y="83" on="1"/>
        <pt x="300" y="176" on="0"/>
        <pt x="123" y="482" on="0"/>
        <pt x="123" y="682" on="1"/>
        <pt x="123" y="992" on="0"/>
        <pt x="409" y="1378" on="0"/>
        <pt x="678" y="1450" on="1"/>
        <pt x="769" y="1475" on="0"/>
        <pt x="1022" y="1475" on="0"/>
        <pt x="1164" y="1420" on="1"/>
        <pt x="1204" y="1493" on="0"/>
        <pt x="1215" y="1509" on="1"/>
        <pt x="1224" y="1510" on="0"/>
        <pt x="1248" y="1510" on="1"/>
        <pt x="1325" y="1510" on="0"/>
        <pt x="1371" y="1485" on="1"/>
        <pt x="1302" y="1350" on="1"/>
        <pt x="1445" y="1257" on="0"/>
        <pt x="1614" y="961" on="0"/>
      </contour>
      <contour>
        <pt x="684" y="179" on="1"/>
        <pt x="781" y="112" on="0"/>
        <pt x="988" y="112" on="0"/>
        <pt x="1129" y="178" on="0"/>
        <pt x="1219" y="287" on="0"/>
        <pt x="1249" y="362" on="1"/>
        <pt x="1303" y="497" on="0"/>
        <pt x="1303" y="682" on="1"/>
        <pt x="1303" y="954" on="0"/>
        <pt x="1176" y="1136" on="1"/>
      </contour>
      <contour>
        <pt x="446" y="750" on="1"/>
        <pt x="446" y="469" on="0"/>
        <pt x="569" y="294" on="1"/>
        <pt x="848" y="853" on="0"/>
        <pt x="1060" y="1255" on="1"/>
        <pt x="958" y="1327" on="0"/>
        <pt x="842" y="1327" on="1"/>
        <pt x="768" y="1327" on="0"/>
        <pt x="625" y="1271" on="0"/>
        <pt x="522" y="1148" on="0"/>
        <pt x="496" y="1068" on="1"/>
        <pt x="446" y="920" on="0"/>
      </contour>
    </TTGlyph>
    <TTGlyph name="Otilde" xMin="123" yMin="-34" xMax="1614" yMax="1886">
      <contour>
        <pt x="1614" y="465" on="0"/>
        <pt x="1358" y="72" on="0"/>
        <pt x="1118" y="0" on="1"/>
        <pt x="1003" y="-34" on="0"/>
        <pt x="734" y="-34" on="0"/>
        <pt x="464" y="63" on="0"/>
        <pt x="251" y="240" on="0"/>
        <pt x="123" y="516" on="0"/>
        <pt x="123" y="682" on="1"/>
        <pt x="123" y="992" on="0"/>
        <pt x="409" y="1378" on="0"/>
        <pt x="678" y="1450" on="1"/>
        <pt x="771" y="1475" on="0"/>
        <pt x="982" y="1475" on="0"/>
        <pt x="1196" y="1417" on="0"/>
        <pt x="1385" y="1297" on="0"/>
        <pt x="1458" y="1214" on="1"/>
        <pt x="1614" y="1036" on="0"/>
      </contour>
      <contour>
        <pt x="642" y="198" on="0"/>
        <pt x="806" y="112" on="0"/>
        <pt x="988" y="112" on="0"/>
        <pt x="1129" y="178" on="0"/>
        <pt x="1219" y="287" on="0"/>
        <pt x="1249" y="362" on="1"/>
        <pt x="1303" y="497" on="0"/>
        <pt x="1303" y="682" on="1"/>
        <pt x="1303" y="963" on="0"/>
        <pt x="1037" y="1327" on="0"/>
        <pt x="844" y="1327" on="1"/>
        <pt x="768" y="1327" on="0"/>
        <pt x="625" y="1271" on="0"/>
        <pt x="522" y="1148" on="0"/>
        <pt x="496" y="1068" on="1"/>
        <pt x="446" y="920" on="0"/>
        <pt x="446" y="602" on="0"/>
        <pt x="518" y="358" on="0"/>
      </contour>
      <contour>
        <pt x="1237" y="1886" on="1"/>
        <pt x="1274" y="1872" on="0"/>
        <pt x="1294" y="1825" on="1"/>
        <pt x="1261" y="1721" on="0"/>
        <pt x="1140" y="1618" on="0"/>
        <pt x="981" y="1618" on="0"/>
        <pt x="751" y="1706" on="0"/>
        <pt x="654" y="1706" on="0"/>
        <pt x="555" y="1656" on="0"/>
        <pt x="532" y="1618" on="1"/>
        <pt x="507" y="1629" on="0"/>
        <pt x="475" y="1679" on="1"/>
        <pt x="507" y="1780" on="0"/>
        <pt x="631" y="1874" on="0"/>
        <pt x="808" y="1876" on="0"/>
        <pt x="999" y="1806" on="0"/>
        <pt x="1069" y="1806" on="1"/>
        <pt x="1175" y="1806" on="0"/>
      </contour>
    </TTGlyph>
    <TTGlyph name="P" xMin="125" yMin="-26" xMax="1300" yMax="1475">
      <contour>
        <pt x="553" y="539" on="1"/>
        <pt x="553" y="319" on="1"/>
        <pt x="553" y="238" on="0"/>
        <pt x="565" y="60" on="1"/>
        <pt x="569" y="0" on="1"/>
        <pt x="484" y="-26" on="0"/>
        <pt x="249" y="-26" on="0"/>
        <pt x="217" y="0" on="1"/>
        <pt x="246" y="211" on="0"/>
        <pt x="246" y="322" on="1"/>
        <pt x="246" y="1124" on="1"/>
        <pt x="246" y="1213" on="0"/>
        <pt x="214" y="1263" on="0"/>
        <pt x="204" y="1278" on="0"/>
        <pt x="179" y="1293" on="0"/>
        <pt x="174" y="1296" on="1"/>
        <pt x="163" y="1301" on="0"/>
        <pt x="139" y="1309" on="1"/>
        <pt x="119" y="1363" on="0"/>
        <pt x="125" y="1432" on="1"/>
        <pt x="406" y="1475" on="0"/>
        <pt x="722" y="1475" on="1"/>
        <pt x="780" y="1475" on="1"/>
        <pt x="993" y="1471" on="0"/>
        <pt x="1142" y="1374" on="1"/>
        <pt x="1215" y="1326" on="0"/>
        <pt x="1300" y="1168" on="0"/>
        <pt x="1300" y="975" on="0"/>
        <pt x="1256" y="823" on="0"/>
        <pt x="1149" y="688" on="0"/>
        <pt x="1066" y="642" on="1"/>
        <pt x="886" y="543" on="0"/>
      </contour>
      <contour>
        <pt x="1004" y="1014" on="1"/>
        <pt x="1004" y="1321" on="0"/>
        <pt x="690" y="1321" on="1"/>
        <pt x="603" y="1321" on="0"/>
        <pt x="528" y="1311" on="1"/>
        <pt x="553" y="1201" on="0"/>
        <pt x="553" y="1012" on="1"/>
        <pt x="553" y="694" on="1"/>
        <pt x="880" y="705" on="0"/>
        <pt x="960" y="824" on="1"/>
        <pt x="1004" y="890" on="0"/>
      </contour>
    </TTGlyph>
    <TTGlyph name="Q" xMin="123" yMin="-383" xMax="1653" yMax="1475">
      <contour>
        <pt x="1311" y="-174" on="1"/>
        <pt x="1483" y="-174" on="0"/>
        <pt x="1571" y="-51" on="1"/>
        <pt x="1596" y="-65" on="0"/>
        <pt x="1612" y="-77" on="1"/>
        <pt x="1653" y="-109" on="0"/>
        <pt x="1653" y="-168" on="1"/>
        <pt x="1653" y="-262" on="0"/>
        <pt x="1503" y="-383" on="0"/>
        <pt x="1306" y="-383" on="0"/>
        <pt x="1147" y="-347" on="0"/>
        <pt x="1096" y="-326" on="1"/>
        <pt x="960" y="-268" on="0"/>
        <pt x="745" y="-268" on="1"/>
        <pt x="721" y="-221" on="0"/>
        <pt x="721" y="-119" on="0"/>
        <pt x="731" y="-100" on="1"/>
        <pt x="792" y="-89" on="0"/>
        <pt x="885" y="-89" on="0"/>
        <pt x="960" y="-102" on="0"/>
        <pt x="1016" y="-121" on="0"/>
        <pt x="1087" y="-143" on="0"/>
        <pt x="1121" y="-152" on="1"/>
        <pt x="1200" y="-174" on="0"/>
      </contour>
      <contour>
        <pt x="1614" y="465" on="0"/>
        <pt x="1358" y="72" on="0"/>
        <pt x="1118" y="0" on="1"/>
        <pt x="1003" y="-34" on="0"/>
        <pt x="734" y="-34" on="0"/>
        <pt x="464" y="63" on="0"/>
        <pt x="251" y="240" on="0"/>
        <pt x="123" y="516" on="0"/>
        <pt x="123" y="682" on="1"/>
        <pt x="123" y="992" on="0"/>
        <pt x="409" y="1378" on="0"/>
        <pt x="678" y="1450" on="1"/>
        <pt x="771" y="1475" on="0"/>
        <pt x="982" y="1475" on="0"/>
        <pt x="1196" y="1417" on="0"/>
        <pt x="1385" y="1297" on="0"/>
        <pt x="1458" y="1214" on="1"/>
        <pt x="1614" y="1036" on="0"/>
      </contour>
      <contour>
        <pt x="642" y="198" on="0"/>
        <pt x="806" y="112" on="0"/>
        <pt x="988" y="112" on="0"/>
        <pt x="1129" y="178" on="0"/>
        <pt x="1219" y="287" on="0"/>
        <pt x="1249" y="362" on="1"/>
        <pt x="1303" y="497" on="0"/>
        <pt x="1303" y="682" on="1"/>
        <pt x="1303" y="963" on="0"/>
        <pt x="1037" y="1327" on="0"/>
        <pt x="844" y="1327" on="1"/>
        <pt x="768" y="1327" on="0"/>
        <pt x="625" y="1271" on="0"/>
        <pt x="522" y="1148" on="0"/>
        <pt x="496" y="1068" on="1"/>
        <pt x="446" y="920" on="0"/>
        <pt x="446" y="602" on="0"/>
        <pt x="518" y="358" on="0"/>
      </contour>
    </TTGlyph>
    <TTGlyph name="R" xMin="124" yMin="-53" xMax="1462" yMax="1475">
      <contour>
        <pt x="1293" y="154" on="0"/>
        <pt x="1331" y="133" on="0"/>
        <pt x="1353" y="131" on="0"/>
        <pt x="1394" y="131" on="0"/>
        <pt x="1430" y="150" on="1"/>
        <pt x="1462" y="78" on="1"/>
        <pt x="1395" y="-5" on="0"/>
        <pt x="1297" y="-39" on="1"/>
        <pt x="1256" y="-53" on="0"/>
        <pt x="1231" y="-53" on="1"/>
        <pt x="1136" y="-53" on="0"/>
        <pt x="1006" y="43" on="0"/>
        <pt x="912" y="169" on="0"/>
        <pt x="870" y="250" on="1"/>
        <pt x="792" y="398" on="0"/>
        <pt x="750" y="551" on="1"/>
        <pt x="660" y="539" on="0"/>
        <pt x="553" y="539" on="1"/>
        <pt x="553" y="319" on="1"/>
        <pt x="553" y="238" on="0"/>
        <pt x="565" y="60" on="1"/>
        <pt x="569" y="0" on="1"/>
        <pt x="484" y="-26" on="0"/>
        <pt x="249" y="-26" on="0"/>
        <pt x="217" y="0" on="1"/>
        <pt x="246" y="211" on="0"/>
        <pt x="246" y="322" on="1"/>
        <pt x="246" y="1124" on="1"/>
        <pt x="246" y="1213" on="0"/>
        <pt x="214" y="1263" on="0"/>
        <pt x="204" y="1278" on="0"/>
        <pt x="179" y="1293" on="0"/>
        <pt x="174" y="1296" on="1"/>
        <pt x="163" y="1301" on="0"/>
        <pt x="139" y="1309" on="1"/>
        <pt x="124" y="1348" on="0"/>
        <pt x="124" y="1425" on="0"/>
        <pt x="125" y="1434" on="1"/>
        <pt x="393" y="1475" on="0"/>
        <pt x="717" y="1475" on="1"/>
        <pt x="774" y="1475" on="1"/>
        <pt x="987" y="1471" on="0"/>
        <pt x="1138" y="1370" on="1"/>
        <pt x="1212" y="1320" on="0"/>
        <pt x="1300" y="1160" on="0"/>
        <pt x="1300" y="1059" on="1"/>
        <pt x="1300" y="891" on="0"/>
        <pt x="1139" y="654" on="0"/>
        <pt x="954" y="594" on="1"/>
        <pt x="1032" y="489" on="0"/>
        <pt x="1138" y="339" on="0"/>
        <pt x="1204" y="251" on="0"/>
        <pt x="1247" y="201" on="0"/>
      </contour>
      <contour>
        <pt x="1004" y="1057" on="1"/>
        <pt x="1004" y="1321" on="0"/>
        <pt x="690" y="1321" on="1"/>
        <pt x="631" y="1321" on="0"/>
        <pt x="553" y="1313" on="1"/>
        <pt x="553" y="694" on="1"/>
        <pt x="907" y="709" on="0"/>
        <pt x="976" y="882" on="1"/>
        <pt x="1004" y="955" on="0"/>
      </contour>
    </TTGlyph>
    <TTGlyph name="S" xMin="114" yMin="-35" xMax="1167" yMax="1475">
      <contour>
        <pt x="115" y="278" on="1"/>
        <pt x="115" y="395" on="0"/>
        <pt x="249" y="395" on="1"/>
        <pt x="317" y="395" on="0"/>
        <pt x="383" y="360" on="1"/>
        <pt x="383" y="233" on="0"/>
        <pt x="489" y="98" on="0"/>
        <pt x="746" y="98" on="0"/>
        <pt x="866" y="196" on="0"/>
        <pt x="866" y="303" on="1"/>
        <pt x="866" y="417" on="0"/>
        <pt x="778" y="498" on="1"/>
        <pt x="706" y="565" on="0"/>
        <pt x="516" y="663" on="0"/>
        <pt x="400" y="726" on="0"/>
        <pt x="295" y="802" on="0"/>
        <pt x="254" y="846" on="1"/>
        <pt x="166" y="941" on="0"/>
        <pt x="166" y="1206" on="0"/>
        <pt x="235" y="1297" on="1"/>
        <pt x="370" y="1475" on="0"/>
        <pt x="674" y="1475" on="1"/>
        <pt x="908" y="1475" on="0"/>
        <pt x="1031" y="1378" on="1"/>
        <pt x="1143" y="1289" on="0"/>
        <pt x="1143" y="1180" on="1"/>
        <pt x="1143" y="1129" on="0"/>
        <pt x="1074" y="1063" on="0"/>
        <pt x="930" y="1063" on="0"/>
        <pt x="854" y="1100" on="1"/>
        <pt x="854" y="1107" on="0"/>
        <pt x="854" y="1113" on="1"/>
        <pt x="854" y="1224" on="0"/>
        <pt x="755" y="1358" on="0"/>
        <pt x="555" y="1358" on="0"/>
        <pt x="438" y="1246" on="0"/>
        <pt x="438" y="1137" on="1"/>
        <pt x="438" y="1043" on="0"/>
        <pt x="530" y="972" on="1"/>
        <pt x="594" y="922" on="0"/>
        <pt x="802" y="818" on="0"/>
        <pt x="923" y="753" on="0"/>
        <pt x="1033" y="672" on="0"/>
        <pt x="1075" y="624" on="1"/>
        <pt x="1167" y="520" on="0"/>
        <pt x="1167" y="249" on="0"/>
        <pt x="1021" y="62" on="0"/>
        <pt x="777" y="-35" on="0"/>
        <pt x="530" y="-35" on="0"/>
        <pt x="360" y="4" on="0"/>
        <pt x="242" y="69" on="0"/>
        <pt x="199" y="110" on="1"/>
        <pt x="115" y="190" on="0"/>
      </contour>
    </TTGlyph>
    <TTGlyph name="T" xMin="10" yMin="-26" xMax="1405" yMax="1446">
      <contour>
        <pt x="1382" y="1143" on="0"/>
        <pt x="1325" y="1083" on="0"/>
        <pt x="1183" y="1083" on="0"/>
        <pt x="1137" y="1135" on="1"/>
        <pt x="1137" y="1276" on="1"/>
        <pt x="1020" y="1267" on="0"/>
        <pt x="870" y="1264" on="1"/>
        <pt x="870" y="401" on="1"/>
        <pt x="870" y="171" on="0"/>
        <pt x="895" y="0" on="1"/>
        <pt x="817" y="-26" on="0"/>
        <pt x="580" y="-26" on="0"/>
        <pt x="537" y="0" on="1"/>
        <pt x="563" y="322" on="1"/>
        <pt x="563" y="1264" on="1"/>
        <pt x="279" y="1274" on="1"/>
        <pt x="279" y="1135" on="1"/>
        <pt x="266" y="1116" on="0"/>
        <pt x="196" y="1083" on="0"/>
        <pt x="90" y="1083" on="0"/>
        <pt x="33" y="1143" on="0"/>
        <pt x="10" y="1279" on="0"/>
        <pt x="10" y="1426" on="0"/>
        <pt x="29" y="1446" on="1"/>
        <pt x="282" y="1434" on="0"/>
        <pt x="1060" y="1434" on="0"/>
        <pt x="1386" y="1446" on="1"/>
        <pt x="1405" y="1426" on="0"/>
        <pt x="1405" y="1282" on="0"/>
      </contour>
    </TTGlyph>
    <TTGlyph name="Thorn" xMin="124" yMin="-26" xMax="1321" yMax="1468">
      <contour>
        <pt x="266" y="322" on="1"/>
        <pt x="264" y="1149" on="1"/>
        <pt x="264" y="1277" on="0"/>
        <pt x="192" y="1311" on="1"/>
        <pt x="183" y="1315" on="0"/>
        <pt x="142" y="1328" on="0"/>
        <pt x="139" y="1329" on="1"/>
        <pt x="124" y="1349" on="0"/>
        <pt x="124" y="1440" on="0"/>
        <pt x="127" y="1458" on="1"/>
        <pt x="170" y="1468" on="0"/>
        <pt x="417" y="1468" on="0"/>
        <pt x="532" y="1460" on="1"/>
        <pt x="540" y="1460" on="0"/>
        <pt x="557" y="1417" on="0"/>
        <pt x="557" y="1389" on="1"/>
        <pt x="557" y="1274" on="1"/>
        <pt x="631" y="1276" on="0"/>
        <pt x="876" y="1275" on="0"/>
        <pt x="1028" y="1243" on="0"/>
        <pt x="1163" y="1178" on="0"/>
        <pt x="1213" y="1132" on="1"/>
        <pt x="1321" y="1031" on="0"/>
        <pt x="1321" y="868" on="1"/>
        <pt x="1321" y="348" on="0"/>
        <pt x="559" y="340" on="1"/>
        <pt x="575" y="0" on="1"/>
        <pt x="490" y="-26" on="0"/>
        <pt x="270" y="-26" on="0"/>
        <pt x="238" y="0" on="1"/>
        <pt x="266" y="211" on="0"/>
      </contour>
      <contour>
        <pt x="1024" y="815" on="1"/>
        <pt x="1024" y="1122" on="0"/>
        <pt x="702" y="1122" on="1"/>
        <pt x="635" y="1122" on="0"/>
        <pt x="557" y="1114" on="1"/>
        <pt x="559" y="496" on="1"/>
        <pt x="888" y="507" on="0"/>
        <pt x="974" y="626" on="1"/>
        <pt x="1024" y="693" on="0"/>
      </contour>
    </TTGlyph>
    <TTGlyph name="U" xMin="73" yMin="-35" xMax="1367" yMax="1450">
      <contour>
        <pt x="1366" y="1354" on="1"/>
        <pt x="1366" y="1354" on="0"/>
        <pt x="1367" y="1045" on="1"/>
        <pt x="1367" y="750" on="0"/>
        <pt x="1336" y="475" on="0"/>
        <pt x="1295" y="294" on="0"/>
        <pt x="1233" y="164" on="0"/>
        <pt x="1144" y="60" on="0"/>
        <pt x="1084" y="28" on="1"/>
        <pt x="963" y="-35" on="0"/>
        <pt x="649" y="-35" on="0"/>
        <pt x="434" y="56" on="0"/>
        <pt x="271" y="228" on="0"/>
        <pt x="178" y="498" on="0"/>
        <pt x="178" y="667" on="1"/>
        <pt x="178" y="669" on="0"/>
        <pt x="178" y="672" on="1"/>
        <pt x="180" y="1124" on="1"/>
        <pt x="180" y="1254" on="0"/>
        <pt x="144" y="1282" on="1"/>
        <pt x="126" y="1297" on="0"/>
        <pt x="92" y="1305" on="1"/>
        <pt x="73" y="1329" on="0"/>
        <pt x="73" y="1419" on="0"/>
        <pt x="76" y="1434" on="1"/>
        <pt x="126" y="1444" on="0"/>
        <pt x="357" y="1444" on="0"/>
        <pt x="494" y="1434" on="1"/>
        <pt x="494" y="1260" on="1"/>
        <pt x="492" y="750" on="1"/>
        <pt x="491" y="729" on="0"/>
        <pt x="491" y="525" on="0"/>
        <pt x="540" y="301" on="0"/>
        <pt x="588" y="238" on="1"/>
        <pt x="679" y="121" on="0"/>
        <pt x="854" y="121" on="1"/>
        <pt x="963" y="121" on="0"/>
        <pt x="1017" y="188" on="1"/>
        <pt x="1087" y="274" on="0"/>
        <pt x="1087" y="647" on="1"/>
        <pt x="1087" y="719" on="1"/>
        <pt x="1083" y="1212" on="0"/>
        <pt x="1074" y="1380" on="1"/>
        <pt x="1071" y="1436" on="1"/>
        <pt x="1341" y="1450" on="1"/>
        <pt x="1366" y="1423" on="0"/>
      </contour>
    </TTGlyph>
    <TTGlyph name="Uacute" xMin="73" yMin="-35" xMax="1367" yMax="1897">
      <contour>
        <pt x="1366" y="1354" on="1"/>
        <pt x="1366" y="1354" on="0"/>
        <pt x="1367" y="1045" on="1"/>
        <pt x="1367" y="750" on="0"/>
        <pt x="1336" y="475" on="0"/>
        <pt x="1295" y="294" on="0"/>
        <pt x="1233" y="164" on="0"/>
        <pt x="1144" y="60" on="0"/>
        <pt x="1084" y="28" on="1"/>
        <pt x="963" y="-35" on="0"/>
        <pt x="649" y="-35" on="0"/>
        <pt x="434" y="56" on="0"/>
        <pt x="271" y="228" on="0"/>
        <pt x="178" y="498" on="0"/>
        <pt x="178" y="667" on="1"/>
        <pt x="178" y="669" on="0"/>
        <pt x="178" y="672" on="1"/>
        <pt x="180" y="1124" on="1"/>
        <pt x="180" y="1254" on="0"/>
        <pt x="144" y="1282" on="1"/>
        <pt x="126" y="1297" on="0"/>
        <pt x="92" y="1305" on="1"/>
        <pt x="73" y="1329" on="0"/>
        <pt x="73" y="1419" on="0"/>
        <pt x="76" y="1434" on="1"/>
        <pt x="126" y="1444" on="0"/>
        <pt x="357" y="1444" on="0"/>
        <pt x="494" y="1434" on="1"/>
        <pt x="494" y="1260" on="1"/>
        <pt x="492" y="750" on="1"/>
        <pt x="491" y="729" on="0"/>
        <pt x="491" y="525" on="0"/>
        <pt x="540" y="301" on="0"/>
        <pt x="588" y="238" on="1"/>
        <pt x="679" y="121" on="0"/>
        <pt x="854" y="121" on="1"/>
        <pt x="963" y="121" on="0"/>
        <pt x="1017" y="188" on="1"/>
        <pt x="1087" y="274" on="0"/>
        <pt x="1087" y="647" on="1"/>
        <pt x="1087" y="719" on="1"/>
        <pt x="1083" y="1212" on="0"/>
        <pt x="1074" y="1380" on="1"/>
        <pt x="1071" y="1436" on="1"/>
        <pt x="1341" y="1450" on="1"/>
        <pt x="1366" y="1423" on="0"/>
      </contour>
      <contour>
        <pt x="576" y="1634" on="1"/>
        <pt x="823" y="1897" on="0"/>
        <pt x="958" y="1897" on="1"/>
        <pt x="1006" y="1897" on="0"/>
        <pt x="1052" y="1848" on="1"/>
        <pt x="1098" y="1799" on="0"/>
        <pt x="1098" y="1739" on="1"/>
        <pt x="1098" y="1727" on="0"/>
        <pt x="1096" y="1714" on="1"/>
        <pt x="1062" y="1710" on="0"/>
        <pt x="806" y="1618" on="0"/>
        <pt x="639" y="1546" on="1"/>
        <pt x="590" y="1590" on="0"/>
      </contour>
    </TTGlyph>
    <TTGlyph name="Ucircumflex" xMin="73" yMin="-35" xMax="1367" yMax="1933">
      <contour>
        <pt x="1366" y="1354" on="1"/>
        <pt x="1366" y="1354" on="0"/>
        <pt x="1367" y="1045" on="1"/>
        <pt x="1367" y="750" on="0"/>
        <pt x="1336" y="475" on="0"/>
        <pt x="1295" y="294" on="0"/>
        <pt x="1233" y="164" on="0"/>
        <pt x="1144" y="60" on="0"/>
        <pt x="1084" y="28" on="1"/>
        <pt x="963" y="-35" on="0"/>
        <pt x="649" y="-35" on="0"/>
        <pt x="434" y="56" on="0"/>
        <pt x="271" y="228" on="0"/>
        <pt x="178" y="498" on="0"/>
        <pt x="178" y="667" on="1"/>
        <pt x="178" y="669" on="0"/>
        <pt x="178" y="672" on="1"/>
        <pt x="180" y="1124" on="1"/>
        <pt x="180" y="1254" on="0"/>
        <pt x="144" y="1282" on="1"/>
        <pt x="126" y="1297" on="0"/>
        <pt x="92" y="1305" on="1"/>
        <pt x="73" y="1329" on="0"/>
        <pt x="73" y="1419" on="0"/>
        <pt x="76" y="1434" on="1"/>
        <pt x="126" y="1444" on="0"/>
        <pt x="357" y="1444" on="0"/>
        <pt x="494" y="1434" on="1"/>
        <pt x="494" y="1260" on="1"/>
        <pt x="492" y="750" on="1"/>
        <pt x="491" y="729" on="0"/>
        <pt x="491" y="525" on="0"/>
        <pt x="540" y="301" on="0"/>
        <pt x="588" y="238" on="1"/>
        <pt x="679" y="121" on="0"/>
        <pt x="854" y="121" on="1"/>
        <pt x="963" y="121" on="0"/>
        <pt x="1017" y="188" on="1"/>
        <pt x="1087" y="274" on="0"/>
        <pt x="1087" y="647" on="1"/>
        <pt x="1087" y="719" on="1"/>
        <pt x="1083" y="1212" on="0"/>
        <pt x="1074" y="1380" on="1"/>
        <pt x="1071" y="1436" on="1"/>
        <pt x="1341" y="1450" on="1"/>
        <pt x="1366" y="1423" on="0"/>
      </contour>
      <contour>
        <pt x="412" y="1665" on="1"/>
        <pt x="693" y="1933" on="0"/>
        <pt x="778" y="1933" on="1"/>
        <pt x="823" y="1933" on="0"/>
        <pt x="1033" y="1778" on="0"/>
        <pt x="1149" y="1665" on="1"/>
        <pt x="1142" y="1639" on="0"/>
        <pt x="1084" y="1579" on="0"/>
        <pt x="1055" y="1565" on="1"/>
        <pt x="770" y="1743" on="1"/>
        <pt x="498" y="1569" on="1"/>
        <pt x="475" y="1579" on="0"/>
        <pt x="419" y="1638" on="0"/>
      </contour>
    </TTGlyph>
    <TTGlyph name="Udieresis" xMin="73" yMin="-35" xMax="1367" yMax="1916">
      <contour>
        <pt x="1366" y="1354" on="1"/>
        <pt x="1366" y="1354" on="0"/>
        <pt x="1367" y="1045" on="1"/>
        <pt x="1367" y="750" on="0"/>
        <pt x="1336" y="475" on="0"/>
        <pt x="1295" y="294" on="0"/>
        <pt x="1233" y="164" on="0"/>
        <pt x="1144" y="60" on="0"/>
        <pt x="1084" y="28" on="1"/>
        <pt x="963" y="-35" on="0"/>
        <pt x="649" y="-35" on="0"/>
        <pt x="434" y="56" on="0"/>
        <pt x="271" y="228" on="0"/>
        <pt x="178" y="498" on="0"/>
        <pt x="178" y="667" on="1"/>
        <pt x="178" y="669" on="0"/>
        <pt x="178" y="672" on="1"/>
        <pt x="180" y="1124" on="1"/>
        <pt x="180" y="1254" on="0"/>
        <pt x="144" y="1282" on="1"/>
        <pt x="126" y="1297" on="0"/>
        <pt x="92" y="1305" on="1"/>
        <pt x="73" y="1329" on="0"/>
        <pt x="73" y="1419" on="0"/>
        <pt x="76" y="1434" on="1"/>
        <pt x="126" y="1444" on="0"/>
        <pt x="357" y="1444" on="0"/>
        <pt x="494" y="1434" on="1"/>
        <pt x="494" y="1260" on="1"/>
        <pt x="492" y="750" on="1"/>
        <pt x="491" y="729" on="0"/>
        <pt x="491" y="525" on="0"/>
        <pt x="540" y="301" on="0"/>
        <pt x="588" y="238" on="1"/>
        <pt x="679" y="121" on="0"/>
        <pt x="854" y="121" on="1"/>
        <pt x="963" y="121" on="0"/>
        <pt x="1017" y="188" on="1"/>
        <pt x="1087" y="274" on="0"/>
        <pt x="1087" y="647" on="1"/>
        <pt x="1087" y="719" on="1"/>
        <pt x="1083" y="1212" on="0"/>
        <pt x="1074" y="1380" on="1"/>
        <pt x="1071" y="1436" on="1"/>
        <pt x="1341" y="1450" on="1"/>
        <pt x="1366" y="1423" on="0"/>
      </contour>
      <contour>
        <pt x="643" y="1896" on="0"/>
        <pt x="721" y="1825" on="0"/>
        <pt x="721" y="1703" on="0"/>
        <pt x="628" y="1604" on="0"/>
        <pt x="502" y="1604" on="0"/>
        <pt x="422" y="1676" on="0"/>
        <pt x="422" y="1806" on="0"/>
        <pt x="476" y="1855" on="1"/>
        <pt x="526" y="1896" on="0"/>
      </contour>
      <contour>
        <pt x="1088" y="1916" on="0"/>
        <pt x="1165" y="1846" on="0"/>
        <pt x="1165" y="1723" on="0"/>
        <pt x="1071" y="1624" on="0"/>
        <pt x="937" y="1624" on="0"/>
        <pt x="867" y="1701" on="0"/>
        <pt x="867" y="1828" on="0"/>
        <pt x="920" y="1876" on="1"/>
        <pt x="969" y="1916" on="0"/>
      </contour>
    </TTGlyph>
    <TTGlyph name="Ugrave" xMin="73" yMin="-35" xMax="1367" yMax="1898">
      <contour>
        <pt x="1366" y="1354" on="1"/>
        <pt x="1366" y="1354" on="0"/>
        <pt x="1367" y="1045" on="1"/>
        <pt x="1367" y="750" on="0"/>
        <pt x="1336" y="475" on="0"/>
        <pt x="1295" y="294" on="0"/>
        <pt x="1233" y="164" on="0"/>
        <pt x="1144" y="60" on="0"/>
        <pt x="1084" y="28" on="1"/>
        <pt x="963" y="-35" on="0"/>
        <pt x="649" y="-35" on="0"/>
        <pt x="434" y="56" on="0"/>
        <pt x="271" y="228" on="0"/>
        <pt x="178" y="498" on="0"/>
        <pt x="178" y="667" on="1"/>
        <pt x="178" y="669" on="0"/>
        <pt x="178" y="672" on="1"/>
        <pt x="180" y="1124" on="1"/>
        <pt x="180" y="1254" on="0"/>
        <pt x="144" y="1282" on="1"/>
        <pt x="126" y="1297" on="0"/>
        <pt x="92" y="1305" on="1"/>
        <pt x="73" y="1329" on="0"/>
        <pt x="73" y="1419" on="0"/>
        <pt x="76" y="1434" on="1"/>
        <pt x="126" y="1444" on="0"/>
        <pt x="357" y="1444" on="0"/>
        <pt x="494" y="1434" on="1"/>
        <pt x="494" y="1260" on="1"/>
        <pt x="492" y="750" on="1"/>
        <pt x="491" y="729" on="0"/>
        <pt x="491" y="525" on="0"/>
        <pt x="540" y="301" on="0"/>
        <pt x="588" y="238" on="1"/>
        <pt x="679" y="121" on="0"/>
        <pt x="854" y="121" on="1"/>
        <pt x="963" y="121" on="0"/>
        <pt x="1017" y="188" on="1"/>
        <pt x="1087" y="274" on="0"/>
        <pt x="1087" y="647" on="1"/>
        <pt x="1087" y="719" on="1"/>
        <pt x="1083" y="1212" on="0"/>
        <pt x="1074" y="1380" on="1"/>
        <pt x="1071" y="1436" on="1"/>
        <pt x="1341" y="1450" on="1"/>
        <pt x="1366" y="1423" on="0"/>
      </contour>
      <contour>
        <pt x="961" y="1636" on="1"/>
        <pt x="945" y="1589" on="0"/>
        <pt x="897" y="1548" on="1"/>
        <pt x="562" y="1692" on="0"/>
        <pt x="471" y="1708" on="1"/>
        <pt x="440" y="1714" on="1"/>
        <pt x="438" y="1727" on="0"/>
        <pt x="438" y="1784" on="0"/>
        <pt x="490" y="1862" on="0"/>
        <pt x="555" y="1898" on="0"/>
        <pt x="580" y="1898" on="1"/>
        <pt x="717" y="1898" on="0"/>
      </contour>
    </TTGlyph>
    <TTGlyph name="V" xMin="12" yMin="-33" xMax="1366" yMax="1475">
      <contour>
        <pt x="1114" y="1331" on="1"/>
        <pt x="1116" y="1347" on="0"/>
        <pt x="1116" y="1421" on="0"/>
        <pt x="1098" y="1448" on="1"/>
        <pt x="1098" y="1458" on="0"/>
        <pt x="1156" y="1475" on="0"/>
        <pt x="1186" y="1475" on="1"/>
        <pt x="1275" y="1475" on="0"/>
        <pt x="1366" y="1362" on="0"/>
        <pt x="1366" y="1197" on="0"/>
        <pt x="1233" y="854" on="0"/>
        <pt x="964" y="233" on="0"/>
        <pt x="870" y="-29" on="1"/>
        <pt x="833" y="-33" on="0"/>
        <pt x="790" y="-33" on="1"/>
        <pt x="667" y="-33" on="0"/>
        <pt x="635" y="10" on="1"/>
        <pt x="617" y="35" on="0"/>
        <pt x="477" y="436" on="1"/>
        <pt x="213" y="1192" on="0"/>
        <pt x="119" y="1251" on="1"/>
        <pt x="97" y="1263" on="0"/>
        <pt x="57" y="1266" on="0"/>
        <pt x="30" y="1268" on="0"/>
        <pt x="27" y="1268" on="1"/>
        <pt x="7" y="1318" on="0"/>
        <pt x="12" y="1352" on="1"/>
        <pt x="164" y="1437" on="0"/>
        <pt x="350" y="1437" on="1"/>
        <pt x="379" y="1437" on="0"/>
        <pt x="393" y="1436" on="1"/>
        <pt x="426" y="1402" on="0"/>
        <pt x="679" y="687" on="0"/>
        <pt x="817" y="246" on="1"/>
        <pt x="1104" y="1231" on="0"/>
      </contour>
    </TTGlyph>
    <TTGlyph name="W" xMin="11" yMin="-34" xMax="2028" yMax="1475">
      <contour>
        <pt x="872" y="1352" on="1"/>
        <pt x="967" y="1419" on="0"/>
        <pt x="1062" y="1419" on="1"/>
        <pt x="1172" y="1419" on="0"/>
        <pt x="1225" y="1297" on="1"/>
        <pt x="1268" y="1198" on="0"/>
        <pt x="1329" y="870" on="0"/>
        <pt x="1349" y="762" on="1"/>
        <pt x="1399" y="492" on="0"/>
        <pt x="1483" y="258" on="1"/>
        <pt x="1743" y="1231" on="0"/>
        <pt x="1753" y="1331" on="1"/>
        <pt x="1755" y="1347" on="0"/>
        <pt x="1755" y="1421" on="0"/>
        <pt x="1737" y="1448" on="1"/>
        <pt x="1737" y="1458" on="0"/>
        <pt x="1795" y="1475" on="0"/>
        <pt x="1825" y="1475" on="1"/>
        <pt x="1916" y="1475" on="0"/>
        <pt x="2028" y="1359" on="0"/>
        <pt x="2028" y="1231" on="0"/>
        <pt x="1974" y="1025" on="0"/>
        <pt x="1846" y="691" on="0"/>
        <pt x="1762" y="485" on="0"/>
        <pt x="1569" y="32" on="0"/>
        <pt x="1544" y="-27" on="1"/>
        <pt x="1509" y="-34" on="0"/>
        <pt x="1410" y="-34" on="0"/>
        <pt x="1317" y="-7" on="0"/>
        <pt x="1300" y="16" on="1"/>
        <pt x="1277" y="49" on="0"/>
        <pt x="1087" y="758" on="0"/>
        <pt x="1061" y="834" on="1"/>
        <pt x="1035" y="782" on="0"/>
        <pt x="953" y="430" on="0"/>
        <pt x="861" y="52" on="0"/>
        <pt x="823" y="-27" on="1"/>
        <pt x="788" y="-34" on="0"/>
        <pt x="692" y="-34" on="0"/>
        <pt x="604" y="-7" on="0"/>
        <pt x="574" y="36" on="0"/>
        <pt x="454" y="413" on="0"/>
        <pt x="320" y="840" on="0"/>
        <pt x="163" y="1223" on="0"/>
        <pt x="115" y="1253" on="1"/>
        <pt x="97" y="1264" on="0"/>
        <pt x="64" y="1266" on="0"/>
        <pt x="32" y="1268" on="0"/>
        <pt x="27" y="1268" on="1"/>
        <pt x="11" y="1307" on="0"/>
        <pt x="11" y="1348" on="0"/>
        <pt x="12" y="1354" on="1"/>
        <pt x="157" y="1435" on="0"/>
        <pt x="353" y="1435" on="1"/>
        <pt x="387" y="1435" on="0"/>
        <pt x="403" y="1434" on="1"/>
        <pt x="423" y="1413" on="0"/>
        <pt x="521" y="1086" on="0"/>
        <pt x="696" y="462" on="0"/>
        <pt x="760" y="252" on="1"/>
        <pt x="899" y="897" on="0"/>
        <pt x="971" y="1102" on="1"/>
        <pt x="929" y="1219" on="0"/>
      </contour>
    </TTGlyph>
    <TTGlyph name="X" xMin="33" yMin="-33" xMax="1321" yMax="1456">
      <contour>
        <pt x="87" y="1274" on="1"/>
        <pt x="49" y="1276" on="1"/>
        <pt x="46" y="1279" on="0"/>
        <pt x="34" y="1323" on="0"/>
        <pt x="34" y="1351" on="0"/>
        <pt x="35" y="1358" on="1"/>
        <pt x="178" y="1440" on="0"/>
        <pt x="337" y="1440" on="1"/>
        <pt x="380" y="1440" on="0"/>
        <pt x="424" y="1434" on="1"/>
        <pt x="530" y="1206" on="0"/>
        <pt x="729" y="883" on="1"/>
        <pt x="794" y="999" on="0"/>
        <pt x="848" y="1100" on="0"/>
        <pt x="952" y="1333" on="0"/>
        <pt x="985" y="1442" on="1"/>
        <pt x="1041" y="1456" on="0"/>
        <pt x="1081" y="1456" on="1"/>
        <pt x="1227" y="1456" on="0"/>
        <pt x="1227" y="1290" on="1"/>
        <pt x="1227" y="1177" on="0"/>
        <pt x="960" y="892" on="1"/>
        <pt x="924" y="853" on="0"/>
        <pt x="830" y="755" on="0"/>
        <pt x="817" y="741" on="1"/>
        <pt x="951" y="531" on="0"/>
        <pt x="1321" y="-2" on="1"/>
        <pt x="1266" y="-33" on="0"/>
        <pt x="1175" y="-33" on="1"/>
        <pt x="1002" y="-33" on="0"/>
        <pt x="971" y="0" on="1"/>
        <pt x="921" y="54" on="0"/>
        <pt x="598" y="565" on="1"/>
        <pt x="446" y="311" on="0"/>
        <pt x="352" y="74" on="0"/>
        <pt x="326" y="-14" on="1"/>
        <pt x="270" y="-28" on="0"/>
        <pt x="230" y="-28" on="1"/>
        <pt x="84" y="-28" on="0"/>
        <pt x="84" y="137" on="1"/>
        <pt x="84" y="221" on="0"/>
        <pt x="215" y="380" on="1"/>
        <pt x="347" y="539" on="0"/>
        <pt x="510" y="702" on="1"/>
        <pt x="283" y="1067" on="0"/>
        <pt x="232" y="1162" on="0"/>
        <pt x="210" y="1196" on="0"/>
        <pt x="191" y="1222" on="0"/>
        <pt x="168" y="1242" on="0"/>
        <pt x="153" y="1255" on="0"/>
        <pt x="141" y="1260" on="1"/>
        <pt x="107" y="1274" on="0"/>
      </contour>
    </TTGlyph>
    <TTGlyph name="Y" xMin="33" yMin="-26" xMax="1241" yMax="1475">
      <contour>
        <pt x="858" y="401" on="1"/>
        <pt x="858" y="272" on="0"/>
        <pt x="901" y="0" on="1"/>
        <pt x="825" y="-26" on="0"/>
        <pt x="586" y="-26" on="0"/>
        <pt x="543" y="0" on="1"/>
        <pt x="563" y="322" on="1"/>
        <pt x="569" y="608" on="1"/>
        <pt x="365" y="976" on="0"/>
        <pt x="305" y="1062" on="1"/>
        <pt x="196" y="1219" on="0"/>
        <pt x="145" y="1251" on="1"/>
        <pt x="126" y="1264" on="0"/>
        <pt x="47" y="1270" on="1"/>
        <pt x="30" y="1318" on="0"/>
        <pt x="33" y="1352" on="1"/>
        <pt x="115" y="1398" on="0"/>
        <pt x="243" y="1433" on="0"/>
        <pt x="351" y="1433" on="0"/>
        <pt x="367" y="1432" on="1"/>
        <pt x="371" y="1428" on="0"/>
        <pt x="423" y="1379" on="0"/>
        <pt x="463" y="1336" on="0"/>
        <pt x="541" y="1228" on="0"/>
        <pt x="577" y="1164" on="1"/>
        <pt x="666" y="1005" on="0"/>
        <pt x="764" y="750" on="1"/>
        <pt x="980" y="1237" on="0"/>
        <pt x="989" y="1331" on="1"/>
        <pt x="991" y="1347" on="0"/>
        <pt x="991" y="1421" on="0"/>
        <pt x="973" y="1448" on="1"/>
        <pt x="973" y="1458" on="0"/>
        <pt x="1031" y="1475" on="0"/>
        <pt x="1061" y="1475" on="1"/>
        <pt x="1150" y="1475" on="0"/>
        <pt x="1241" y="1362" on="0"/>
        <pt x="1241" y="1238" on="0"/>
        <pt x="1194" y="1122" on="0"/>
        <pt x="1109" y="999" on="0"/>
        <pt x="1062" y="934" on="1"/>
        <pt x="932" y="756" on="0"/>
        <pt x="854" y="586" on="1"/>
      </contour>
    </TTGlyph>
    <TTGlyph name="Yacute" xMin="33" yMin="-26" xMax="1241" yMax="1897">
      <contour>
        <pt x="858" y="401" on="1"/>
        <pt x="858" y="272" on="0"/>
        <pt x="901" y="0" on="1"/>
        <pt x="825" y="-26" on="0"/>
        <pt x="586" y="-26" on="0"/>
        <pt x="543" y="0" on="1"/>
        <pt x="563" y="322" on="1"/>
        <pt x="569" y="608" on="1"/>
        <pt x="365" y="976" on="0"/>
        <pt x="305" y="1062" on="1"/>
        <pt x="196" y="1219" on="0"/>
        <pt x="145" y="1251" on="1"/>
        <pt x="126" y="1264" on="0"/>
        <pt x="47" y="1270" on="1"/>
        <pt x="30" y="1318" on="0"/>
        <pt x="33" y="1352" on="1"/>
        <pt x="115" y="1398" on="0"/>
        <pt x="243" y="1433" on="0"/>
        <pt x="351" y="1433" on="0"/>
        <pt x="367" y="1432" on="1"/>
        <pt x="371" y="1428" on="0"/>
        <pt x="423" y="1379" on="0"/>
        <pt x="463" y="1336" on="0"/>
        <pt x="541" y="1228" on="0"/>
        <pt x="577" y="1164" on="1"/>
        <pt x="666" y="1005" on="0"/>
        <pt x="764" y="750" on="1"/>
        <pt x="980" y="1237" on="0"/>
        <pt x="989" y="1331" on="1"/>
        <pt x="991" y="1347" on="0"/>
        <pt x="991" y="1421" on="0"/>
        <pt x="973" y="1448" on="1"/>
        <pt x="973" y="1458" on="0"/>
        <pt x="1031" y="1475" on="0"/>
        <pt x="1061" y="1475" on="1"/>
        <pt x="1150" y="1475" on="0"/>
        <pt x="1241" y="1362" on="0"/>
        <pt x="1241" y="1238" on="0"/>
        <pt x="1194" y="1122" on="0"/>
        <pt x="1109" y="999" on="0"/>
        <pt x="1062" y="934" on="1"/>
        <pt x="932" y="756" on="0"/>
        <pt x="854" y="586" on="1"/>
      </contour>
      <contour>
        <pt x="553" y="1634" on="1"/>
        <pt x="800" y="1897" on="0"/>
        <pt x="935" y="1897" on="1"/>
        <pt x="983" y="1897" on="0"/>
        <pt x="1029" y="1848" on="1"/>
        <pt x="1075" y="1799" on="0"/>
        <pt x="1075" y="1739" on="1"/>
        <pt x="1075" y="1727" on="0"/>
        <pt x="1073" y="1714" on="1"/>
        <pt x="1039" y="1710" on="0"/>
        <pt x="783" y="1618" on="0"/>
        <pt x="616" y="1546" on="1"/>
        <pt x="567" y="1590" on="0"/>
      </contour>
    </TTGlyph>
    <TTGlyph name="Z" xMin="72" yMin="-19" xMax="1282" yMax="1460">
      <contour>
        <pt x="1008" y="-18" on="1"/>
        <pt x="958" y="-19" on="1"/>
        <pt x="894" y="-19" on="0"/>
        <pt x="358" y="0" on="0"/>
        <pt x="176" y="0" on="1"/>
        <pt x="156" y="33" on="0"/>
        <pt x="156" y="96" on="1"/>
        <pt x="156" y="200" on="0"/>
        <pt x="172" y="236" on="1"/>
        <pt x="671" y="893" on="0"/>
        <pt x="926" y="1307" on="1"/>
        <pt x="442" y="1282" on="1"/>
        <pt x="349" y="1282" on="0"/>
        <pt x="349" y="1142" on="1"/>
        <pt x="349" y="1110" on="0"/>
        <pt x="354" y="1077" on="1"/>
        <pt x="354" y="1074" on="0"/>
        <pt x="341" y="1062" on="1"/>
        <pt x="298" y="1022" on="0"/>
        <pt x="231" y="1022" on="1"/>
        <pt x="173" y="1022" on="0"/>
        <pt x="137" y="1049" on="1"/>
        <pt x="72" y="1098" on="0"/>
        <pt x="72" y="1198" on="1"/>
        <pt x="72" y="1460" on="0"/>
        <pt x="385" y="1460" on="1"/>
        <pt x="440" y="1460" on="0"/>
        <pt x="935" y="1436" on="0"/>
        <pt x="1210" y="1436" on="1"/>
        <pt x="1218" y="1436" on="0"/>
        <pt x="1233" y="1380" on="0"/>
        <pt x="1233" y="1340" on="1"/>
        <pt x="1233" y="1265" on="0"/>
        <pt x="1212" y="1223" on="1"/>
        <pt x="740" y="622" on="0"/>
        <pt x="457" y="139" on="1"/>
        <pt x="752" y="144" on="0"/>
        <pt x="1072" y="244" on="0"/>
        <pt x="1171" y="365" on="1"/>
        <pt x="1237" y="352" on="0"/>
        <pt x="1282" y="307" on="1"/>
        <pt x="1274" y="173" on="0"/>
        <pt x="1135" y="-12" on="0"/>
      </contour>
    </TTGlyph>
    <TTGlyph name="a" xMin="114" yMin="-35" xMax="1253" yMax="1061">
      <contour>
        <pt x="1081" y="565" on="1"/>
        <pt x="1075" y="229" on="1"/>
        <pt x="1075" y="224" on="0"/>
        <pt x="1075" y="219" on="1"/>
        <pt x="1075" y="164" on="0"/>
        <pt x="1127" y="164" on="1"/>
        <pt x="1167" y="164" on="0"/>
        <pt x="1212" y="190" on="1"/>
        <pt x="1226" y="178" on="0"/>
        <pt x="1251" y="135" on="0"/>
        <pt x="1253" y="123" on="1"/>
        <pt x="1129" y="-35" on="0"/>
        <pt x="862" y="-35" on="0"/>
        <pt x="809" y="96" on="1"/>
        <pt x="717" y="32" on="0"/>
        <pt x="526" y="-35" on="0"/>
        <pt x="389" y="-35" on="0"/>
        <pt x="272" y="-5" on="0"/>
        <pt x="222" y="28" on="1"/>
        <pt x="114" y="98" on="0"/>
        <pt x="114" y="259" on="1"/>
        <pt x="114" y="345" on="0"/>
        <pt x="209" y="474" on="0"/>
        <pt x="291" y="511" on="1"/>
        <pt x="448" y="582" on="0"/>
        <pt x="666" y="588" on="1"/>
        <pt x="782" y="592" on="1"/>
        <pt x="789" y="673" on="0"/>
        <pt x="789" y="720" on="1"/>
        <pt x="789" y="826" on="0"/>
        <pt x="708" y="934" on="0"/>
        <pt x="598" y="934" on="1"/>
        <pt x="532" y="934" on="0"/>
        <pt x="459" y="842" on="0"/>
        <pt x="459" y="752" on="1"/>
        <pt x="459" y="740" on="0"/>
        <pt x="425" y="723" on="1"/>
        <pt x="368" y="696" on="0"/>
        <pt x="255" y="696" on="0"/>
        <pt x="188" y="760" on="0"/>
        <pt x="188" y="876" on="0"/>
        <pt x="272" y="978" on="0"/>
        <pt x="342" y="1006" on="1"/>
        <pt x="481" y="1061" on="0"/>
        <pt x="659" y="1061" on="1"/>
        <pt x="845" y="1061" on="0"/>
        <pt x="931" y="1002" on="1"/>
        <pt x="1009" y="950" on="0"/>
        <pt x="1042" y="853" on="1"/>
        <pt x="1081" y="740" on="0"/>
      </contour>
      <contour>
        <pt x="782" y="201" on="1"/>
        <pt x="769" y="274" on="0"/>
        <pt x="769" y="381" on="0"/>
        <pt x="772" y="477" on="1"/>
        <pt x="633" y="471" on="1"/>
        <pt x="526" y="471" on="0"/>
        <pt x="410" y="367" on="0"/>
        <pt x="410" y="211" on="0"/>
        <pt x="478" y="143" on="0"/>
        <pt x="685" y="143" on="0"/>
      </contour>
    </TTGlyph>
    <TTGlyph name="aacute" xMin="114" yMin="-35" xMax="1253" yMax="1618">
      <contour>
        <pt x="1081" y="565" on="1"/>
        <pt x="1075" y="229" on="1"/>
        <pt x="1075" y="224" on="0"/>
        <pt x="1075" y="219" on="1"/>
        <pt x="1075" y="164" on="0"/>
        <pt x="1127" y="164" on="1"/>
        <pt x="1167" y="164" on="0"/>
        <pt x="1212" y="190" on="1"/>
        <pt x="1226" y="178" on="0"/>
        <pt x="1251" y="135" on="0"/>
        <pt x="1253" y="123" on="1"/>
        <pt x="1129" y="-35" on="0"/>
        <pt x="862" y="-35" on="0"/>
        <pt x="809" y="96" on="1"/>
        <pt x="717" y="32" on="0"/>
        <pt x="526" y="-35" on="0"/>
        <pt x="389" y="-35" on="0"/>
        <pt x="272" y="-5" on="0"/>
        <pt x="222" y="28" on="1"/>
        <pt x="114" y="98" on="0"/>
        <pt x="114" y="259" on="1"/>
        <pt x="114" y="345" on="0"/>
        <pt x="209" y="474" on="0"/>
        <pt x="291" y="511" on="1"/>
        <pt x="448" y="582" on="0"/>
        <pt x="666" y="588" on="1"/>
        <pt x="782" y="592" on="1"/>
        <pt x="789" y="673" on="0"/>
        <pt x="789" y="720" on="1"/>
        <pt x="789" y="826" on="0"/>
        <pt x="708" y="934" on="0"/>
        <pt x="598" y="934" on="1"/>
        <pt x="532" y="934" on="0"/>
        <pt x="459" y="842" on="0"/>
        <pt x="459" y="752" on="1"/>
        <pt x="459" y="740" on="0"/>
        <pt x="425" y="723" on="1"/>
        <pt x="368" y="696" on="0"/>
        <pt x="255" y="696" on="0"/>
        <pt x="188" y="760" on="0"/>
        <pt x="188" y="876" on="0"/>
        <pt x="272" y="978" on="0"/>
        <pt x="342" y="1006" on="1"/>
        <pt x="481" y="1061" on="0"/>
        <pt x="659" y="1061" on="1"/>
        <pt x="845" y="1061" on="0"/>
        <pt x="931" y="1002" on="1"/>
        <pt x="1009" y="950" on="0"/>
        <pt x="1042" y="853" on="1"/>
        <pt x="1081" y="740" on="0"/>
      </contour>
      <contour>
        <pt x="782" y="201" on="1"/>
        <pt x="769" y="274" on="0"/>
        <pt x="769" y="381" on="0"/>
        <pt x="772" y="477" on="1"/>
        <pt x="633" y="471" on="1"/>
        <pt x="526" y="471" on="0"/>
        <pt x="410" y="367" on="0"/>
        <pt x="410" y="211" on="0"/>
        <pt x="478" y="143" on="0"/>
        <pt x="685" y="143" on="0"/>
      </contour>
      <contour>
        <pt x="489" y="1219" on="1"/>
        <pt x="542" y="1414" on="0"/>
        <pt x="616" y="1551" on="0"/>
        <pt x="640" y="1576" on="1"/>
        <pt x="677" y="1616" on="0"/>
        <pt x="718" y="1618" on="1"/>
        <pt x="779" y="1616" on="0"/>
        <pt x="870" y="1559" on="0"/>
        <pt x="886" y="1509" on="1"/>
        <pt x="809" y="1450" on="0"/>
        <pt x="587" y="1169" on="1"/>
        <pt x="525" y="1185" on="0"/>
      </contour>
    </TTGlyph>
    <TTGlyph name="acircumflex" xMin="114" yMin="-35" xMax="1253" yMax="1602">
      <component glyphName="a" x="0" y="0" flags="0x1004"/>
      <component glyphName="circumflex" x="268" y="0" flags="0x1004"/>
    </TTGlyph>
    <TTGlyph name="acute" xMin="129" yMin="1169" xMax="526" yMax="1618">
      <contour>
        <pt x="129" y="1219" on="1"/>
        <pt x="182" y="1414" on="0"/>
        <pt x="256" y="1551" on="0"/>
        <pt x="280" y="1576" on="1"/>
        <pt x="317" y="1616" on="0"/>
        <pt x="358" y="1618" on="1"/>
        <pt x="419" y="1616" on="0"/>
        <pt x="510" y="1559" on="0"/>
        <pt x="526" y="1509" on="1"/>
        <pt x="449" y="1450" on="0"/>
        <pt x="227" y="1169" on="1"/>
        <pt x="165" y="1185" on="0"/>
      </contour>
    </TTGlyph>
    <TTGlyph name="acute.case" xMin="115" yMin="1546" xMax="638" yMax="1897">
      <contour>
        <pt x="115" y="1634" on="1"/>
        <pt x="362" y="1897" on="0"/>
        <pt x="497" y="1897" on="1"/>
        <pt x="545" y="1897" on="0"/>
        <pt x="591" y="1848" on="1"/>
        <pt x="637" y="1799" on="0"/>
        <pt x="637" y="1739" on="1"/>
        <pt x="637" y="1727" on="0"/>
        <pt x="635" y="1714" on="1"/>
        <pt x="601" y="1710" on="0"/>
        <pt x="345" y="1618" on="0"/>
        <pt x="178" y="1546" on="1"/>
        <pt x="129" y="1590" on="0"/>
      </contour>
    </TTGlyph>
    <TTGlyph name="adieresis" xMin="114" yMin="-35" xMax="1253" yMax="1537">
      <component glyphName="a" x="0" y="0" flags="0x1004"/>
      <component glyphName="dieresis" x="195" y="0" flags="0x1004"/>
    </TTGlyph>
    <TTGlyph name="ae" xMin="114" yMin="-41" xMax="1802" yMax="1061">
      <contour>
        <pt x="1125" y="303" on="0"/>
        <pt x="1323" y="96" on="0"/>
        <pt x="1581" y="96" on="0"/>
        <pt x="1714" y="209" on="1"/>
        <pt x="1763" y="177" on="0"/>
        <pt x="1776" y="131" on="1"/>
        <pt x="1684" y="24" on="0"/>
        <pt x="1504" y="-22" on="1"/>
        <pt x="1431" y="-41" on="0"/>
        <pt x="1225" y="-41" on="0"/>
        <pt x="995" y="47" on="0"/>
        <pt x="915" y="131" on="1"/>
        <pt x="912" y="129" on="0"/>
        <pt x="868" y="96" on="0"/>
        <pt x="841" y="77" on="0"/>
        <pt x="783" y="41" on="0"/>
        <pt x="735" y="18" on="0"/>
        <pt x="661" y="-12" on="0"/>
        <pt x="626" y="-20" on="1"/>
        <pt x="380" y="-81" on="0"/>
        <pt x="222" y="22" on="1"/>
        <pt x="114" y="92" on="0"/>
        <pt x="114" y="253" on="1"/>
        <pt x="114" y="448" on="0"/>
        <pt x="357" y="531" on="1"/>
        <pt x="487" y="576" on="0"/>
        <pt x="666" y="582" on="1"/>
        <pt x="782" y="586" on="1"/>
        <pt x="789" y="666" on="0"/>
        <pt x="789" y="715" on="1"/>
        <pt x="789" y="823" on="0"/>
        <pt x="708" y="934" on="0"/>
        <pt x="598" y="934" on="1"/>
        <pt x="532" y="934" on="0"/>
        <pt x="459" y="842" on="0"/>
        <pt x="459" y="752" on="1"/>
        <pt x="459" y="740" on="0"/>
        <pt x="425" y="723" on="1"/>
        <pt x="368" y="696" on="0"/>
        <pt x="255" y="696" on="0"/>
        <pt x="188" y="760" on="0"/>
        <pt x="188" y="876" on="0"/>
        <pt x="272" y="978" on="0"/>
        <pt x="342" y="1006" on="1"/>
        <pt x="481" y="1061" on="0"/>
        <pt x="659" y="1061" on="1"/>
        <pt x="883" y="1061" on="0"/>
        <pt x="977" y="903" on="1"/>
        <pt x="1029" y="980" on="0"/>
        <pt x="1231" y="1061" on="0"/>
        <pt x="1425" y="1061" on="0"/>
        <pt x="1591" y="1009" on="0"/>
        <pt x="1724" y="910" on="0"/>
        <pt x="1802" y="751" on="0"/>
        <pt x="1802" y="651" on="1"/>
        <pt x="1802" y="480" on="0"/>
        <pt x="1690" y="471" on="1"/>
        <pt x="1094" y="455" on="1"/>
      </contour>
      <contour>
        <pt x="1305" y="934" on="1"/>
        <pt x="1077" y="934" on="0"/>
        <pt x="1077" y="584" on="1"/>
        <pt x="1392" y="592" on="0"/>
        <pt x="1528" y="612" on="1"/>
        <pt x="1534" y="648" on="0"/>
        <pt x="1534" y="681" on="1"/>
        <pt x="1534" y="800" on="0"/>
        <pt x="1402" y="934" on="0"/>
      </contour>
      <contour>
        <pt x="852" y="217" on="1"/>
        <pt x="789" y="325" on="0"/>
        <pt x="780" y="471" on="1"/>
        <pt x="633" y="465" on="1"/>
        <pt x="525" y="461" on="0"/>
        <pt x="410" y="360" on="0"/>
        <pt x="410" y="205" on="0"/>
        <pt x="478" y="137" on="0"/>
        <pt x="557" y="137" on="1"/>
        <pt x="701" y="137" on="0"/>
      </contour>
    </TTGlyph>
    <TTGlyph name="agrave" xMin="114" yMin="-35" xMax="1253" yMax="1618">
      <component glyphName="a" x="0" y="0" flags="0x1004"/>
      <component glyphName="grave" x="197" y="0" flags="0x1004"/>
    </TTGlyph>
    <TTGlyph name="ampersand" xMin="106" yMin="-41" xMax="1590" yMax="1464">
      <contour>
        <pt x="1178" y="352" on="1"/>
        <pt x="1414" y="201" on="0"/>
        <pt x="1568" y="201" on="1"/>
        <pt x="1570" y="201" on="0"/>
        <pt x="1573" y="201" on="1"/>
        <pt x="1590" y="164" on="0"/>
        <pt x="1590" y="127" on="1"/>
        <pt x="1590" y="55" on="0"/>
        <pt x="1467" y="-41" on="0"/>
        <pt x="1370" y="-41" on="1"/>
        <pt x="1222" y="-41" on="0"/>
        <pt x="1006" y="100" on="1"/>
        <pt x="851" y="-41" on="0"/>
        <pt x="348" y="-41" on="0"/>
        <pt x="106" y="143" on="0"/>
        <pt x="106" y="332" on="1"/>
        <pt x="106" y="443" on="0"/>
        <pt x="248" y="659" on="0"/>
        <pt x="385" y="737" on="1"/>
        <pt x="272" y="926" on="0"/>
        <pt x="272" y="1065" on="1"/>
        <pt x="272" y="1248" on="0"/>
        <pt x="507" y="1464" on="0"/>
        <pt x="889" y="1464" on="0"/>
        <pt x="1084" y="1309" on="0"/>
        <pt x="1084" y="1068" on="0"/>
        <pt x="884" y="828" on="0"/>
        <pt x="705" y="758" on="1"/>
        <pt x="867" y="570" on="0"/>
        <pt x="1079" y="418" on="1"/>
        <pt x="1093" y="446" on="0"/>
        <pt x="1105" y="488" on="1"/>
        <pt x="1128" y="567" on="0"/>
        <pt x="1100" y="573" on="1"/>
        <pt x="1098" y="573" on="0"/>
        <pt x="979" y="582" on="1"/>
        <pt x="973" y="614" on="0"/>
        <pt x="973" y="656" on="0"/>
        <pt x="979" y="692" on="1"/>
        <pt x="1045" y="700" on="0"/>
        <pt x="1271" y="700" on="0"/>
        <pt x="1493" y="674" on="1"/>
        <pt x="1499" y="645" on="0"/>
        <pt x="1499" y="596" on="0"/>
        <pt x="1489" y="559" on="1"/>
        <pt x="1395" y="563" on="1"/>
        <pt x="1387" y="563" on="0"/>
        <pt x="1359" y="563" on="0"/>
        <pt x="1327" y="557" on="0"/>
        <pt x="1311" y="551" on="0"/>
        <pt x="1292" y="533" on="0"/>
        <pt x="1290" y="531" on="0"/>
        <pt x="1254" y="481" on="0"/>
      </contour>
      <contour>
        <pt x="482" y="164" on="0"/>
        <pt x="623" y="90" on="0"/>
        <pt x="688" y="90" on="1"/>
        <pt x="829" y="90" on="0"/>
        <pt x="909" y="168" on="1"/>
        <pt x="644" y="368" on="0"/>
        <pt x="457" y="627" on="1"/>
        <pt x="389" y="511" on="0"/>
        <pt x="389" y="312" on="0"/>
      </contour>
      <contour>
        <pt x="512" y="1137" on="1"/>
        <pt x="512" y="1023" on="0"/>
        <pt x="625" y="860" on="1"/>
        <pt x="707" y="917" on="0"/>
        <pt x="813" y="1113" on="0"/>
        <pt x="813" y="1190" on="1"/>
        <pt x="813" y="1348" on="0"/>
        <pt x="664" y="1348" on="1"/>
        <pt x="550" y="1348" on="0"/>
        <pt x="523" y="1244" on="1"/>
        <pt x="512" y="1201" on="0"/>
      </contour>
    </TTGlyph>
    <TTGlyph name="aring" xMin="114" yMin="-35" xMax="1253" yMax="1589">
      <contour>
        <pt x="1081" y="565" on="1"/>
        <pt x="1075" y="229" on="1"/>
        <pt x="1075" y="224" on="0"/>
        <pt x="1075" y="219" on="1"/>
        <pt x="1075" y="164" on="0"/>
        <pt x="1127" y="164" on="1"/>
        <pt x="1167" y="164" on="0"/>
        <pt x="1212" y="190" on="1"/>
        <pt x="1226" y="178" on="0"/>
        <pt x="1251" y="135" on="0"/>
        <pt x="1253" y="123" on="1"/>
        <pt x="1129" y="-35" on="0"/>
        <pt x="862" y="-35" on="0"/>
        <pt x="809" y="96" on="1"/>
        <pt x="717" y="32" on="0"/>
        <pt x="526" y="-35" on="0"/>
        <pt x="389" y="-35" on="0"/>
        <pt x="272" y="-5" on="0"/>
        <pt x="222" y="28" on="1"/>
        <pt x="114" y="98" on="0"/>
        <pt x="114" y="259" on="1"/>
        <pt x="114" y="345" on="0"/>
        <pt x="209" y="474" on="0"/>
        <pt x="291" y="511" on="1"/>
        <pt x="448" y="582" on="0"/>
        <pt x="666" y="588" on="1"/>
        <pt x="782" y="592" on="1"/>
        <pt x="789" y="673" on="0"/>
        <pt x="789" y="720" on="1"/>
        <pt x="789" y="826" on="0"/>
        <pt x="708" y="934" on="0"/>
        <pt x="598" y="934" on="1"/>
        <pt x="532" y="934" on="0"/>
        <pt x="459" y="842" on="0"/>
        <pt x="459" y="752" on="1"/>
        <pt x="459" y="740" on="0"/>
        <pt x="425" y="723" on="1"/>
        <pt x="368" y="696" on="0"/>
        <pt x="255" y="696" on="0"/>
        <pt x="188" y="760" on="0"/>
        <pt x="188" y="876" on="0"/>
        <pt x="272" y="978" on="0"/>
        <pt x="342" y="1006" on="1"/>
        <pt x="481" y="1061" on="0"/>
        <pt x="659" y="1061" on="1"/>
        <pt x="845" y="1061" on="0"/>
        <pt x="931" y="1002" on="1"/>
        <pt x="1009" y="950" on="0"/>
        <pt x="1042" y="853" on="1"/>
        <pt x="1081" y="740" on="0"/>
      </contour>
      <contour>
        <pt x="782" y="201" on="1"/>
        <pt x="769" y="274" on="0"/>
        <pt x="769" y="381" on="0"/>
        <pt x="772" y="477" on="1"/>
        <pt x="633" y="471" on="1"/>
        <pt x="526" y="471" on="0"/>
        <pt x="410" y="367" on="0"/>
        <pt x="410" y="211" on="0"/>
        <pt x="478" y="143" on="0"/>
        <pt x="685" y="143" on="0"/>
      </contour>
      <contour>
        <pt x="777" y="1589" on="0"/>
        <pt x="906" y="1477" on="0"/>
        <pt x="906" y="1278" on="0"/>
        <pt x="761" y="1159" on="0"/>
        <pt x="563" y="1159" on="0"/>
        <pt x="434" y="1275" on="0"/>
        <pt x="434" y="1470" on="0"/>
        <pt x="583" y="1589" on="0"/>
      </contour>
      <contour>
        <pt x="625" y="1464" on="0"/>
        <pt x="582" y="1411" on="0"/>
        <pt x="582" y="1325" on="0"/>
        <pt x="640" y="1282" on="0"/>
        <pt x="715" y="1282" on="0"/>
        <pt x="760" y="1336" on="0"/>
        <pt x="760" y="1412" on="0"/>
        <pt x="707" y="1464" on="0"/>
      </contour>
    </TTGlyph>
    <TTGlyph name="asciicircum" xMin="72" yMin="917" xMax="772" yMax="1482">
      <contour>
        <pt x="348" y="1473" on="1"/>
        <pt x="376" y="1482" on="0"/>
        <pt x="465" y="1482" on="0"/>
        <pt x="498" y="1470" on="1"/>
        <pt x="538" y="1420" on="0"/>
        <pt x="723" y="1054" on="0"/>
        <pt x="772" y="930" on="1"/>
        <pt x="724" y="917" on="0"/>
        <pt x="634" y="917" on="0"/>
        <pt x="588" y="930" on="1"/>
        <pt x="499" y="1107" on="0"/>
        <pt x="422" y="1292" on="1"/>
        <pt x="333" y="1069" on="0"/>
        <pt x="254" y="930" on="1"/>
        <pt x="203" y="917" on="0"/>
        <pt x="112" y="917" on="0"/>
        <pt x="72" y="930" on="1"/>
        <pt x="116" y="1043" on="0"/>
        <pt x="304" y="1409" on="0"/>
      </contour>
    </TTGlyph>
    <TTGlyph name="asciitilde" xMin="93" yMin="602" xMax="1026" yMax="903">
      <contour>
        <pt x="205" y="637" on="1"/>
        <pt x="193" y="635" on="0"/>
        <pt x="124" y="635" on="0"/>
        <pt x="94" y="649" on="1"/>
        <pt x="93" y="657" on="0"/>
        <pt x="93" y="665" on="1"/>
        <pt x="93" y="730" on="0"/>
        <pt x="174" y="841" on="0"/>
        <pt x="296" y="902" on="0"/>
        <pt x="417" y="903" on="0"/>
        <pt x="533" y="861" on="0"/>
        <pt x="574" y="836" on="1"/>
        <pt x="681" y="768" on="0"/>
        <pt x="881" y="768" on="0"/>
        <pt x="926" y="883" on="1"/>
        <pt x="931" y="883" on="1"/>
        <pt x="962" y="883" on="0"/>
        <pt x="1020" y="863" on="0"/>
        <pt x="1026" y="858" on="1"/>
        <pt x="1023" y="750" on="0"/>
        <pt x="875" y="602" on="0"/>
        <pt x="762" y="602" on="1"/>
        <pt x="662" y="602" on="0"/>
        <pt x="433" y="748" on="0"/>
        <pt x="324" y="748" on="1"/>
        <pt x="288" y="748" on="0"/>
        <pt x="211" y="682" on="0"/>
      </contour>
    </TTGlyph>
    <TTGlyph name="asterisk" xMin="92" yMin="753" xMax="873" yMax="1509">
      <contour>
        <pt x="759" y="1307" on="1"/>
        <pt x="811" y="1307" on="0"/>
        <pt x="873" y="1220" on="0"/>
        <pt x="873" y="1143" on="0"/>
        <pt x="864" y="1116" on="1"/>
        <pt x="760" y="1116" on="0"/>
        <pt x="598" y="1079" on="1"/>
        <pt x="775" y="930" on="0"/>
        <pt x="775" y="863" on="1"/>
        <pt x="775" y="854" on="0"/>
        <pt x="772" y="846" on="1"/>
        <pt x="753" y="804" on="0"/>
        <pt x="676" y="753" on="0"/>
        <pt x="628" y="753" on="1"/>
        <pt x="621" y="753" on="0"/>
        <pt x="614" y="754" on="1"/>
        <pt x="608" y="783" on="0"/>
        <pt x="520" y="930" on="1"/>
        <pt x="487" y="981" on="1"/>
        <pt x="407" y="795" on="0"/>
        <pt x="331" y="759" on="1"/>
        <pt x="320" y="754" on="0"/>
        <pt x="315" y="754" on="1"/>
        <pt x="268" y="754" on="0"/>
        <pt x="183" y="836" on="0"/>
        <pt x="174" y="889" on="1"/>
        <pt x="235" y="919" on="0"/>
        <pt x="362" y="1047" on="1"/>
        <pt x="350" y="1047" on="1"/>
        <pt x="246" y="1047" on="0"/>
        <pt x="111" y="1082" on="0"/>
        <pt x="100" y="1112" on="1"/>
        <pt x="92" y="1148" on="0"/>
        <pt x="92" y="1176" on="1"/>
        <pt x="92" y="1246" on="0"/>
        <pt x="143" y="1288" on="1"/>
        <pt x="164" y="1284" on="1"/>
        <pt x="175" y="1280" on="0"/>
        <pt x="208" y="1264" on="1"/>
        <pt x="296" y="1221" on="0"/>
        <pt x="395" y="1190" on="1"/>
        <pt x="352" y="1325" on="0"/>
        <pt x="352" y="1457" on="0"/>
        <pt x="375" y="1477" on="1"/>
        <pt x="420" y="1509" on="0"/>
        <pt x="521" y="1509" on="0"/>
        <pt x="575" y="1477" on="1"/>
        <pt x="536" y="1375" on="0"/>
        <pt x="532" y="1208" on="1"/>
        <pt x="676" y="1307" on="0"/>
      </contour>
    </TTGlyph>
    <TTGlyph name="at" xMin="113" yMin="-274" xMax="1843" yMax="1464">
      <contour>
        <pt x="818" y="371" on="1"/>
        <pt x="829" y="362" on="0"/>
        <pt x="856" y="362" on="0"/>
        <pt x="902" y="388" on="0"/>
        <pt x="934" y="415" on="1"/>
        <pt x="1009" y="479" on="0"/>
        <pt x="1081" y="616" on="1"/>
        <pt x="1096" y="687" on="0"/>
        <pt x="1116" y="762" on="1"/>
        <pt x="1159" y="917" on="0"/>
        <pt x="1159" y="942" on="1"/>
        <pt x="1159" y="983" on="0"/>
        <pt x="1110" y="983" on="1"/>
        <pt x="1039" y="983" on="0"/>
        <pt x="913" y="871" on="0"/>
        <pt x="873" y="787" on="1"/>
        <pt x="786" y="604" on="0"/>
        <pt x="786" y="444" on="1"/>
        <pt x="786" y="396" on="0"/>
      </contour>
      <contour>
        <pt x="520" y="470" on="1"/>
        <pt x="520" y="611" on="0"/>
        <pt x="587" y="758" on="1"/>
        <pt x="653" y="904" on="0"/>
        <pt x="786" y="1004" on="1"/>
        <pt x="923" y="1108" on="0"/>
        <pt x="1110" y="1108" on="1"/>
        <pt x="1422" y="1108" on="0"/>
        <pt x="1422" y="877" on="1"/>
        <pt x="1422" y="818" on="0"/>
        <pt x="1403" y="745" on="1"/>
        <pt x="1325" y="449" on="1"/>
        <pt x="1322" y="434" on="0"/>
        <pt x="1322" y="384" on="0"/>
        <pt x="1361" y="340" on="0"/>
        <pt x="1417" y="340" on="0"/>
        <pt x="1478" y="365" on="0"/>
        <pt x="1552" y="436" on="0"/>
        <pt x="1581" y="489" on="1"/>
        <pt x="1649" y="613" on="0"/>
        <pt x="1649" y="840" on="1"/>
        <pt x="1649" y="983" on="0"/>
        <pt x="1485" y="1209" on="0"/>
        <pt x="1212" y="1331" on="0"/>
        <pt x="914" y="1331" on="0"/>
        <pt x="661" y="1228" on="0"/>
        <pt x="463" y="1041" on="0"/>
        <pt x="344" y="756" on="0"/>
        <pt x="344" y="425" on="0"/>
        <pt x="453" y="154" on="0"/>
        <pt x="547" y="63" on="1"/>
        <pt x="745" y="-129" on="0"/>
        <pt x="1034" y="-129" on="1"/>
        <pt x="1174" y="-129" on="0"/>
        <pt x="1483" y="7" on="0"/>
        <pt x="1565" y="121" on="1"/>
        <pt x="1602" y="113" on="0"/>
        <pt x="1649" y="50" on="0"/>
        <pt x="1649" y="0" on="1"/>
        <pt x="1649" y="-106" on="0"/>
        <pt x="1319" y="-274" on="0"/>
        <pt x="1034" y="-274" on="1"/>
        <pt x="838" y="-274" on="0"/>
        <pt x="497" y="-146" on="0"/>
        <pt x="253" y="78" on="0"/>
        <pt x="113" y="401" on="0"/>
        <pt x="113" y="775" on="0"/>
        <pt x="257" y="1102" on="0"/>
        <pt x="505" y="1332" on="0"/>
        <pt x="849" y="1464" on="0"/>
        <pt x="1269" y="1464" on="0"/>
        <pt x="1634" y="1300" on="0"/>
        <pt x="1843" y="1006" on="0"/>
        <pt x="1843" y="823" on="1"/>
        <pt x="1843" y="639" on="0"/>
        <pt x="1753" y="474" on="1"/>
        <pt x="1650" y="286" on="0"/>
        <pt x="1474" y="213" on="1"/>
        <pt x="1376" y="172" on="0"/>
        <pt x="1156" y="172" on="0"/>
        <pt x="1047" y="281" on="0"/>
        <pt x="1047" y="375" on="1"/>
        <pt x="1047" y="381" on="0"/>
        <pt x="1047" y="387" on="1"/>
        <pt x="885" y="201" on="0"/>
        <pt x="721" y="201" on="1"/>
        <pt x="520" y="201" on="0"/>
      </contour>
    </TTGlyph>
    <TTGlyph name="atilde" xMin="114" yMin="-35" xMax="1253" yMax="1501">
      <contour>
        <pt x="1081" y="565" on="1"/>
        <pt x="1075" y="229" on="1"/>
        <pt x="1075" y="224" on="0"/>
        <pt x="1075" y="219" on="1"/>
        <pt x="1075" y="164" on="0"/>
        <pt x="1127" y="164" on="1"/>
        <pt x="1167" y="164" on="0"/>
        <pt x="1212" y="190" on="1"/>
        <pt x="1226" y="178" on="0"/>
        <pt x="1251" y="135" on="0"/>
        <pt x="1253" y="123" on="1"/>
        <pt x="1129" y="-35" on="0"/>
        <pt x="862" y="-35" on="0"/>
        <pt x="809" y="96" on="1"/>
        <pt x="717" y="32" on="0"/>
        <pt x="526" y="-35" on="0"/>
        <pt x="389" y="-35" on="0"/>
        <pt x="272" y="-5" on="0"/>
        <pt x="222" y="28" on="1"/>
        <pt x="114" y="98" on="0"/>
        <pt x="114" y="259" on="1"/>
        <pt x="114" y="345" on="0"/>
        <pt x="209" y="474" on="0"/>
        <pt x="291" y="511" on="1"/>
        <pt x="448" y="582" on="0"/>
        <pt x="666" y="588" on="1"/>
        <pt x="782" y="592" on="1"/>
        <pt x="789" y="673" on="0"/>
        <pt x="789" y="720" on="1"/>
        <pt x="789" y="826" on="0"/>
        <pt x="708" y="934" on="0"/>
        <pt x="598" y="934" on="1"/>
        <pt x="532" y="934" on="0"/>
        <pt x="459" y="842" on="0"/>
        <pt x="459" y="752" on="1"/>
        <pt x="459" y="740" on="0"/>
        <pt x="425" y="723" on="1"/>
        <pt x="368" y="696" on="0"/>
        <pt x="255" y="696" on="0"/>
        <pt x="188" y="760" on="0"/>
        <pt x="188" y="876" on="0"/>
        <pt x="272" y="978" on="0"/>
        <pt x="342" y="1006" on="1"/>
        <pt x="481" y="1061" on="0"/>
        <pt x="659" y="1061" on="1"/>
        <pt x="845" y="1061" on="0"/>
        <pt x="931" y="1002" on="1"/>
        <pt x="1009" y="950" on="0"/>
        <pt x="1042" y="853" on="1"/>
        <pt x="1081" y="740" on="0"/>
      </contour>
      <contour>
        <pt x="782" y="201" on="1"/>
        <pt x="769" y="274" on="0"/>
        <pt x="769" y="381" on="0"/>
        <pt x="772" y="477" on="1"/>
        <pt x="633" y="471" on="1"/>
        <pt x="526" y="471" on="0"/>
        <pt x="410" y="367" on="0"/>
        <pt x="410" y="211" on="0"/>
        <pt x="478" y="143" on="0"/>
        <pt x="685" y="143" on="0"/>
      </contour>
      <contour>
        <pt x="1010" y="1501" on="1"/>
        <pt x="1047" y="1487" on="0"/>
        <pt x="1067" y="1440" on="1"/>
        <pt x="1034" y="1336" on="0"/>
        <pt x="913" y="1233" on="0"/>
        <pt x="754" y="1233" on="0"/>
        <pt x="524" y="1321" on="0"/>
        <pt x="427" y="1321" on="0"/>
        <pt x="328" y="1271" on="0"/>
        <pt x="305" y="1233" on="1"/>
        <pt x="280" y="1244" on="0"/>
        <pt x="248" y="1294" on="1"/>
        <pt x="280" y="1395" on="0"/>
        <pt x="404" y="1489" on="0"/>
        <pt x="581" y="1491" on="0"/>
        <pt x="773" y="1421" on="0"/>
        <pt x="842" y="1421" on="1"/>
        <pt x="948" y="1421" on="0"/>
      </contour>
    </TTGlyph>
    <TTGlyph name="b" xMin="51" yMin="-41" xMax="1251" yMax="1549">
      <contour>
        <pt x="475" y="809" on="1"/>
        <pt x="475" y="552" on="1"/>
        <pt x="475" y="260" on="0"/>
        <pt x="479" y="94" on="1"/>
        <pt x="528" y="86" on="0"/>
        <pt x="598" y="86" on="1"/>
        <pt x="729" y="86" on="0"/>
        <pt x="832" y="194" on="1"/>
        <pt x="945" y="314" on="0"/>
        <pt x="945" y="550" on="1"/>
        <pt x="945" y="909" on="0"/>
        <pt x="731" y="909" on="1"/>
        <pt x="674" y="909" on="0"/>
        <pt x="558" y="861" on="0"/>
      </contour>
      <contour>
        <pt x="481" y="1376" on="1"/>
        <pt x="482" y="1342" on="1"/>
        <pt x="482" y="1314" on="0"/>
        <pt x="480" y="1206" on="0"/>
        <pt x="478" y="1032" on="0"/>
        <pt x="477" y="954" on="1"/>
        <pt x="622" y="1065" on="0"/>
        <pt x="791" y="1065" on="1"/>
        <pt x="1022" y="1065" on="0"/>
        <pt x="1251" y="811" on="0"/>
        <pt x="1251" y="576" on="1"/>
        <pt x="1251" y="359" on="0"/>
        <pt x="1152" y="224" on="1"/>
        <pt x="959" y="-41" on="0"/>
        <pt x="598" y="-41" on="1"/>
        <pt x="346" y="-41" on="0"/>
        <pt x="174" y="10" on="1"/>
        <pt x="190" y="275" on="0"/>
        <pt x="190" y="1103" on="0"/>
        <pt x="184" y="1292" on="1"/>
        <pt x="181" y="1342" on="0"/>
        <pt x="113" y="1400" on="0"/>
        <pt x="59" y="1405" on="1"/>
        <pt x="52" y="1454" on="0"/>
        <pt x="52" y="1467" on="0"/>
        <pt x="53" y="1475" on="1"/>
        <pt x="242" y="1548" on="0"/>
        <pt x="431" y="1548" on="1"/>
        <pt x="440" y="1548" on="0"/>
        <pt x="449" y="1548" on="1"/>
        <pt x="472" y="1519" on="0"/>
      </contour>
    </TTGlyph>
    <TTGlyph name="backslash" xMin="-61" yMin="-352" xMax="864" yMax="1716">
      <contour>
        <pt x="662" y="-342" on="1"/>
        <pt x="-61" y="1704" on="1"/>
        <pt x="-33" y="1716" on="0"/>
        <pt x="123" y="1716" on="0"/>
        <pt x="147" y="1710" on="1"/>
        <pt x="199" y="1604" on="0"/>
        <pt x="829" y="-205" on="0"/>
        <pt x="864" y="-340" on="1"/>
        <pt x="852" y="-352" on="0"/>
        <pt x="676" y="-352" on="0"/>
      </contour>
    </TTGlyph>
    <TTGlyph name="bar" xMin="154" yMin="-360" xMax="388" yMax="1702">
      <contour>
        <pt x="178" y="-346" on="1"/>
        <pt x="154" y="1694" on="1"/>
        <pt x="173" y="1702" on="0"/>
        <pt x="317" y="1702" on="0"/>
        <pt x="336" y="1690" on="1"/>
        <pt x="353" y="1593" on="0"/>
        <pt x="388" y="334" on="0"/>
        <pt x="388" y="-311" on="0"/>
        <pt x="381" y="-354" on="1"/>
        <pt x="339" y="-360" on="0"/>
        <pt x="219" y="-360" on="0"/>
      </contour>
    </TTGlyph>
    <TTGlyph name="braceleft" xMin="155" yMin="-371" xMax="654" yMax="1663">
      <contour>
        <pt x="352" y="649" on="1"/>
        <pt x="352" y="643" on="1"/>
        <pt x="420" y="630" on="0"/>
        <pt x="470" y="592" on="1"/>
        <pt x="563" y="521" on="0"/>
        <pt x="563" y="424" on="1"/>
        <pt x="563" y="280" on="0"/>
        <pt x="582" y="-130" on="0"/>
        <pt x="602" y="-226" on="0"/>
        <pt x="617" y="-268" on="0"/>
        <pt x="624" y="-278" on="1"/>
        <pt x="634" y="-294" on="0"/>
        <pt x="654" y="-310" on="0"/>
        <pt x="654" y="-330" on="0"/>
        <pt x="635" y="-342" on="1"/>
        <pt x="594" y="-371" on="0"/>
        <pt x="456" y="-371" on="0"/>
        <pt x="374" y="-281" on="0"/>
        <pt x="345" y="-141" on="0"/>
        <pt x="332" y="55" on="0"/>
        <pt x="334" y="148" on="1"/>
        <pt x="337" y="387" on="0"/>
        <pt x="303" y="524" on="1"/>
        <pt x="285" y="542" on="0"/>
        <pt x="261" y="559" on="0"/>
        <pt x="248" y="569" on="0"/>
        <pt x="229" y="579" on="0"/>
        <pt x="220" y="584" on="0"/>
        <pt x="200" y="593" on="0"/>
        <pt x="197" y="594" on="1"/>
        <pt x="175" y="602" on="0"/>
        <pt x="172" y="604" on="1"/>
        <pt x="155" y="633" on="0"/>
        <pt x="155" y="687" on="0"/>
        <pt x="172" y="715" on="1"/>
        <pt x="253" y="731" on="0"/>
        <pt x="303" y="770" on="1"/>
        <pt x="333" y="903" on="0"/>
        <pt x="336" y="1244" on="1"/>
        <pt x="337" y="1351" on="0"/>
        <pt x="350" y="1452" on="1"/>
        <pt x="376" y="1663" on="0"/>
        <pt x="532" y="1663" on="1"/>
        <pt x="576" y="1663" on="0"/>
        <pt x="652" y="1627" on="0"/>
        <pt x="652" y="1607" on="1"/>
        <pt x="652" y="1598" on="0"/>
        <pt x="641" y="1591" on="0"/>
        <pt x="630" y="1580" on="0"/>
        <pt x="624" y="1570" on="1"/>
        <pt x="608" y="1547" on="0"/>
        <pt x="582" y="1425" on="0"/>
        <pt x="563" y="971" on="0"/>
        <pt x="563" y="848" on="1"/>
        <pt x="563" y="703" on="0"/>
      </contour>
    </TTGlyph>
    <TTGlyph name="braceright" xMin="93" yMin="-371" xMax="592" yMax="1663">
      <contour>
        <pt x="395" y="643" on="1"/>
        <pt x="395" y="649" on="1"/>
        <pt x="184" y="704" on="0"/>
        <pt x="184" y="848" on="1"/>
        <pt x="184" y="969" on="0"/>
        <pt x="165" y="1425" on="0"/>
        <pt x="146" y="1518" on="0"/>
        <pt x="130" y="1560" on="0"/>
        <pt x="124" y="1570" on="1"/>
        <pt x="113" y="1586" on="0"/>
        <pt x="105" y="1592" on="1"/>
        <pt x="95" y="1600" on="0"/>
        <pt x="95" y="1607" on="1"/>
        <pt x="95" y="1627" on="0"/>
        <pt x="171" y="1663" on="0"/>
        <pt x="275" y="1663" on="0"/>
        <pt x="354" y="1604" on="0"/>
        <pt x="392" y="1495" on="0"/>
        <pt x="410" y="1360" on="0"/>
        <pt x="414" y="1188" on="0"/>
        <pt x="414" y="1107" on="1"/>
        <pt x="416" y="904" on="0"/>
        <pt x="444" y="770" on="1"/>
        <pt x="494" y="731" on="0"/>
        <pt x="575" y="715" on="1"/>
        <pt x="592" y="687" on="0"/>
        <pt x="592" y="633" on="0"/>
        <pt x="575" y="604" on="1"/>
        <pt x="567" y="600" on="0"/>
        <pt x="543" y="591" on="0"/>
        <pt x="522" y="581" on="0"/>
        <pt x="510" y="574" on="0"/>
        <pt x="489" y="562" on="0"/>
        <pt x="481" y="556" on="1"/>
        <pt x="461" y="541" on="0"/>
        <pt x="444" y="524" on="1"/>
        <pt x="414" y="400" on="0"/>
        <pt x="412" y="68" on="1"/>
        <pt x="412" y="-42" on="0"/>
        <pt x="400" y="-146" on="1"/>
        <pt x="376" y="-371" on="0"/>
        <pt x="225" y="-371" on="1"/>
        <pt x="174" y="-371" on="0"/>
        <pt x="94" y="-337" on="0"/>
        <pt x="94" y="-317" on="1"/>
        <pt x="94" y="-307" on="0"/>
        <pt x="106" y="-299" on="0"/>
        <pt x="117" y="-288" on="0"/>
        <pt x="124" y="-278" on="1"/>
        <pt x="140" y="-252" on="0"/>
        <pt x="166" y="-130" on="0"/>
        <pt x="184" y="282" on="0"/>
        <pt x="184" y="424" on="1"/>
        <pt x="184" y="554" on="0"/>
        <pt x="328" y="621" on="1"/>
        <pt x="363" y="637" on="0"/>
      </contour>
    </TTGlyph>
    <TTGlyph name="bracketleft" xMin="153" yMin="-375" xMax="625" yMax="1667">
      <contour>
        <pt x="182" y="-365" on="1"/>
        <pt x="153" y="110" on="0"/>
        <pt x="153" y="1207" on="0"/>
        <pt x="182" y="1659" on="1"/>
        <pt x="294" y="1667" on="0"/>
        <pt x="515" y="1667" on="0"/>
        <pt x="618" y="1659" on="1"/>
        <pt x="625" y="1619" on="0"/>
        <pt x="625" y="1564" on="0"/>
        <pt x="618" y="1526" on="1"/>
        <pt x="426" y="1526" on="1"/>
        <pt x="412" y="1108" on="0"/>
        <pt x="412" y="119" on="0"/>
        <pt x="426" y="-231" on="1"/>
        <pt x="618" y="-231" on="1"/>
        <pt x="625" y="-273" on="0"/>
        <pt x="625" y="-328" on="0"/>
        <pt x="618" y="-365" on="1"/>
        <pt x="495" y="-375" on="0"/>
        <pt x="283" y="-375" on="0"/>
      </contour>
    </TTGlyph>
    <TTGlyph name="bracketright" xMin="92" yMin="-375" xMax="563" yMax="1667">
      <contour>
        <pt x="535" y="-365" on="1"/>
        <pt x="434" y="-375" on="0"/>
        <pt x="223" y="-375" on="0"/>
        <pt x="98" y="-365" on="1"/>
        <pt x="92" y="-334" on="0"/>
        <pt x="92" y="-267" on="0"/>
        <pt x="98" y="-231" on="1"/>
        <pt x="291" y="-231" on="1"/>
        <pt x="305" y="119" on="0"/>
        <pt x="305" y="1108" on="0"/>
        <pt x="291" y="1526" on="1"/>
        <pt x="98" y="1526" on="1"/>
        <pt x="92" y="1559" on="0"/>
        <pt x="92" y="1624" on="0"/>
        <pt x="98" y="1659" on="1"/>
        <pt x="201" y="1667" on="0"/>
        <pt x="423" y="1667" on="0"/>
        <pt x="535" y="1659" on="1"/>
        <pt x="563" y="1201" on="0"/>
        <pt x="563" y="94" on="0"/>
      </contour>
    </TTGlyph>
    <TTGlyph name="brokenbar" xMin="154" yMin="-360" xMax="356" yMax="1706">
      <contour>
        <pt x="154" y="-346" on="1"/>
        <pt x="154" y="498" on="1"/>
        <pt x="173" y="506" on="0"/>
        <pt x="317" y="506" on="0"/>
        <pt x="336" y="494" on="1"/>
        <pt x="356" y="346" on="0"/>
        <pt x="356" y="-354" on="1"/>
        <pt x="314" y="-360" on="0"/>
        <pt x="193" y="-360" on="0"/>
      </contour>
      <contour>
        <pt x="154" y="854" on="1"/>
        <pt x="154" y="1698" on="1"/>
        <pt x="173" y="1706" on="0"/>
        <pt x="317" y="1706" on="0"/>
        <pt x="336" y="1694" on="1"/>
        <pt x="356" y="1546" on="0"/>
        <pt x="356" y="846" on="1"/>
        <pt x="314" y="840" on="0"/>
        <pt x="199" y="840" on="0"/>
      </contour>
    </TTGlyph>
    <TTGlyph name="bullet" xMin="155" yMin="358" xMax="759" yMax="951">
      <contour>
        <pt x="645" y="434" on="1"/>
        <pt x="558" y="358" on="0"/>
        <pt x="301" y="358" on="0"/>
        <pt x="217" y="449" on="1"/>
        <pt x="155" y="518" on="0"/>
        <pt x="155" y="603" on="1"/>
        <pt x="155" y="766" on="0"/>
        <pt x="264" y="866" on="1"/>
        <pt x="363" y="951" on="0"/>
        <pt x="622" y="951" on="0"/>
        <pt x="698" y="862" on="1"/>
        <pt x="759" y="797" on="0"/>
        <pt x="759" y="710" on="1"/>
        <pt x="759" y="542" on="0"/>
      </contour>
    </TTGlyph>
    <TTGlyph name="c" xMin="113" yMin="-36" xMax="1114" yMax="1072">
      <contour>
        <pt x="1114" y="817" on="1"/>
        <pt x="1114" y="665" on="0"/>
        <pt x="956" y="665" on="1"/>
        <pt x="902" y="665" on="0"/>
        <pt x="854" y="690" on="0"/>
        <pt x="854" y="692" on="1"/>
        <pt x="857" y="711" on="0"/>
        <pt x="857" y="731" on="1"/>
        <pt x="857" y="825" on="0"/>
        <pt x="736" y="936" on="0"/>
        <pt x="532" y="936" on="0"/>
        <pt x="408" y="761" on="0"/>
        <pt x="408" y="393" on="0"/>
        <pt x="621" y="111" on="0"/>
        <pt x="752" y="111" on="1"/>
        <pt x="865" y="111" on="0"/>
        <pt x="978" y="202" on="1"/>
        <pt x="1004" y="223" on="0"/>
        <pt x="1030" y="252" on="1"/>
        <pt x="1052" y="238" on="0"/>
        <pt x="1099" y="187" on="0"/>
        <pt x="1104" y="164" on="1"/>
        <pt x="1057" y="101" on="0"/>
        <pt x="962" y="43" on="1"/>
        <pt x="832" y="-35" on="0"/>
        <pt x="518" y="-35" on="0"/>
        <pt x="261" y="97" on="0"/>
        <pt x="113" y="343" on="0"/>
        <pt x="113" y="500" on="1"/>
        <pt x="113" y="802" on="0"/>
        <pt x="336" y="966" on="1"/>
        <pt x="479" y="1071" on="0"/>
        <pt x="684" y="1071" on="1"/>
        <pt x="857" y="1071" on="0"/>
        <pt x="985" y="996" on="1"/>
        <pt x="1043" y="962" on="0"/>
        <pt x="1113" y="868" on="0"/>
      </contour>
    </TTGlyph>
    <TTGlyph name="caron" xMin="47" yMin="1176" xMax="713" yMax="1602">
      <contour>
        <pt x="47" y="1546" on="1"/>
        <pt x="54" y="1562" on="0"/>
        <pt x="123" y="1596" on="0"/>
        <pt x="152" y="1602" on="1"/>
        <pt x="389" y="1380" on="1"/>
        <pt x="616" y="1595" on="1"/>
        <pt x="644" y="1589" on="0"/>
        <pt x="700" y="1547" on="0"/>
        <pt x="713" y="1522" on="1"/>
        <pt x="659" y="1416" on="0"/>
        <pt x="441" y="1176" on="0"/>
        <pt x="349" y="1176" on="0"/>
        <pt x="124" y="1412" on="0"/>
      </contour>
    </TTGlyph>
    <TTGlyph name="caron.case" xMin="72" yMin="1571" xMax="809" yMax="1933">
      <contour>
        <pt x="72" y="1847" on="1"/>
        <pt x="79" y="1874" on="0"/>
        <pt x="121" y="1919" on="0"/>
        <pt x="143" y="1929" on="1"/>
        <pt x="428" y="1751" on="1"/>
        <pt x="715" y="1933" on="1"/>
        <pt x="746" y="1919" on="0"/>
        <pt x="802" y="1864" on="0"/>
        <pt x="809" y="1839" on="1"/>
        <pt x="693" y="1726" on="0"/>
        <pt x="483" y="1571" on="0"/>
        <pt x="395" y="1571" on="0"/>
        <pt x="229" y="1698" on="0"/>
      </contour>
    </TTGlyph>
    <TTGlyph name="ccedilla" xMin="113" yMin="-477" xMax="1114" yMax="1072">
      <contour>
        <pt x="674" y="-367" on="1"/>
        <pt x="799" y="-367" on="0"/>
        <pt x="799" y="-293" on="1"/>
        <pt x="799" y="-265" on="0"/>
        <pt x="774" y="-248" on="1"/>
        <pt x="732" y="-219" on="0"/>
        <pt x="646" y="-219" on="1"/>
        <pt x="592" y="-219" on="0"/>
        <pt x="566" y="-166" on="1"/>
        <pt x="626" y="-33" on="1"/>
        <pt x="400" y="-16" on="0"/>
        <pt x="113" y="276" on="0"/>
        <pt x="113" y="500" on="1"/>
        <pt x="113" y="802" on="0"/>
        <pt x="336" y="966" on="1"/>
        <pt x="479" y="1071" on="0"/>
        <pt x="684" y="1071" on="1"/>
        <pt x="857" y="1071" on="0"/>
        <pt x="985" y="996" on="1"/>
        <pt x="1043" y="962" on="0"/>
        <pt x="1113" y="868" on="0"/>
        <pt x="1114" y="817" on="1"/>
        <pt x="1114" y="665" on="0"/>
        <pt x="956" y="665" on="1"/>
        <pt x="902" y="665" on="0"/>
        <pt x="854" y="690" on="0"/>
        <pt x="854" y="692" on="1"/>
        <pt x="857" y="711" on="0"/>
        <pt x="857" y="731" on="1"/>
        <pt x="857" y="825" on="0"/>
        <pt x="736" y="936" on="0"/>
        <pt x="532" y="936" on="0"/>
        <pt x="408" y="761" on="0"/>
        <pt x="408" y="393" on="0"/>
        <pt x="621" y="111" on="0"/>
        <pt x="752" y="111" on="1"/>
        <pt x="865" y="111" on="0"/>
        <pt x="978" y="202" on="1"/>
        <pt x="1004" y="223" on="0"/>
        <pt x="1030" y="252" on="1"/>
        <pt x="1052" y="238" on="0"/>
        <pt x="1099" y="187" on="0"/>
        <pt x="1104" y="164" on="1"/>
        <pt x="1089" y="142" on="0"/>
        <pt x="1006" y="69" on="0"/>
        <pt x="965" y="44" on="1"/>
        <pt x="854" y="-24" on="0"/>
        <pt x="724" y="-33" on="1"/>
        <pt x="672" y="-131" on="1"/>
        <pt x="678" y="-131" on="0"/>
        <pt x="701" y="-131" on="0"/>
        <pt x="736" y="-133" on="0"/>
        <pt x="784" y="-138" on="0"/>
        <pt x="831" y="-149" on="0"/>
        <pt x="880" y="-164" on="0"/>
        <pt x="921" y="-189" on="0"/>
        <pt x="938" y="-205" on="1"/>
        <pt x="973" y="-238" on="0"/>
        <pt x="973" y="-341" on="0"/>
        <pt x="908" y="-417" on="0"/>
        <pt x="860" y="-437" on="1"/>
        <pt x="762" y="-477" on="0"/>
        <pt x="629" y="-477" on="0"/>
        <pt x="531" y="-455" on="0"/>
        <pt x="457" y="-400" on="0"/>
        <pt x="457" y="-327" on="0"/>
        <pt x="506" y="-293" on="0"/>
        <pt x="537" y="-293" on="1"/>
        <pt x="538" y="-293" on="0"/>
        <pt x="546" y="-308" on="0"/>
        <pt x="565" y="-330" on="0"/>
        <pt x="579" y="-341" on="1"/>
        <pt x="612" y="-367" on="0"/>
      </contour>
    </TTGlyph>
    <TTGlyph name="cedilla" xMin="4" yMin="-477" xMax="520" yMax="10">
      <contour>
        <pt x="221" y="-367" on="1"/>
        <pt x="346" y="-367" on="0"/>
        <pt x="346" y="-293" on="1"/>
        <pt x="346" y="-265" on="0"/>
        <pt x="320" y="-248" on="1"/>
        <pt x="279" y="-219" on="0"/>
        <pt x="193" y="-219" on="1"/>
        <pt x="140" y="-219" on="0"/>
        <pt x="113" y="-166" on="1"/>
        <pt x="193" y="10" on="1"/>
        <pt x="295" y="10" on="1"/>
        <pt x="219" y="-131" on="1"/>
        <pt x="225" y="-131" on="0"/>
        <pt x="255" y="-131" on="0"/>
        <pt x="303" y="-135" on="0"/>
        <pt x="373" y="-145" on="0"/>
        <pt x="433" y="-169" on="0"/>
        <pt x="461" y="-185" on="1"/>
        <pt x="520" y="-221" on="0"/>
        <pt x="520" y="-341" on="0"/>
        <pt x="455" y="-417" on="0"/>
        <pt x="406" y="-437" on="1"/>
        <pt x="310" y="-477" on="0"/>
        <pt x="176" y="-477" on="0"/>
        <pt x="78" y="-455" on="0"/>
        <pt x="4" y="-400" on="0"/>
        <pt x="4" y="-327" on="0"/>
        <pt x="53" y="-293" on="0"/>
        <pt x="84" y="-293" on="1"/>
        <pt x="85" y="-293" on="0"/>
        <pt x="93" y="-308" on="0"/>
        <pt x="112" y="-330" on="0"/>
        <pt x="126" y="-341" on="1"/>
        <pt x="159" y="-367" on="0"/>
      </contour>
    </TTGlyph>
    <TTGlyph name="cent" xMin="113" yMin="-234" xMax="1114" yMax="1268">
      <contour>
        <pt x="752" y="104" on="1"/>
        <pt x="903" y="104" on="0"/>
        <pt x="1030" y="246" on="1"/>
        <pt x="1052" y="231" on="0"/>
        <pt x="1099" y="180" on="0"/>
        <pt x="1104" y="158" on="1"/>
        <pt x="1089" y="137" on="0"/>
        <pt x="1010" y="67" on="0"/>
        <pt x="971" y="42" on="1"/>
        <pt x="869" y="-21" on="0"/>
        <pt x="741" y="-37" on="1"/>
        <pt x="739" y="-142" on="0"/>
        <pt x="733" y="-221" on="1"/>
        <pt x="707" y="-234" on="0"/>
        <pt x="650" y="-234" on="0"/>
        <pt x="616" y="-221" on="1"/>
        <pt x="616" y="-37" on="1"/>
        <pt x="394" y="-18" on="0"/>
        <pt x="113" y="273" on="0"/>
        <pt x="113" y="727" on="0"/>
        <pt x="390" y="1039" on="0"/>
        <pt x="616" y="1061" on="1"/>
        <pt x="618" y="1260" on="1"/>
        <pt x="645" y="1268" on="0"/>
        <pt x="701" y="1268" on="0"/>
        <pt x="729" y="1260" on="1"/>
        <pt x="736" y="1203" on="0"/>
        <pt x="739" y="1063" on="1"/>
        <pt x="840" y="1055" on="0"/>
        <pt x="1012" y="984" on="0"/>
        <pt x="1113" y="873" on="0"/>
        <pt x="1114" y="811" on="1"/>
        <pt x="1114" y="659" on="0"/>
        <pt x="956" y="659" on="1"/>
        <pt x="902" y="659" on="0"/>
        <pt x="854" y="684" on="0"/>
        <pt x="854" y="686" on="1"/>
        <pt x="856" y="699" on="0"/>
        <pt x="856" y="788" on="0"/>
        <pt x="795" y="884" on="0"/>
        <pt x="741" y="909" on="1"/>
        <pt x="744" y="693" on="0"/>
        <pt x="744" y="203" on="0"/>
        <pt x="743" y="104" on="1"/>
      </contour>
      <contour>
        <pt x="520" y="920" on="0"/>
        <pt x="408" y="744" on="0"/>
        <pt x="408" y="437" on="0"/>
        <pt x="526" y="204" on="0"/>
        <pt x="616" y="147" on="1"/>
        <pt x="616" y="928" on="1"/>
      </contour>
    </TTGlyph>
    <TTGlyph name="circumflex" xMin="45" yMin="1174" xMax="721" yMax="1602">
      <contour>
        <pt x="45" y="1239" on="1"/>
        <pt x="121" y="1372" on="0"/>
        <pt x="349" y="1602" on="0"/>
        <pt x="441" y="1602" on="0"/>
        <pt x="668" y="1356" on="0"/>
        <pt x="721" y="1251" on="1"/>
        <pt x="710" y="1227" on="0"/>
        <pt x="641" y="1180" on="0"/>
        <pt x="612" y="1174" on="1"/>
        <pt x="389" y="1399" on="1"/>
        <pt x="154" y="1180" on="1"/>
        <pt x="127" y="1185" on="0"/>
        <pt x="52" y="1223" on="0"/>
      </contour>
    </TTGlyph>
    <TTGlyph name="circumflex.case" xMin="115" yMin="1565" xMax="852" yMax="1933">
      <contour>
        <pt x="115" y="1665" on="1"/>
        <pt x="396" y="1933" on="0"/>
        <pt x="481" y="1933" on="1"/>
        <pt x="526" y="1933" on="0"/>
        <pt x="736" y="1778" on="0"/>
        <pt x="852" y="1665" on="1"/>
        <pt x="845" y="1639" on="0"/>
        <pt x="787" y="1579" on="0"/>
        <pt x="758" y="1565" on="1"/>
        <pt x="473" y="1743" on="1"/>
        <pt x="201" y="1569" on="1"/>
        <pt x="178" y="1579" on="0"/>
        <pt x="122" y="1638" on="0"/>
      </contour>
    </TTGlyph>
    <TTGlyph name="colon" xMin="154" yMin="0" xMax="476" yMax="965">
      <contour>
        <pt x="213" y="920" on="1"/>
        <pt x="267" y="965" on="0"/>
        <pt x="393" y="965" on="0"/>
        <pt x="476" y="887" on="0"/>
        <pt x="476" y="747" on="0"/>
        <pt x="416" y="690" on="1"/>
        <pt x="369" y="649" on="0"/>
        <pt x="241" y="649" on="0"/>
        <pt x="154" y="728" on="0"/>
        <pt x="154" y="866" on="0"/>
      </contour>
      <contour>
        <pt x="213" y="270" on="1"/>
        <pt x="269" y="316" on="0"/>
        <pt x="393" y="316" on="0"/>
        <pt x="476" y="237" on="0"/>
        <pt x="476" y="96" on="0"/>
        <pt x="369" y="0" on="0"/>
        <pt x="241" y="0" on="0"/>
        <pt x="154" y="79" on="0"/>
        <pt x="154" y="216" on="0"/>
      </contour>
    </TTGlyph>
    <TTGlyph name="comma" xMin="154" yMin="-213" xMax="475" yMax="291">
      <contour>
        <pt x="270" y="-25" on="1"/>
        <pt x="241" y="-25" on="0"/>
        <pt x="154" y="48" on="0"/>
        <pt x="154" y="181" on="0"/>
        <pt x="252" y="291" on="0"/>
        <pt x="388" y="291" on="0"/>
        <pt x="475" y="213" on="0"/>
        <pt x="475" y="41" on="0"/>
        <pt x="316" y="-181" on="0"/>
        <pt x="213" y="-213" on="1"/>
        <pt x="179" y="-195" on="0"/>
        <pt x="176" y="-158" on="1"/>
        <pt x="213" y="-129" on="0"/>
        <pt x="268" y="-44" on="0"/>
      </contour>
    </TTGlyph>
    <TTGlyph name="copyright" xMin="133" yMin="10" xMax="1737" yMax="1475">
      <contour>
        <pt x="1737" y="784" on="1"/>
        <pt x="1737" y="646" on="0"/>
        <pt x="1648" y="383" on="0"/>
        <pt x="1489" y="198" on="0"/>
        <pt x="1378" y="134" on="1"/>
        <pt x="1164" y="10" on="0"/>
        <pt x="858" y="10" on="1"/>
        <pt x="720" y="10" on="0"/>
        <pt x="457" y="114" on="0"/>
        <pt x="255" y="293" on="0"/>
        <pt x="133" y="553" on="0"/>
        <pt x="133" y="887" on="0"/>
        <pt x="272" y="1184" on="0"/>
        <pt x="394" y="1280" on="1"/>
        <pt x="645" y="1475" on="0"/>
        <pt x="1032" y="1475" on="1"/>
        <pt x="1242" y="1475" on="0"/>
        <pt x="1425" y="1355" on="1"/>
        <pt x="1737" y="1150" on="0"/>
      </contour>
      <contour>
        <pt x="1484" y="376" on="0"/>
        <pt x="1597" y="631" on="0"/>
        <pt x="1597" y="915" on="0"/>
        <pt x="1493" y="1127" on="0"/>
        <pt x="1327" y="1267" on="0"/>
        <pt x="1120" y="1348" on="0"/>
        <pt x="859" y="1348" on="0"/>
        <pt x="590" y="1265" on="0"/>
        <pt x="388" y="1107" on="0"/>
        <pt x="272" y="861" on="0"/>
        <pt x="272" y="585" on="0"/>
        <pt x="373" y="370" on="0"/>
        <pt x="540" y="222" on="0"/>
        <pt x="756" y="137" on="0"/>
        <pt x="1024" y="137" on="0"/>
        <pt x="1285" y="218" on="0"/>
      </contour>
      <contour>
        <pt x="725" y="589" on="0"/>
        <pt x="871" y="410" on="0"/>
        <pt x="1086" y="410" on="0"/>
        <pt x="1163" y="481" on="1"/>
        <pt x="1202" y="464" on="0"/>
        <pt x="1219" y="414" on="1"/>
        <pt x="1102" y="291" on="0"/>
        <pt x="740" y="291" on="0"/>
        <pt x="516" y="516" on="0"/>
        <pt x="516" y="936" on="0"/>
        <pt x="771" y="1190" on="0"/>
        <pt x="973" y="1190" on="1"/>
        <pt x="1088" y="1190" on="0"/>
        <pt x="1200" y="1143" on="1"/>
        <pt x="1210" y="1127" on="0"/>
        <pt x="1210" y="1081" on="1"/>
        <pt x="1204" y="950" on="1"/>
        <pt x="1169" y="928" on="0"/>
        <pt x="1127" y="928" on="1"/>
        <pt x="1049" y="928" on="0"/>
        <pt x="1049" y="1020" on="1"/>
        <pt x="1049" y="1033" on="0"/>
        <pt x="1051" y="1059" on="1"/>
        <pt x="1022" y="1083" on="0"/>
        <pt x="898" y="1083" on="0"/>
        <pt x="820" y="1052" on="0"/>
        <pt x="789" y="1016" on="1"/>
        <pt x="725" y="943" on="0"/>
      </contour>
    </TTGlyph>
    <TTGlyph name="currency" xMin="113" yMin="442" xMax="1135" yMax="1466">
      <contour>
        <pt x="113" y="1341" on="1"/>
        <pt x="116" y="1362" on="0"/>
        <pt x="203" y="1451" on="0"/>
        <pt x="223" y="1454" on="1"/>
        <pt x="261" y="1426" on="0"/>
        <pt x="401" y="1292" on="1"/>
        <pt x="521" y="1352" on="0"/>
        <pt x="680" y="1352" on="1"/>
        <pt x="772" y="1352" on="0"/>
        <pt x="856" y="1309" on="1"/>
        <pt x="987" y="1446" on="0"/>
        <pt x="1014" y="1466" on="1"/>
        <pt x="1045" y="1446" on="0"/>
        <pt x="1114" y="1376" on="0"/>
        <pt x="1126" y="1343" on="1"/>
        <pt x="1066" y="1275" on="0"/>
        <pt x="991" y="1200" on="1"/>
        <pt x="1071" y="1100" on="0"/>
        <pt x="1071" y="813" on="0"/>
        <pt x="987" y="702" on="1"/>
        <pt x="1084" y="609" on="0"/>
        <pt x="1135" y="555" on="1"/>
        <pt x="1117" y="526" on="0"/>
        <pt x="1045" y="457" on="0"/>
        <pt x="1012" y="444" on="1"/>
        <pt x="942" y="504" on="0"/>
        <pt x="852" y="594" on="1"/>
        <pt x="738" y="537" on="0"/>
        <pt x="473" y="537" on="0"/>
        <pt x="379" y="588" on="1"/>
        <pt x="289" y="498" on="0"/>
        <pt x="227" y="442" on="1"/>
        <pt x="206" y="445" on="0"/>
        <pt x="118" y="535" on="0"/>
        <pt x="117" y="555" on="1"/>
        <pt x="141" y="589" on="0"/>
        <pt x="248" y="702" on="1"/>
        <pt x="178" y="800" on="0"/>
        <pt x="178" y="1078" on="0"/>
        <pt x="264" y="1184" on="1"/>
        <pt x="169" y="1275" on="0"/>
      </contour>
      <contour>
        <pt x="714" y="735" on="0"/>
        <pt x="858" y="854" on="0"/>
        <pt x="858" y="1054" on="0"/>
        <pt x="730" y="1165" on="0"/>
        <pt x="536" y="1165" on="0"/>
        <pt x="387" y="1046" on="0"/>
        <pt x="387" y="851" on="0"/>
        <pt x="516" y="735" on="0"/>
      </contour>
    </TTGlyph>
    <TTGlyph name="d" xMin="80" yMin="-35" xMax="1299" yMax="1555">
      <contour>
        <pt x="1160" y="1347" on="1"/>
        <pt x="1151" y="731" on="1"/>
        <pt x="1151" y="518" on="0"/>
        <pt x="1157" y="213" on="1"/>
        <pt x="1157" y="146" on="0"/>
        <pt x="1212" y="141" on="1"/>
        <pt x="1224" y="140" on="0"/>
        <pt x="1274" y="140" on="0"/>
        <pt x="1288" y="139" on="1"/>
        <pt x="1299" y="120" on="0"/>
        <pt x="1299" y="78" on="0"/>
        <pt x="1296" y="63" on="1"/>
        <pt x="1122" y="-35" on="0"/>
        <pt x="1003" y="-35" on="1"/>
        <pt x="920" y="-22" on="0"/>
        <pt x="870" y="94" on="1"/>
        <pt x="799" y="26" on="0"/>
        <pt x="661" y="-35" on="0"/>
        <pt x="499" y="-35" on="0"/>
        <pt x="366" y="-2" on="0"/>
        <pt x="236" y="78" on="0"/>
        <pt x="188" y="138" on="1"/>
        <pt x="80" y="273" on="0"/>
        <pt x="80" y="502" on="1"/>
        <pt x="80" y="635" on="0"/>
        <pt x="180" y="849" on="0"/>
        <pt x="264" y="916" on="1"/>
        <pt x="436" y="1053" on="0"/>
        <pt x="677" y="1053" on="1"/>
        <pt x="746" y="1053" on="0"/>
        <pt x="868" y="1034" on="1"/>
        <pt x="862" y="1298" on="1"/>
        <pt x="859" y="1348" on="0"/>
        <pt x="790" y="1406" on="0"/>
        <pt x="737" y="1411" on="1"/>
        <pt x="730" y="1460" on="0"/>
        <pt x="730" y="1473" on="0"/>
        <pt x="731" y="1481" on="1"/>
        <pt x="920" y="1554" on="0"/>
        <pt x="1108" y="1554" on="1"/>
        <pt x="1117" y="1554" on="0"/>
        <pt x="1126" y="1554" on="1"/>
        <pt x="1140" y="1535" on="0"/>
        <pt x="1160" y="1415" on="0"/>
      </contour>
      <contour>
        <pt x="727" y="907" on="1"/>
        <pt x="579" y="907" on="0"/>
        <pt x="390" y="719" on="0"/>
        <pt x="390" y="528" on="1"/>
        <pt x="390" y="397" on="0"/>
        <pt x="451" y="232" on="0"/>
        <pt x="488" y="194" on="1"/>
        <pt x="561" y="119" on="0"/>
        <pt x="721" y="119" on="0"/>
        <pt x="805" y="167" on="0"/>
        <pt x="868" y="238" on="1"/>
        <pt x="875" y="370" on="0"/>
        <pt x="875" y="749" on="0"/>
        <pt x="872" y="895" on="1"/>
        <pt x="798" y="907" on="0"/>
      </contour>
    </TTGlyph>
    <TTGlyph name="degree" xMin="72" yMin="934" xMax="752" yMax="1552">
      <contour>
        <pt x="752" y="1270" on="1"/>
        <pt x="752" y="1105" on="0"/>
        <pt x="544" y="934" on="0"/>
        <pt x="381" y="934" on="1"/>
        <pt x="259" y="934" on="0"/>
        <pt x="72" y="1101" on="0"/>
        <pt x="72" y="1225" on="1"/>
        <pt x="72" y="1382" on="0"/>
        <pt x="286" y="1552" on="0"/>
        <pt x="453" y="1552" on="1"/>
        <pt x="525" y="1552" on="0"/>
        <pt x="660" y="1485" on="0"/>
        <pt x="752" y="1352" on="0"/>
      </contour>
      <contour>
        <pt x="327" y="1419" on="0"/>
        <pt x="248" y="1320" on="0"/>
        <pt x="248" y="1159" on="0"/>
        <pt x="356" y="1079" on="0"/>
        <pt x="496" y="1079" on="0"/>
        <pt x="580" y="1181" on="0"/>
        <pt x="580" y="1321" on="0"/>
        <pt x="480" y="1419" on="0"/>
      </contour>
    </TTGlyph>
    <TTGlyph name="dieresis" xMin="110" yMin="1225" xMax="823" yMax="1537">
      <contour>
        <pt x="332" y="1517" on="0"/>
        <pt x="409" y="1447" on="0"/>
        <pt x="409" y="1324" on="0"/>
        <pt x="315" y="1225" on="0"/>
        <pt x="190" y="1225" on="0"/>
        <pt x="110" y="1297" on="0"/>
        <pt x="110" y="1426" on="0"/>
        <pt x="164" y="1477" on="1"/>
        <pt x="213" y="1517" on="0"/>
      </contour>
      <contour>
        <pt x="745" y="1537" on="0"/>
        <pt x="823" y="1467" on="0"/>
        <pt x="823" y="1345" on="0"/>
        <pt x="729" y="1245" on="0"/>
        <pt x="595" y="1245" on="0"/>
        <pt x="524" y="1325" on="0"/>
        <pt x="524" y="1448" on="0"/>
        <pt x="578" y="1497" on="1"/>
        <pt x="627" y="1537" on="0"/>
      </contour>
    </TTGlyph>
    <TTGlyph name="dieresis.case" xMin="141" yMin="1604" xMax="884" yMax="1916">
      <contour>
        <pt x="362" y="1896" on="0"/>
        <pt x="440" y="1825" on="0"/>
        <pt x="440" y="1703" on="0"/>
        <pt x="347" y="1604" on="0"/>
        <pt x="221" y="1604" on="0"/>
        <pt x="141" y="1676" on="0"/>
        <pt x="141" y="1806" on="0"/>
        <pt x="195" y="1855" on="1"/>
        <pt x="245" y="1896" on="0"/>
      </contour>
      <contour>
        <pt x="807" y="1916" on="0"/>
        <pt x="884" y="1846" on="0"/>
        <pt x="884" y="1723" on="0"/>
        <pt x="790" y="1624" on="0"/>
        <pt x="656" y="1624" on="0"/>
        <pt x="586" y="1701" on="0"/>
        <pt x="586" y="1828" on="0"/>
        <pt x="639" y="1876" on="1"/>
        <pt x="688" y="1916" on="0"/>
      </contour>
    </TTGlyph>
    <TTGlyph name="divide" xMin="133" yMin="237" xMax="993" yMax="1234">
      <contour>
        <pt x="428" y="1144" on="0"/>
        <pt x="522" y="1234" on="0"/>
        <pt x="635" y="1234" on="0"/>
        <pt x="707" y="1167" on="0"/>
        <pt x="707" y="1046" on="0"/>
        <pt x="614" y="961" on="0"/>
        <pt x="504" y="961" on="0"/>
        <pt x="428" y="1030" on="0"/>
      </contour>
      <contour>
        <pt x="479" y="471" on="1"/>
        <pt x="527" y="510" on="0"/>
        <pt x="637" y="510" on="0"/>
        <pt x="707" y="443" on="0"/>
        <pt x="707" y="321" on="0"/>
        <pt x="655" y="272" on="1"/>
        <pt x="614" y="237" on="0"/>
        <pt x="505" y="237" on="0"/>
        <pt x="428" y="308" on="0"/>
        <pt x="428" y="425" on="0"/>
      </contour>
      <contour>
        <pt x="871" y="816" on="1"/>
        <pt x="987" y="815" on="1"/>
        <pt x="993" y="792" on="0"/>
        <pt x="993" y="688" on="0"/>
        <pt x="981" y="657" on="1"/>
        <pt x="143" y="657" on="1"/>
        <pt x="133" y="670" on="0"/>
        <pt x="133" y="792" on="0"/>
        <pt x="145" y="809" on="1"/>
        <pt x="462" y="816" on="0"/>
      </contour>
    </TTGlyph>
    <TTGlyph name="dollar" xMin="95" yMin="-186" xMax="1081" yMax="1597">
      <contour>
        <pt x="1029" y="1065" on="0"/>
        <pt x="982" y="1047" on="0"/>
        <pt x="946" y="1047" on="0"/>
        <pt x="904" y="1047" on="0"/>
        <pt x="868" y="1056" on="1"/>
        <pt x="797" y="1073" on="0"/>
        <pt x="797" y="1085" on="0"/>
        <pt x="797" y="1089" on="1"/>
        <pt x="797" y="1277" on="0"/>
        <pt x="672" y="1315" on="1"/>
        <pt x="678" y="1112" on="0"/>
        <pt x="678" y="834" on="1"/>
        <pt x="861" y="734" on="0"/>
        <pt x="945" y="661" on="0"/>
        <pt x="1017" y="586" on="0"/>
        <pt x="1036" y="550" on="1"/>
        <pt x="1081" y="461" on="0"/>
        <pt x="1081" y="367" on="1"/>
        <pt x="1081" y="214" on="0"/>
        <pt x="859" y="27" on="0"/>
        <pt x="676" y="6" on="1"/>
        <pt x="673" y="-109" on="0"/>
        <pt x="668" y="-180" on="1"/>
        <pt x="646" y="-186" on="0"/>
        <pt x="574" y="-186" on="0"/>
        <pt x="543" y="-174" on="1"/>
        <pt x="543" y="2" on="1"/>
        <pt x="330" y="12" on="0"/>
        <pt x="209" y="109" on="1"/>
        <pt x="96" y="198" on="0"/>
        <pt x="96" y="296" on="1"/>
        <pt x="96" y="354" on="0"/>
        <pt x="158" y="408" on="0"/>
        <pt x="228" y="408" on="1"/>
        <pt x="232" y="408" on="0"/>
        <pt x="236" y="408" on="1"/>
        <pt x="295" y="408" on="0"/>
        <pt x="350" y="375" on="1"/>
        <pt x="350" y="261" on="0"/>
        <pt x="441" y="134" on="0"/>
        <pt x="543" y="127" on="1"/>
        <pt x="543" y="627" on="1"/>
        <pt x="524" y="639" on="0"/>
        <pt x="450" y="682" on="0"/>
        <pt x="407" y="707" on="0"/>
        <pt x="339" y="750" on="0"/>
        <pt x="297" y="781" on="0"/>
        <pt x="241" y="827" on="0"/>
        <pt x="207" y="866" on="0"/>
        <pt x="169" y="918" on="0"/>
        <pt x="159" y="944" on="1"/>
        <pt x="135" y="1005" on="0"/>
        <pt x="135" y="1063" on="1"/>
        <pt x="135" y="1222" on="0"/>
        <pt x="362" y="1412" on="0"/>
        <pt x="543" y="1430" on="1"/>
        <pt x="543" y="1587" on="1"/>
        <pt x="554" y="1597" on="0"/>
        <pt x="647" y="1597" on="0"/>
        <pt x="662" y="1585" on="1"/>
        <pt x="668" y="1516" on="0"/>
        <pt x="670" y="1434" on="1"/>
        <pt x="957" y="1420" on="0"/>
        <pt x="1046" y="1251" on="1"/>
        <pt x="1071" y="1205" on="0"/>
        <pt x="1071" y="1135" on="0"/>
        <pt x="1057" y="1096" on="0"/>
      </contour>
      <contour>
        <pt x="393" y="1116" on="1"/>
        <pt x="393" y="1054" on="0"/>
        <pt x="470" y="957" on="0"/>
        <pt x="543" y="909" on="1"/>
        <pt x="543" y="1317" on="1"/>
        <pt x="393" y="1285" on="0"/>
      </contour>
      <contour>
        <pt x="678" y="137" on="1"/>
        <pt x="797" y="171" on="0"/>
        <pt x="797" y="319" on="1"/>
        <pt x="797" y="433" on="0"/>
        <pt x="678" y="535" on="1"/>
      </contour>
    </TTGlyph>
    <TTGlyph name="dotlessi" xMin="73" yMin="-21" xMax="534" yMax="1068">
      <contour>
        <pt x="229" y="811" on="1"/>
        <pt x="229" y="887" on="0"/>
        <pt x="176" y="901" on="1"/>
        <pt x="149" y="910" on="0"/>
        <pt x="80" y="918" on="1"/>
        <pt x="73" y="947" on="0"/>
        <pt x="73" y="978" on="0"/>
        <pt x="74" y="987" on="1"/>
        <pt x="218" y="1068" on="0"/>
        <pt x="435" y="1068" on="1"/>
        <pt x="470" y="1068" on="0"/>
        <pt x="487" y="1067" on="1"/>
        <pt x="515" y="1023" on="0"/>
        <pt x="526" y="895" on="1"/>
        <pt x="534" y="837" on="0"/>
        <pt x="534" y="593" on="0"/>
        <pt x="526" y="-2" on="1"/>
        <pt x="415" y="-21" on="0"/>
        <pt x="268" y="-21" on="0"/>
        <pt x="217" y="-2" on="1"/>
        <pt x="235" y="239" on="0"/>
        <pt x="235" y="630" on="0"/>
      </contour>
    </TTGlyph>
    <TTGlyph name="e" xMin="113" yMin="-35" xMax="1135" yMax="1067">
      <contour>
        <pt x="456" y="284" on="0"/>
        <pt x="652" y="102" on="0"/>
        <pt x="914" y="102" on="0"/>
        <pt x="1047" y="215" on="1"/>
        <pt x="1097" y="182" on="0"/>
        <pt x="1108" y="137" on="1"/>
        <pt x="1016" y="30" on="0"/>
        <pt x="836" y="-16" on="1"/>
        <pt x="763" y="-35" on="0"/>
        <pt x="572" y="-35" on="0"/>
        <pt x="368" y="34" on="0"/>
        <pt x="207" y="166" on="0"/>
        <pt x="113" y="381" on="0"/>
        <pt x="113" y="643" on="0"/>
        <pt x="209" y="856" on="0"/>
        <pt x="288" y="924" on="1"/>
        <pt x="453" y="1067" on="0"/>
        <pt x="666" y="1067" on="1"/>
        <pt x="853" y="1067" on="0"/>
        <pt x="990" y="966" on="1"/>
        <pt x="1056" y="916" on="0"/>
        <pt x="1135" y="757" on="0"/>
        <pt x="1135" y="657" on="1"/>
        <pt x="1135" y="486" on="0"/>
        <pt x="1022" y="477" on="1"/>
        <pt x="426" y="432" on="1"/>
      </contour>
      <contour>
        <pt x="866" y="806" on="0"/>
        <pt x="734" y="940" on="0"/>
        <pt x="520" y="940" on="0"/>
        <pt x="410" y="739" on="0"/>
        <pt x="410" y="561" on="1"/>
        <pt x="659" y="588" on="0"/>
        <pt x="860" y="618" on="1"/>
        <pt x="866" y="654" on="0"/>
        <pt x="866" y="687" on="1"/>
      </contour>
    </TTGlyph>
    <TTGlyph name="eacute" xMin="113" yMin="-35" xMax="1135" yMax="1618">
      <contour>
        <pt x="456" y="284" on="0"/>
        <pt x="652" y="102" on="0"/>
        <pt x="914" y="102" on="0"/>
        <pt x="1047" y="215" on="1"/>
        <pt x="1097" y="182" on="0"/>
        <pt x="1108" y="137" on="1"/>
        <pt x="1016" y="30" on="0"/>
        <pt x="836" y="-16" on="1"/>
        <pt x="763" y="-35" on="0"/>
        <pt x="572" y="-35" on="0"/>
        <pt x="368" y="34" on="0"/>
        <pt x="207" y="166" on="0"/>
        <pt x="113" y="381" on="0"/>
        <pt x="113" y="643" on="0"/>
        <pt x="209" y="856" on="0"/>
        <pt x="288" y="924" on="1"/>
        <pt x="453" y="1067" on="0"/>
        <pt x="666" y="1067" on="1"/>
        <pt x="853" y="1067" on="0"/>
        <pt x="990" y="966" on="1"/>
        <pt x="1056" y="916" on="0"/>
        <pt x="1135" y="757" on="0"/>
        <pt x="1135" y="657" on="1"/>
        <pt x="1135" y="486" on="0"/>
        <pt x="1022" y="477" on="1"/>
        <pt x="426" y="432" on="1"/>
      </contour>
      <contour>
        <pt x="866" y="806" on="0"/>
        <pt x="734" y="940" on="0"/>
        <pt x="520" y="940" on="0"/>
        <pt x="410" y="739" on="0"/>
        <pt x="410" y="561" on="1"/>
        <pt x="659" y="588" on="0"/>
        <pt x="860" y="618" on="1"/>
        <pt x="866" y="654" on="0"/>
        <pt x="866" y="687" on="1"/>
      </contour>
      <contour>
        <pt x="592" y="1219" on="1"/>
        <pt x="645" y="1414" on="0"/>
        <pt x="719" y="1551" on="0"/>
        <pt x="743" y="1576" on="1"/>
        <pt x="780" y="1616" on="0"/>
        <pt x="821" y="1618" on="1"/>
        <pt x="882" y="1616" on="0"/>
        <pt x="973" y="1559" on="0"/>
        <pt x="989" y="1509" on="1"/>
        <pt x="912" y="1450" on="0"/>
        <pt x="690" y="1169" on="1"/>
        <pt x="628" y="1185" on="0"/>
      </contour>
    </TTGlyph>
    <TTGlyph name="ecircumflex" xMin="113" yMin="-35" xMax="1135" yMax="1602">
      <component glyphName="e" x="0" y="0" flags="0x1004"/>
      <component glyphName="circumflex" x="276" y="0" flags="0x1004"/>
    </TTGlyph>
</ttFont>
